<?xml version="1.0" encoding="UTF-8"?>
<svg version="1.1" xmlns="http://www.w3.org/2000/svg" width="225" height="225">
<path d="M0 0 C13.78753475 7.1372972 22.7173015 18.19612912 27.484375 33.0390625 C28.94069302 38.50025507 30.19860796 43.91360289 30.17578125 49.58984375 C30.21577081 60.12042811 34.96321091 67.83137536 40.171875 76.68383789 C41.19989745 78.70009634 41.82688936 80.44302013 42.1875 82.67578125 C40.46079958 85.26583188 38.59959638 85.94047089 35.734375 87.23046875 C32.68955852 88.9611235 31.58440176 90.31892397 30.515625 93.65234375 C30.12914264 95.19528492 29.7707134 96.7454662 29.4375 98.30078125 C29.03652222 99.92058873 28.63548099 101.54038051 28.234375 103.16015625 C27.88402481 104.66504123 27.53493698 106.17022102 27.1875 107.67578125 C24.93403055 116.91058744 24.93403055 116.91058744 21.6875 120.23828125 C16.06304784 123.47234124 10.3261354 123.04601437 4 123.17578125 C2.88818359 123.22992188 1.77636719 123.2840625 0.63085938 123.33984375 C-5.10981657 123.43501185 -8.9238189 123.25364804 -13.40625 119.44921875 C-20.38375649 112.23708983 -25.64379737 102.71934157 -26.25 92.55078125 C-25.40805385 85.09354391 -21.37493284 80.90445535 -16.10546875 75.9609375 C-13.22949884 70.87802995 -16.11472097 64.36358401 -17.5546875 59.0859375 C-18.25949551 56.63494785 -18.97060028 54.18576147 -19.6875 51.73828125 C-20.03941406 50.51431641 -20.39132813 49.29035156 -20.75390625 48.02929688 C-22.46571887 42.11431609 -24.22496733 36.24136596 -26.30126953 30.44311523 C-26.8125 28.67578125 -26.8125 28.67578125 -26.8125 25.67578125 C-27.4725 26.33578125 -28.1325 26.99578125 -28.8125 27.67578125 C-28.1525 28.66578125 -27.4925 29.65578125 -26.8125 30.67578125 C-26.46875 32.796875 -26.46875 32.796875 -26.3125 35.11328125 C-26.08332869 38.49928736 -25.37731801 40.68009852 -23.8125 43.67578125 C-23.20199534 47.27097538 -22.79070702 50.86569149 -22.375 54.48828125 C-22.11203167 57.75855781 -22.11203167 57.75855781 -19.8125 59.67578125 C-17.0340973 68.59591623 -17.0340973 68.59591623 -18.8125 72.67578125 C-22.74992794 77.37565911 -27.57674085 81.30290754 -32.2109375 85.29296875 C-34.40778011 87.01360788 -34.40778011 87.01360788 -35.0859375 89.57421875 C-35.35511423 96.13798971 -33.9062261 100.41003371 -30.7109375 106.1328125 C-29.8125 108.67578125 -29.8125 108.67578125 -30.5390625 111.3125 C-31.8125 113.67578125 -31.8125 113.67578125 -33.8125 116.67578125 C-37.53551503 117.15309087 -38.60441085 116.81450735 -41.8125 114.67578125 C-41.4825 111.70578125 -41.1525 108.73578125 -40.8125 105.67578125 C-44.70974636 106.32831169 -44.70974636 106.32831169 -46.75 108.36328125 C-47.430625 108.79640625 -48.11125 109.22953125 -48.8125 109.67578125 C-51.95009973 108.85402894 -53.51505875 107.9732225 -55.8125 105.67578125 C-55.4567194 102.29586551 -54.45534201 99.63289687 -52.8125 96.67578125 C-56.01312687 95.07546781 -58.53521806 96.64404434 -61.8125 97.67578125 C-65.8125 93.31214489 -65.8125 93.31214489 -65.8125 90.55078125 C-64.56379734 88.20946377 -62.9221586 87.24101182 -60.8125 85.67578125 C-60.8125 84.68578125 -60.8125 83.69578125 -60.8125 82.67578125 C-63.4525 82.67578125 -66.0925 82.67578125 -68.8125 82.67578125 C-70.96967092 77.40269677 -70.96967092 77.40269677 -70.3125 74.36328125 C-68.12384979 71.90104976 -65.99897425 71.95286597 -62.8125 71.67578125 C-62.76960245 69.74468544 -62.76960245 69.74468544 -63.8125 67.67578125 C-67.30047488 65.88306734 -67.30047488 65.88306734 -70.8125 64.67578125 C-69.9375 57.80078125 -69.9375 57.80078125 -68.8125 56.67578125 C-67.29321962 56.60398161 -65.77082518 56.59186118 -64.25 56.61328125 C-63.42371094 56.62230469 -62.59742187 56.63132813 -61.74609375 56.640625 C-61.10800781 56.65222656 -60.46992187 56.66382813 -59.8125 56.67578125 C-59.8125 55.35578125 -59.8125 54.03578125 -59.8125 52.67578125 C-60.43125 52.42828125 -61.05 52.18078125 -61.6875 51.92578125 C-63.8125 50.67578125 -63.8125 50.67578125 -65.25 48.86328125 C-65.8125 46.67578125 -65.8125 46.67578125 -64.4375 43.92578125 C-63.90125 43.18328125 -63.365 42.44078125 -62.8125 41.67578125 C-59.1825 42.00578125 -55.5525 42.33578125 -51.8125 42.67578125 C-52.781875 41.29390625 -53.75125 39.91203125 -54.75 38.48828125 C-57.07487821 35.17409316 -58.17398896 32.66647526 -58.8125 28.67578125 C-59.80333967 26.44170012 -59.80333967 26.44170012 -60.8125 24.67578125 C-60.1525 24.01578125 -59.4925 23.35578125 -58.8125 22.67578125 C-59.4725 22.01578125 -60.1325 21.35578125 -60.8125 20.67578125 C-60.625 18.61328125 -60.625 18.61328125 -59.8125 16.67578125 C-58.8225 16.34578125 -57.8325 16.01578125 -56.8125 15.67578125 C-57.1425 14.02578125 -57.4725 12.37578125 -57.8125 10.67578125 C-57.173125 10.42828125 -56.53375 10.18078125 -55.875 9.92578125 C-53.62189427 8.87429398 -53.62189427 8.87429398 -53.1875 6.61328125 C-53.06375 5.97390625 -52.94 5.33453125 -52.8125 4.67578125 C-52.1525 4.34578125 -51.4925 4.01578125 -50.8125 3.67578125 C-50.1525 4.00578125 -49.4925 4.33578125 -48.8125 4.67578125 C-48.1525 3.35578125 -47.4925 2.03578125 -46.8125 0.67578125 C-44.64375748 1.18182117 -42.81282373 1.67561938 -40.8125 2.67578125 C-40.8125 1.68578125 -40.8125 0.69578125 -40.8125 -0.32421875 C-38.4375 -0.44921875 -38.4375 -0.44921875 -35.8125 -0.32421875 C-35.1525 0.33578125 -34.4925 0.99578125 -33.8125 1.67578125 C-33.214375 0.87140625 -32.61625 0.06703125 -32 -0.76171875 C-24.90481209 -9.07322459 -8.55081791 -4.0260101 0 0 Z M-38.8125 10.67578125 C-37.8125 14.67578125 -37.8125 14.67578125 -37.8125 14.67578125 Z M-43.8125 11.67578125 C-43.8125 12.66578125 -43.8125 13.65578125 -43.8125 14.67578125 C-43.1525 14.34578125 -42.4925 14.01578125 -41.8125 13.67578125 C-42.4725 13.01578125 -43.1325 12.35578125 -43.8125 11.67578125 Z M-31.8125 11.67578125 C-30.8125 13.67578125 -30.8125 13.67578125 -30.8125 13.67578125 Z M-47.8125 16.67578125 C-47.4825 17.33578125 -47.1525 17.99578125 -46.8125 18.67578125 C-46.1525 18.34578125 -45.4925 18.01578125 -44.8125 17.67578125 C-45.8025 17.34578125 -46.7925 17.01578125 -47.8125 16.67578125 Z M-30.8125 16.67578125 C-30.4825 17.66578125 -30.1525 18.65578125 -29.8125 19.67578125 C-29.8125 18.68578125 -29.8125 17.69578125 -29.8125 16.67578125 C-30.1425 16.67578125 -30.4725 16.67578125 -30.8125 16.67578125 Z M-49.8125 21.67578125 C-45.8125 22.67578125 -45.8125 22.67578125 -45.8125 22.67578125 Z M-29.8125 21.67578125 C-29.1525 22.33578125 -28.4925 22.99578125 -27.8125 23.67578125 C-27.8125 23.01578125 -27.8125 22.35578125 -27.8125 21.67578125 C-28.4725 21.67578125 -29.1325 21.67578125 -29.8125 21.67578125 Z M-47.8125 26.67578125 C-46.8125 28.67578125 -46.8125 28.67578125 -46.8125 28.67578125 Z M-43.8125 30.67578125 C-42.8125 32.67578125 -42.8125 32.67578125 -42.8125 32.67578125 Z M-33.8125 45.67578125 C-34.8025 46.17078125 -34.8025 46.17078125 -35.8125 46.67578125 C-35.4825 47.66578125 -35.1525 48.65578125 -34.8125 49.67578125 C-34.4825 50.66578125 -34.1525 51.65578125 -33.8125 52.67578125 C-33.1525 52.67578125 -32.4925 52.67578125 -31.8125 52.67578125 C-31.4825 53.66578125 -31.1525 54.65578125 -30.8125 55.67578125 C-30.1525 55.34578125 -29.4925 55.01578125 -28.8125 54.67578125 C-29.0672514 53.36006522 -29.34184141 52.04817749 -29.625 50.73828125 C-29.77582031 50.00738281 -29.92664063 49.27648437 -30.08203125 48.5234375 C-30.32308594 47.91371094 -30.56414062 47.30398437 -30.8125 46.67578125 C-31.8025 46.34578125 -32.7925 46.01578125 -33.8125 45.67578125 Z M-43.8125 54.67578125 C-44.1425 55.99578125 -44.4725 57.31578125 -44.8125 58.67578125 C-40.8525 60.65578125 -40.8525 60.65578125 -36.8125 62.67578125 C-36.4825 61.35578125 -36.1525 60.03578125 -35.8125 58.67578125 C-39.30033514 55.42862063 -39.30033514 55.42862063 -43.8125 54.67578125 Z M-47.8125 66.67578125 C-48.1425 67.66578125 -48.4725 68.65578125 -48.8125 69.67578125 C-48.4825 70.33578125 -48.1525 70.99578125 -47.8125 71.67578125 C-44.8425 71.67578125 -41.8725 71.67578125 -38.8125 71.67578125 C-38.4825 71.01578125 -38.1525 70.35578125 -37.8125 69.67578125 C-38.1425 69.01578125 -38.4725 68.35578125 -38.8125 67.67578125 C-40.93826782 67.20926918 -40.93826782 67.20926918 -43.375 67.05078125 C-44.20128906 66.97601563 -45.02757812 66.90125 -45.87890625 66.82421875 C-46.51699219 66.77523437 -47.15507813 66.72625 -47.8125 66.67578125 Z M-37.8125 76.67578125 C-41.7725 78.65578125 -41.7725 78.65578125 -45.8125 80.67578125 C-45.1525 81.99578125 -44.4925 83.31578125 -43.8125 84.67578125 C-39.87576356 83.36353577 -37.58530706 81.75667798 -34.8125 78.67578125 C-35.8025 78.01578125 -36.7925 77.35578125 -37.8125 76.67578125 Z " fill="#55ABCB" transform="translate(127.8125,53.32421875)"/>
<path d="M0 0 C2.64 0 5.28 0 8 0 C8.92470553 4.71599818 9.22923777 7.67265609 7 12 C7.66 12 8.32 12 9 12 C9.33 11.34 9.66 10.68 10 10 C10.66 13.3 11.32 16.6 12 20 C11.34 20 10.68 20 10 20 C11.36983503 23.16115776 11.9890638 23.9927092 15 26 C15.44140625 28.0234375 15.44140625 28.0234375 15.5625 30.375 C15.75192409 33.80759409 16.4068136 35.96800573 18 39 C18.61050466 42.59519413 19.02179298 46.18991024 19.4375 49.8125 C19.70046833 53.08277656 19.70046833 53.08277656 22 55 C24.7784027 63.92013498 24.7784027 63.92013498 23 68 C19.06257206 72.69987786 14.23575915 76.62712629 9.6015625 80.6171875 C7.40471989 82.33782663 7.40471989 82.33782663 6.7265625 84.8984375 C6.45738577 91.46220846 7.9062739 95.73425246 11.1015625 101.45703125 C12 104 12 104 11.2734375 106.63671875 C10 109 10 109 8 112 C4.27698497 112.47730962 3.20808915 112.1387261 0 110 C0.33 107.03 0.66 104.06 1 101 C-2.89724636 101.65253044 -2.89724636 101.65253044 -4.9375 103.6875 C-5.618125 104.120625 -6.29875 104.55375 -7 105 C-10.13759973 104.17824769 -11.70255875 103.29744125 -14 101 C-13.6442194 97.62008426 -12.64284201 94.95711562 -11 92 C-14.20062687 90.39968656 -16.72271806 91.96826309 -20 93 C-24 88.63636364 -24 88.63636364 -24 85.875 C-22.75129734 83.53368252 -21.1096586 82.56523057 -19 81 C-19 80.01 -19 79.02 -19 78 C-21.64 78 -24.28 78 -27 78 C-29.15717092 72.72691552 -29.15717092 72.72691552 -28.5 69.6875 C-26.31134979 67.22526851 -24.18647425 67.27708472 -21 67 C-20.95710245 65.06890419 -20.95710245 65.06890419 -22 63 C-25.48797488 61.20728609 -25.48797488 61.20728609 -29 60 C-28.125 53.125 -28.125 53.125 -27 52 C-25.48071962 51.92820036 -23.95832518 51.91607993 -22.4375 51.9375 C-21.61121094 51.94652344 -20.78492187 51.95554688 -19.93359375 51.96484375 C-19.29550781 51.97644531 -18.65742187 51.98804688 -18 52 C-18 50.68 -18 49.36 -18 48 C-18.61875 47.7525 -19.2375 47.505 -19.875 47.25 C-22 46 -22 46 -23.4375 44.1875 C-24 42 -24 42 -22.625 39.25 C-22.08875 38.5075 -21.5525 37.765 -21 37 C-17.37 37.33 -13.74 37.66 -10 38 C-10.99 36.68 -11.98 35.36 -13 34 C-13.1875 31.25 -13.1875 31.25 -13 29 C-12.34 28.67 -11.68 28.34 -11 28 C-11 26.68 -11 25.36 -11 24 C-11.66 24 -12.32 24 -13 24 C-13.83796731 19.34462607 -14.0161692 15.62921525 -13 11 C-12.34 11 -11.68 11 -11 11 C-10.67 9.35 -10.34 7.7 -10 6 C-9.01 5.67 -8.02 5.34 -7 5 C-6.67 4.01 -6.34 3.02 -6 2 C-4.02 2 -2.04 2 0 2 C0 1.34 0 0.68 0 0 Z M3 6 C4 10 4 10 4 10 Z M-2 7 C-2 7.99 -2 8.98 -2 10 C-1.34 9.67 -0.68 9.34 0 9 C-0.66 8.34 -1.32 7.68 -2 7 Z M-6 12 C-5.67 12.66 -5.34 13.32 -5 14 C-4.34 13.67 -3.68 13.34 -3 13 C-3.99 12.67 -4.98 12.34 -6 12 Z M-8 17 C-4 18 -4 18 -4 18 Z M-6 22 C-5 24 -5 24 -5 24 Z M-2 26 C-1 28 -1 28 -1 28 Z M8 41 C7.01 41.495 7.01 41.495 6 42 C6.33 42.99 6.66 43.98 7 45 C7.33 45.99 7.66 46.98 8 48 C8.66 48 9.32 48 10 48 C10.33 48.99 10.66 49.98 11 51 C11.66 50.67 12.32 50.34 13 50 C12.7452486 48.68428397 12.47065859 47.37239624 12.1875 46.0625 C12.03667969 45.33160156 11.88585937 44.60070312 11.73046875 43.84765625 C11.48941406 43.23792969 11.24835938 42.62820312 11 42 C10.01 41.67 9.02 41.34 8 41 Z M-2 50 C-2.33 51.32 -2.66 52.64 -3 54 C0.96 55.98 0.96 55.98 5 58 C5.33 56.68 5.66 55.36 6 54 C2.51216486 50.75283938 2.51216486 50.75283938 -2 50 Z M-6 62 C-6.33 62.99 -6.66 63.98 -7 65 C-6.67 65.66 -6.34 66.32 -6 67 C-3.03 67 -0.06 67 3 67 C3.33 66.34 3.66 65.68 4 65 C3.67 64.34 3.34 63.68 3 63 C0.87423218 62.53348793 0.87423218 62.53348793 -1.5625 62.375 C-2.38878906 62.30023438 -3.21507812 62.22546875 -4.06640625 62.1484375 C-4.70449219 62.09945312 -5.34257813 62.05046875 -6 62 Z M4 72 C0.04 73.98 0.04 73.98 -4 76 C-3.34 77.32 -2.68 78.64 -2 80 C1.93673644 78.68775452 4.22719294 77.08089673 7 74 C6.01 73.34 5.02 72.68 4 72 Z " fill="#1A1A1A" transform="translate(86,58)"/>
<path d="M0 0 C14.06047966 7.27859069 22.59812797 18.34334239 27.53125 33.37109375 C27.7478125 34.13164063 27.964375 34.8921875 28.1875 35.67578125 C28.38214844 36.35898438 28.57679688 37.0421875 28.77734375 37.74609375 C29.4087573 40.71674416 29.24565524 43.65170854 29.1875 46.67578125 C28.7853125 45.71671875 28.7853125 45.71671875 28.375 44.73828125 C27.30082248 42.34446439 27.30082248 42.34446439 24.1875 41.67578125 C24.2803125 40.43828125 24.2803125 40.43828125 24.375 39.17578125 C24.15286706 35.02929963 23.2866637 31.29532689 21.1875 27.67578125 C19.7025 27.18078125 19.7025 27.18078125 18.1875 26.67578125 C17.45669734 24.69831522 16.79328253 22.69505636 16.1875 20.67578125 C15.1975 19.19078125 15.1975 19.19078125 14.1875 17.67578125 C14.1875 17.01578125 14.1875 16.35578125 14.1875 15.67578125 C13.5275 15.67578125 12.8675 15.67578125 12.1875 15.67578125 C11.1975 14.19078125 11.1975 14.19078125 10.1875 12.67578125 C7.88100484 11.336526 5.72926763 10.52303713 3.1875 9.67578125 C3.8475 9.67578125 4.5075 9.67578125 5.1875 9.67578125 C5.1875 9.01578125 5.1875 8.35578125 5.1875 7.67578125 C3.5375 7.34578125 1.8875 7.01578125 0.1875 6.67578125 C-0.3075 5.19078125 -0.3075 5.19078125 -0.8125 3.67578125 C-2.43701419 3.34008828 -4.06212917 3.00730165 -5.6875 2.67578125 C-6.59242187 2.49015625 -7.49734375 2.30453125 -8.4296875 2.11328125 C-10.81087246 1.67608008 -12.85595216 1.676402 -15.2734375 1.7109375 C-16.23507813 1.71996094 -17.19671875 1.72898437 -18.1875 1.73828125 C-19.62222656 1.75568359 -19.62222656 1.75568359 -21.0859375 1.7734375 C-23.5097782 1.68662372 -25.50121885 1.37135638 -27.8125 0.67578125 C-27.1525 1.66578125 -26.4925 2.65578125 -25.8125 3.67578125 C-24.8225 3.67578125 -23.8325 3.67578125 -22.8125 3.67578125 C-23.1425 4.68640625 -23.4725 5.69703125 -23.8125 6.73828125 C-25.55167868 12.84390854 -25.39864736 19.11002362 -22.8046875 24.94140625 C-21.36771705 28.90156105 -21.36465009 32.75517189 -21.15625 36.93359375 C-20.99325478 39.8887907 -20.99325478 39.8887907 -18.8125 42.67578125 C-18.12149447 44.66750307 -17.45347297 46.66739929 -16.8125 48.67578125 C-16.4825 49.33578125 -16.1525 49.99578125 -15.8125 50.67578125 C-15.67834528 53.34814335 -15.76931459 55.99828613 -15.8125 58.67578125 C-15.1525 58.67578125 -14.4925 58.67578125 -13.8125 58.67578125 C-13.3175 66.59578125 -13.3175 66.59578125 -12.8125 74.67578125 C-13.8025 74.18078125 -13.8025 74.18078125 -14.8125 73.67578125 C-15.027564 71.88284974 -15.23565777 70.08893854 -15.41894531 68.29248047 C-16.26729063 62.65193141 -18.08691914 57.20262989 -19.6875 51.73828125 C-20.03941406 50.51431641 -20.39132813 49.29035156 -20.75390625 48.02929688 C-22.46571887 42.11431609 -24.22496733 36.24136596 -26.30126953 30.44311523 C-26.8125 28.67578125 -26.8125 28.67578125 -26.8125 25.67578125 C-27.4725 26.33578125 -28.1325 26.99578125 -28.8125 27.67578125 C-28.4825 28.33578125 -28.1525 28.99578125 -27.8125 29.67578125 C-29.1325 29.01578125 -30.4525 28.35578125 -31.8125 27.67578125 C-31.503125 26.90234375 -31.503125 26.90234375 -31.1875 26.11328125 C-30.65362974 22.64312454 -31.73573239 19.96942334 -32.8125 16.67578125 C-33.4725 16.67578125 -34.1325 16.67578125 -34.8125 16.67578125 C-34.7403125 16.06089844 -34.668125 15.44601563 -34.59375 14.8125 C-34.45453125 13.60013672 -34.45453125 13.60013672 -34.3125 12.36328125 C-34.17328125 11.16251953 -34.17328125 11.16251953 -34.03125 9.9375 C-33.76436537 7.5568157 -33.76436537 7.5568157 -33.8125 4.67578125 C-37.28862524 5.08473716 -40.36441662 5.4965479 -43.625 6.80078125 C-44.346875 7.08953125 -45.06875 7.37828125 -45.8125 7.67578125 C-46.4725 7.34578125 -47.1325 7.01578125 -47.8125 6.67578125 C-48.1425 7.99578125 -48.4725 9.31578125 -48.8125 10.67578125 C-49.8025 10.67578125 -50.7925 10.67578125 -51.8125 10.67578125 C-52.1425 12.32578125 -52.4725 13.97578125 -52.8125 15.67578125 C-53.4725 15.67578125 -54.1325 15.67578125 -54.8125 15.67578125 C-54.8125 19.96578125 -54.8125 24.25578125 -54.8125 28.67578125 C-54.1525 28.67578125 -53.4925 28.67578125 -52.8125 28.67578125 C-52.4825 29.99578125 -52.1525 31.31578125 -51.8125 32.67578125 C-53.2975 33.17078125 -53.2975 33.17078125 -54.8125 33.67578125 C-55.1425 34.66578125 -55.4725 35.65578125 -55.8125 36.67578125 C-57.80502503 33.68699371 -58.1449609 32.09691913 -58.8125 28.67578125 C-59.80333967 26.44170012 -59.80333967 26.44170012 -60.8125 24.67578125 C-60.1525 24.01578125 -59.4925 23.35578125 -58.8125 22.67578125 C-59.4725 22.01578125 -60.1325 21.35578125 -60.8125 20.67578125 C-60.625 18.61328125 -60.625 18.61328125 -59.8125 16.67578125 C-58.8225 16.34578125 -57.8325 16.01578125 -56.8125 15.67578125 C-57.1425 14.02578125 -57.4725 12.37578125 -57.8125 10.67578125 C-57.173125 10.42828125 -56.53375 10.18078125 -55.875 9.92578125 C-53.62189427 8.87429398 -53.62189427 8.87429398 -53.1875 6.61328125 C-53.001875 5.65421875 -53.001875 5.65421875 -52.8125 4.67578125 C-52.1525 4.34578125 -51.4925 4.01578125 -50.8125 3.67578125 C-50.1525 4.00578125 -49.4925 4.33578125 -48.8125 4.67578125 C-48.1525 3.35578125 -47.4925 2.03578125 -46.8125 0.67578125 C-44.64375748 1.18182117 -42.81282373 1.67561938 -40.8125 2.67578125 C-40.8125 1.68578125 -40.8125 0.69578125 -40.8125 -0.32421875 C-38.4375 -0.44921875 -38.4375 -0.44921875 -35.8125 -0.32421875 C-35.1525 0.33578125 -34.4925 0.99578125 -33.8125 1.67578125 C-33.214375 0.87140625 -32.61625 0.06703125 -32 -0.76171875 C-24.90481209 -9.07322459 -8.55081791 -4.0260101 0 0 Z M-31.8125 11.67578125 C-30.8125 13.67578125 -30.8125 13.67578125 -30.8125 13.67578125 Z M-30.8125 16.67578125 C-30.4825 17.66578125 -30.1525 18.65578125 -29.8125 19.67578125 C-29.8125 18.68578125 -29.8125 17.69578125 -29.8125 16.67578125 C-30.1425 16.67578125 -30.4725 16.67578125 -30.8125 16.67578125 Z M-29.8125 21.67578125 C-29.1525 22.33578125 -28.4925 22.99578125 -27.8125 23.67578125 C-27.8125 23.01578125 -27.8125 22.35578125 -27.8125 21.67578125 C-28.4725 21.67578125 -29.1325 21.67578125 -29.8125 21.67578125 Z " fill="#A1CDDA" transform="translate(127.8125,53.32421875)"/>
<path d="M0 0 C0.33 0 0.66 0 1 0 C1.07347656 0.90492187 1.07347656 0.90492187 1.1484375 1.828125 C1.22320312 2.62734375 1.29796875 3.4265625 1.375 4.25 C1.44460937 5.03890625 1.51421875 5.8278125 1.5859375 6.640625 C2.01795528 9.1023112 2.85192993 10.79840681 4 13 C4.61050466 16.59519413 5.02179298 20.18991024 5.4375 23.8125 C5.70046833 27.08277656 5.70046833 27.08277656 8 29 C10.7784027 37.92013498 10.7784027 37.92013498 9 42 C5.06257206 46.69987786 0.23575915 50.62712629 -4.3984375 54.6171875 C-5.28852819 55.38570483 -6.16847119 56.16847119 -7 57 C-7.07258946 59.18639453 -7.08373783 61.37500389 -7.0625 63.5625 C-7.05347656 64.76003906 -7.04445313 65.95757812 -7.03515625 67.19140625 C-7.02355469 68.11824219 -7.01195313 69.04507813 -7 70 C-9 68 -9 68 -9.1953125 65.1796875 C-9.17210938 64.08914062 -9.14890625 62.99859375 -9.125 61.875 C-9.10695313 60.77929688 -9.08890625 59.68359375 -9.0703125 58.5546875 C-9.04710938 57.71164063 -9.02390625 56.86859375 -9 56 C-10.98 56.495 -10.98 56.495 -13 57 C-13 56.34 -13 55.68 -13 55 C-14.32 55 -15.64 55 -17 55 C-18.625 51.6875 -18.625 51.6875 -20 48 C-19.34 47.01 -18.68 46.02 -18 45 C-17.01 45.33 -16.02 45.66 -15 46 C-14.67 45.34 -14.34 44.68 -14 44 C-13.34 44 -12.68 44 -12 44 C-14.97 43.34 -17.94 42.68 -21 42 C-22.01925446 38.75691762 -22.15750057 37.37302767 -20.8125 34.1875 C-20.214375 33.465625 -19.61625 32.74375 -19 32 C-17.68 32 -16.36 32 -15 32 C-15.33 31.34 -15.66 30.68 -16 30 C-16.99 29.67 -17.98 29.34 -19 29 C-19 26.69 -19 24.38 -19 22 C-16.29120665 20.64560332 -13.99066732 20.93498549 -11 21 C-10.34 19.02 -9.68 17.04 -9 15 C-8.34 15 -7.68 15 -7 15 C-6.67 12.69 -6.34 10.38 -6 8 C-2.25 6.875 -2.25 6.875 0 8 C0 5.36 0 2.72 0 0 Z M-6 15 C-6.99 15.495 -6.99 15.495 -8 16 C-7.67 16.99 -7.34 17.98 -7 19 C-6.67 19.99 -6.34 20.98 -6 22 C-5.34 22 -4.68 22 -4 22 C-3.67 22.99 -3.34 23.98 -3 25 C-2.34 24.67 -1.68 24.34 -1 24 C-1.2547514 22.68428397 -1.52934141 21.37239624 -1.8125 20.0625 C-1.96332031 19.33160156 -2.11414063 18.60070312 -2.26953125 17.84765625 C-2.51058594 17.23792969 -2.75164062 16.62820312 -3 16 C-3.99 15.67 -4.98 15.34 -6 15 Z M-16 24 C-16.33 25.32 -16.66 26.64 -17 28 C-13.04 29.98 -13.04 29.98 -9 32 C-8.67 30.68 -8.34 29.36 -8 28 C-11.48783514 24.75283938 -11.48783514 24.75283938 -16 24 Z M-20 36 C-20.33 36.99 -20.66 37.98 -21 39 C-20.67 39.66 -20.34 40.32 -20 41 C-17.03 41 -14.06 41 -11 41 C-10.67 40.34 -10.34 39.68 -10 39 C-10.33 38.34 -10.66 37.68 -11 37 C-13.12576782 36.53348793 -13.12576782 36.53348793 -15.5625 36.375 C-16.38878906 36.30023438 -17.21507813 36.22546875 -18.06640625 36.1484375 C-18.70449219 36.09945312 -19.34257813 36.05046875 -20 36 Z M-10 46 C-13.96 47.98 -13.96 47.98 -18 50 C-17.34 51.32 -16.68 52.64 -16 54 C-12.06326356 52.68775452 -9.77280706 51.08089673 -7 48 C-7.99 47.34 -8.98 46.68 -10 46 Z " fill="#1E1E1E" transform="translate(100,84)"/>
<path d="M0 0 C2.64 0 5.28 0 8 0 C8.92470553 4.71599818 9.22923777 7.67265609 7 12 C7.66 12 8.32 12 9 12 C9.33 11.34 9.66 10.68 10 10 C10.66 13.3 11.32 16.6 12 20 C11.34 20 10.68 20 10 20 C10 20.66 10 21.32 10 22 C9.34 22.33 8.68 22.66 8 23 C8 24.98 8 26.96 8 29 C8.99 29 9.98 29 11 29 C11 29.66 11 30.32 11 31 C10.34 31 9.68 31 9 31 C9 31.66 9 32.32 9 33 C7.88625 33.268125 6.7725 33.53625 5.625 33.8125 C1.78159049 34.65809019 1.78159049 34.65809019 0 38 C0 36.35 0 34.7 0 33 C-1.65 33 -3.3 33 -5 33 C-5.495 31.515 -5.495 31.515 -6 30 C-5.030625 29.566875 -4.06125 29.13375 -3.0625 28.6875 C0.27731765 27.2985139 0.27731765 27.2985139 1 24 C0.01 24 -0.98 24 -2 24 C-2 22.68 -2 21.36 -2 20 C-2.66 20 -3.32 20 -4 20 C-4 18.68 -4 17.36 -4 16 C-5.65 16 -7.3 16 -9 16 C-9 17.32 -9 18.64 -9 20 C-7.68 20.33 -6.36 20.66 -5 21 C-10.75 24 -10.75 24 -13 24 C-13.83796731 19.34462607 -14.0161692 15.62921525 -13 11 C-12.34 11 -11.68 11 -11 11 C-10.67 9.35 -10.34 7.7 -10 6 C-9.01 5.67 -8.02 5.34 -7 5 C-6.67 4.01 -6.34 3.02 -6 2 C-4.02 2 -2.04 2 0 2 C0 1.34 0 0.68 0 0 Z M3 6 C4 10 4 10 4 10 Z M-2 7 C-2 7.99 -2 8.98 -2 10 C-1.34 9.67 -0.68 9.34 0 9 C-0.66 8.34 -1.32 7.68 -2 7 Z M-6 12 C-5.67 12.66 -5.34 13.32 -5 14 C-4.34 13.67 -3.68 13.34 -3 13 C-3.99 12.67 -4.98 12.34 -6 12 Z " fill="#060505" transform="translate(86,58)"/>
<path d="M0 0 C9.531294 -0.32289202 17.88980904 -0.21096895 27 3 C27.70382813 3.20496094 28.40765625 3.40992188 29.1328125 3.62109375 C40.86184157 7.32378724 47.52930179 16.54463071 53 27 C54.59357122 30.60858277 55.92006899 34.20738515 57 38 C57.19464844 38.68320313 57.38929688 39.36640625 57.58984375 40.0703125 C58.2212573 43.04096291 58.05815524 45.97592729 58 49 C57.731875 48.360625 57.46375 47.72125 57.1875 47.0625 C56.11332248 44.66868314 56.11332248 44.66868314 53 44 C53.0928125 42.7625 53.0928125 42.7625 53.1875 41.5 C52.96536706 37.35351838 52.0991637 33.61954564 50 30 C49.01 29.67 48.02 29.34 47 29 C46.26919734 27.02253397 45.60578253 25.01927511 45 23 C44.34 22.01 43.68 21.02 43 20 C43 19.34 43 18.68 43 18 C42.34 18 41.68 18 41 18 C40.34 17.01 39.68 16.02 39 15 C36.69350484 13.66074475 34.54176763 12.84725588 32 12 C32.66 12 33.32 12 34 12 C34 11.34 34 10.68 34 10 C31.525 9.505 31.525 9.505 29 9 C28.67 8.01 28.34 7.02 28 6 C26.37548581 5.66430703 24.75037083 5.3315204 23.125 5 C22.22007813 4.814375 21.31515625 4.62875 20.3828125 4.4375 C18.00162754 4.00029883 15.95654784 4.00062075 13.5390625 4.03515625 C12.57742187 4.04417969 11.61578125 4.05320312 10.625 4.0625 C9.19027344 4.07990234 9.19027344 4.07990234 7.7265625 4.09765625 C5.3027218 4.01084247 3.31128115 3.69557513 1 3 C1.99 4.485 1.99 4.485 3 6 C3.99 6 4.98 6 6 6 C5.67 7.010625 5.34 8.02125 5 9.0625 C3.21343779 15.33447372 3.50149783 21.58674507 6.125 27.5625 C7.08884279 30.24749062 6.97354831 31.37141956 6 34 C5.505 32.515 5.505 32.515 5 31 C4.34 30.67 3.68 30.34 3 30 C2.02058139 27.31401866 1.16797463 24.67833383 0.375 21.9375 C0.14554687 21.19822266 -0.08390625 20.45894531 -0.3203125 19.69726562 C-2.31982517 12.895352 -3.30438118 6.60876236 0 0 Z " fill="#99DBE2" transform="translate(99,51)"/>
<path d="M0 0 C0.33 0 0.66 0 1 0 C1.07347656 0.90492187 1.07347656 0.90492187 1.1484375 1.828125 C1.22320312 2.62734375 1.29796875 3.4265625 1.375 4.25 C1.44460937 5.03890625 1.51421875 5.8278125 1.5859375 6.640625 C2.01795528 9.1023112 2.85192993 10.79840681 4 13 C4.61050466 16.59519413 5.02179298 20.18991024 5.4375 23.8125 C5.70046833 27.08277656 5.70046833 27.08277656 8 29 C8.66796875 30.8046875 8.66796875 30.8046875 9.1875 32.875 C9.45626953 33.89207031 9.45626953 33.89207031 9.73046875 34.9296875 C10.02970718 37.22818556 9.69377386 38.80550964 9 41 C7.92474806 38.34771188 6.90543849 35.71631546 6 33 C5.34 33.66 4.68 34.32 4 35 C3.34 34.67 2.68 34.34 2 34 C2 33.34 2 32.68 2 32 C0.906875 32.020625 -0.18625 32.04125 -1.3125 32.0625 C-5 32 -5 32 -8 31 C-8 31.66 -8 32.32 -8 33 C-9.24663331 33.50833591 -10.49749387 34.00631145 -11.75 34.5 C-12.44609375 34.7784375 -13.1421875 35.056875 -13.859375 35.34375 C-16 36 -16 36 -20 36 C-19.67 34.68 -19.34 33.36 -19 32 C-17.68 32 -16.36 32 -15 32 C-15.33 31.34 -15.66 30.68 -16 30 C-16.99 29.67 -17.98 29.34 -19 29 C-19 26.69 -19 24.38 -19 22 C-16.29120665 20.64560332 -13.99066732 20.93498549 -11 21 C-10.34 19.02 -9.68 17.04 -9 15 C-8.34 15 -7.68 15 -7 15 C-6.67 12.69 -6.34 10.38 -6 8 C-2.25 6.875 -2.25 6.875 0 8 C0 5.36 0 2.72 0 0 Z M-6 15 C-6.99 15.495 -6.99 15.495 -8 16 C-7.67 16.99 -7.34 17.98 -7 19 C-6.67 19.99 -6.34 20.98 -6 22 C-5.34 22 -4.68 22 -4 22 C-3.67 22.99 -3.34 23.98 -3 25 C-2.34 24.67 -1.68 24.34 -1 24 C-1.2547514 22.68428397 -1.52934141 21.37239624 -1.8125 20.0625 C-1.96332031 19.33160156 -2.11414063 18.60070312 -2.26953125 17.84765625 C-2.51058594 17.23792969 -2.75164062 16.62820312 -3 16 C-3.99 15.67 -4.98 15.34 -6 15 Z M-16 24 C-16.33 25.32 -16.66 26.64 -17 28 C-13.04 29.98 -13.04 29.98 -9 32 C-8.67 30.68 -8.34 29.36 -8 28 C-11.48783514 24.75283938 -11.48783514 24.75283938 -16 24 Z " fill="#292929" transform="translate(100,84)"/>
<path d="M0 0 C0.66 0 1.32 0 2 0 C2.66 2.31 3.32 4.62 4 7 C5.58306647 7.16918268 7.16646719 7.33523936 8.75 7.5 C10.07257813 7.63921875 10.07257813 7.63921875 11.421875 7.78125 C14.23304835 8.05636313 14.23304835 8.05636313 18 8 C18 8.99 18 9.98 18 11 C25.56218722 10.66569599 32.06194818 10.12892533 39 7 C39 9.33333333 39 11.66666667 39 14 C33.26851513 16.59798614 27.89343042 16.47994569 21.6875 16.5625 C20.58470703 16.61212891 19.48191406 16.66175781 18.34570312 16.71289062 C11.37281863 16.80031186 7.49436283 15.84611064 2.40161133 10.99365234 C0.014746 7.59857444 -0.14711446 4.05484238 0 0 Z " fill="#1B7EB2" transform="translate(110,160)"/>
<path d="M0 0 C1.65 0 3.3 0 5 0 C5 1.32 5 2.64 5 4 C5.99 4 6.98 4 8 4 C7.67 5.32 7.34 6.64 7 8 C7 7.01 7 6.02 7 5 C3.52387476 5.40895591 0.44808338 5.82076665 -2.8125 7.125 C-3.534375 7.41375 -4.25625 7.7025 -5 8 C-5.66 7.67 -6.32 7.34 -7 7 C-7.33 8.32 -7.66 9.64 -8 11 C-8.99 11 -9.98 11 -11 11 C-11.33 12.65 -11.66 14.3 -12 16 C-12.66 16 -13.32 16 -14 16 C-14 20.29 -14 24.58 -14 29 C-13.34 29 -12.68 29 -12 29 C-11.67 30.32 -11.34 31.64 -11 33 C-12.485 33.495 -12.485 33.495 -14 34 C-14.33 34.99 -14.66 35.98 -15 37 C-16.99252503 34.01121246 -17.3324609 32.42113788 -18 29 C-18.99083967 26.76591887 -18.99083967 26.76591887 -20 25 C-19.34 24.34 -18.68 23.68 -18 23 C-18.66 22.34 -19.32 21.68 -20 21 C-19.8125 18.9375 -19.8125 18.9375 -19 17 C-18.01 16.67 -17.02 16.34 -16 16 C-16.33 14.35 -16.66 12.7 -17 11 C-16.360625 10.7525 -15.72125 10.505 -15.0625 10.25 C-12.80939427 9.19851273 -12.80939427 9.19851273 -12.375 6.9375 C-12.189375 5.9784375 -12.189375 5.9784375 -12 5 C-11.34 4.67 -10.68 4.34 -10 4 C-9.34 4.33 -8.68 4.66 -8 5 C-7.34 3.68 -6.68 2.36 -6 1 C-3.83125748 1.50603992 -2.00032373 1.99983813 0 3 C0 2.01 0 1.02 0 0 Z " fill="#9F9F9F" transform="translate(87,53)"/>
<path d="M0 0 C0.66 0 1.32 0 2 0 C3.01866229 1.65532623 4.01810813 3.32260138 5 5 C5.66 5.33 6.32 5.66 7 6 C7 6.66 7 7.32 7 8 C8.27875 7.814375 9.5575 7.62875 10.875 7.4375 C14.75 6.875 14.75 6.875 17 8 C17.66 7.01 18.32 6.02 19 5 C23.21715818 12.0227882 23.21715818 12.0227882 22.375 15.8125 C21.27717223 17.55904417 20.14430259 19.28354611 19 21 C15.27698497 21.47730962 14.20808915 21.1387261 11 19 C11.495 14.545 11.495 14.545 12 10 C8.10275364 10.65253044 8.10275364 10.65253044 6.0625 12.6875 C5.381875 13.120625 4.70125 13.55375 4 14 C0.86240027 13.17824769 -0.70255875 12.29744125 -3 10 C-2.61233695 6.41411676 -1.41433748 3.30012079 0 0 Z " fill="#2D2D2D" transform="translate(75,149)"/>
<path d="M0 0 C2.64 0 5.28 0 8 0 C8.92470553 4.71599818 9.22923777 7.67265609 7 12 C4.36 12.33 1.72 12.66 -1 13 C-1 13.99 -1 14.98 -1 16 C-2.11375 15.649375 -3.2275 15.29875 -4.375 14.9375 C-7.80264476 13.62760669 -7.80264476 13.62760669 -10 15 C-10 14.01 -10 13.02 -10 12 C-10.66 12 -11.32 12 -12 12 C-12 13.65 -12 15.3 -12 17 C-12.33 17 -12.66 17 -13 17 C-13 15.02 -13 13.04 -13 11 C-12.34 11 -11.68 11 -11 11 C-10.67 9.35 -10.34 7.7 -10 6 C-9.01 5.67 -8.02 5.34 -7 5 C-6.67 4.01 -6.34 3.02 -6 2 C-4.02 2 -2.04 2 0 2 C0 1.34 0 0.68 0 0 Z M3 6 C4 10 4 10 4 10 Z M-2 7 C-2 7.99 -2 8.98 -2 10 C-1.34 9.67 -0.68 9.34 0 9 C-0.66 8.34 -1.32 7.68 -2 7 Z M-6 12 C-5.67 12.66 -5.34 13.32 -5 14 C-4.34 13.67 -3.68 13.34 -3 13 C-3.99 12.67 -4.98 12.34 -6 12 Z " fill="#0E0E0E" transform="translate(86,58)"/>
<path d="M0 0 C0.33 0 0.66 0 1 0 C1.07347656 0.90492187 1.07347656 0.90492187 1.1484375 1.828125 C1.22320312 2.62734375 1.29796875 3.4265625 1.375 4.25 C1.44460937 5.03890625 1.51421875 5.8278125 1.5859375 6.640625 C2.01795528 9.1023112 2.85192993 10.79840681 4 13 C4.39460023 15.32375692 4.72230092 17.6593935 5 20 C5.48551348 24.65368332 5.48551348 24.65368332 7 29 C6.01 29 5.02 29 4 29 C4 28.34 4 27.68 4 27 C3.13375 27.309375 3.13375 27.309375 2.25 27.625 C-0.51967567 28.08661261 -1.64561267 27.42944945 -4 26 C-3.67 25.34 -3.34 24.68 -3 24 C-2.34 24 -1.68 24 -1 24 C-1.495 23.13375 -1.495 23.13375 -2 22.25 C-3 20 -3 20 -3 16 C-4.65 16 -6.3 16 -8 16 C-8 16.66 -8 17.32 -8 18 C-8.66 18 -9.32 18 -10 18 C-9.505 16.515 -9.505 16.515 -9 15 C-8.34 15 -7.68 15 -7 15 C-6.67 12.69 -6.34 10.38 -6 8 C-2.25 6.875 -2.25 6.875 0 8 C0 5.36 0 2.72 0 0 Z " fill="#B9B5B5" transform="translate(100,84)"/>
<path d="M0 0 C0.66 0.99 1.32 1.98 2 3 C1.67 3.99 1.34 4.98 1 6 C2.65 6 4.3 6 6 6 C6.6875 7.8125 6.6875 7.8125 7 10 C5.28665842 12.57001236 3.37936857 13.2933894 0.5625 14.625 C-4.06777951 17.11671821 -5.35644811 21.22247028 -7 26 C-7.99 26 -8.98 26 -10 26 C-9.67 24.02 -9.34 22.04 -9 20 C-9.66 20 -10.32 20 -11 20 C-11 18.02 -11 16.04 -11 14 C-10.67 14.99 -10.34 15.98 -10 17 C-9.67 16.01 -9.34 15.02 -9 14 C-7.39192964 12.18218133 -6.1785148 11.0892574 -4 10 C-3.53476937 8.10466658 -3.53476937 8.10466658 -3.375 5.9375 C-3.25125 4.638125 -3.1275 3.33875 -3 2 C-2.34 2 -1.68 2 -1 2 C-0.67 1.34 -0.34 0.68 0 0 Z " fill="#3E97BD" transform="translate(163,126)"/>
<path d="M0 0 C1.65 0 3.3 0 5 0 C5 1.32 5 2.64 5 4 C5.66 4 6.32 4 7 4 C7 5.32 7 6.64 7 8 C7.99 8 8.98 8 10 8 C9.875 9.875 9.875 9.875 9 12 C5.9375 13.25 5.9375 13.25 3 14 C2.896875 14.763125 2.79375 15.52625 2.6875 16.3125 C1.95635961 19.17059424 1.23048087 20.15742885 -1 22 C-3.09749995 19.64031256 -3.96905704 18.45383006 -4.1875 15.25 C-4.125625 14.5075 -4.06375 13.765 -4 13 C-3.34 12.67 -2.68 12.34 -2 12 C-2 10.35 -2 8.7 -2 7 C-0.35 6.34 1.3 5.68 3 5 C2.01 4.67 1.02 4.34 0 4 C0 2.68 0 1.36 0 0 Z M3 6 C4 8 4 8 4 8 Z M7 10 C8 12 8 12 8 12 Z " fill="#353535" transform="translate(77,74)"/>
<path d="M0 0 C0.99 0.33 1.98 0.66 3 1 C2.34 2.98 1.68 4.96 1 7 C2.299375 7.144375 3.59875 7.28875 4.9375 7.4375 C8.875 7.875 8.875 7.875 10 9 C10.23255814 13.53488372 10.23255814 13.53488372 9 16 C9.99 16 10.98 16 12 16 C12.66 17.65 13.32 19.3 14 21 C14.66 21 15.32 21 16 21 C15 23 15 23 13.15234375 23.6328125 C12.05599609 23.87644531 12.05599609 23.87644531 10.9375 24.125 C10.20402344 24.29257813 9.47054687 24.46015625 8.71484375 24.6328125 C8.14894531 24.75398438 7.58304688 24.87515625 7 25 C3 20.63636364 3 20.63636364 3 17.875 C4.24870266 15.53368252 5.8903414 14.56523057 8 13 C8 12.01 8 11.02 8 10 C5.36 10 2.72 10 0 10 C-2.21538462 4.58461538 -2.21538462 4.58461538 -1.125 1.625 C-0.75375 1.08875 -0.3825 0.5525 0 0 Z " fill="#545454" transform="translate(59,126)"/>
<path d="M0 0 C0.70125 0.144375 1.4025 0.28875 2.125 0.4375 C1.795 3.4075 1.465 6.3775 1.125 9.4375 C-0.525 9.7675 -2.175 10.0975 -3.875 10.4375 C-4.205 12.7475 -4.535 15.0575 -4.875 17.4375 C-3.885 17.7675 -2.895 18.0975 -1.875 18.4375 C-1.875 19.4275 -1.875 20.4175 -1.875 21.4375 C-1.215 21.4375 -0.555 21.4375 0.125 21.4375 C0.125 22.0975 0.125 22.7575 0.125 23.4375 C-0.535 23.4375 -1.195 23.4375 -1.875 23.4375 C-2.205 24.0975 -2.535 24.7575 -2.875 25.4375 C-2.875 24.4475 -2.875 23.4575 -2.875 22.4375 C-3.49375 22.39625 -4.1125 22.355 -4.75 22.3125 C-6.875 21.4375 -6.875 21.4375 -8.125 18.875 C-10.13433401 9.66555247 -10.13433401 9.66555247 -7.70703125 5.37109375 C-5.30299654 2.31197503 -3.93011508 0.59806099 0 0 Z " fill="#65A5BD" transform="translate(110.875,134.5625)"/>
<path d="M0 0 C4.02034913 1.34011638 5.0349026 3.85650047 7 7.375 C7.35449219 8.0047876 7.70898438 8.6345752 8.07421875 9.28344727 C12.17936791 16.82894797 14.57629296 24.35560566 14 33 C13.731875 32.360625 13.46375 31.72125 13.1875 31.0625 C12.11332248 28.66868314 12.11332248 28.66868314 9 28 C9.061875 27.175 9.12375 26.35 9.1875 25.5 C8.96536706 21.35351838 8.0991637 17.61954564 6 14 C5.01 13.67 4.02 13.34 3 13 C2.26919734 11.02253397 1.60578253 9.01927511 1 7 C0.34 6.01 -0.32 5.02 -1 4 C-0.625 1.8125 -0.625 1.8125 0 0 Z " fill="#95D4DC" transform="translate(143,67)"/>
<path d="M0 0 C1 3 1 3 1 5 C5.455 4.505 5.455 4.505 10 4 C10 3.01 10 2.02 10 1 C8.35 1 6.7 1 5 1 C5 0.67 5 0.34 5 0 C7.31 0 9.62 0 12 0 C12 0.66 12 1.32 12 2 C12.99 2.33 13.98 2.66 15 3 C14.835 3.7425 14.67 4.485 14.5 5.25 C13.88074304 8.19006578 13.88074304 8.19006578 14 12 C13.01 11.67 12.02 11.34 11 11 C7.34333574 12.1623762 7.34333574 12.1623762 4 14 C3.67 14.99 3.34 15.98 3 17 C2.34 15.02 1.68 13.04 1 11 C1.66 10.34 2.32 9.68 3 9 C3.99 9.33 4.98 9.66 6 10 C6.33 9.34 6.66 8.68 7 8 C7.66 8 8.32 8 9 8 C4.545 7.01 4.545 7.01 0 6 C-0.38218767 4.34385343 -0.71395102 2.67542976 -1 1 C-0.67 0.67 -0.34 0.34 0 0 Z " fill="#3B3B3B" transform="translate(79,120)"/>
<path d="M0 0 C0.66 0 1.32 0 2 0 C3.01866229 1.65532623 4.01810813 3.32260138 5 5 C5.66 5.33 6.32 5.66 7 6 C7 6.66 7 7.32 7 8 C8.65 8.33 10.3 8.66 12 9 C11.4225 9.268125 10.845 9.53625 10.25 9.8125 C7.92984008 10.91888698 7.92984008 10.91888698 6.0625 12.75 C5.381875 13.1625 4.70125 13.575 4 14 C0.86240027 13.17824769 -0.70255875 12.29744125 -3 10 C-2.61233695 6.41411676 -1.41433748 3.30012079 0 0 Z " fill="#6D6D6D" transform="translate(75,149)"/>
<path d="M0 0 C1.23556641 0.01740234 1.23556641 0.01740234 2.49609375 0.03515625 C3.32238281 0.04417969 4.14867188 0.05320312 5 0.0625 C5.63808594 0.07410156 6.27617188 0.08570312 6.93359375 0.09765625 C6.93359375 0.75765625 6.93359375 1.41765625 6.93359375 2.09765625 C6.27359375 2.09765625 5.61359375 2.09765625 4.93359375 2.09765625 C4.93359375 6.71765625 4.93359375 11.33765625 4.93359375 16.09765625 C3.61359375 15.76765625 2.29359375 15.43765625 0.93359375 15.09765625 C1.92359375 15.09765625 2.91359375 15.09765625 3.93359375 15.09765625 C3.9764913 13.16656044 3.9764913 13.16656044 2.93359375 11.09765625 C-0.55438113 9.30494234 -0.55438113 9.30494234 -4.06640625 8.09765625 C-3.05416559 0.14433675 -3.05416559 0.14433675 0 0 Z " fill="#767676" transform="translate(61.06640625,109.90234375)"/>
<path d="M0 0 C3.63 0.33 7.26 0.66 11 1 C10.67 1.99 10.34 2.98 10 4 C9.34 4.309375 8.68 4.61875 8 4.9375 C5.82845886 5.79645966 5.82845886 5.79645966 5.375 7.875 C5.25125 8.57625 5.1275 9.2775 5 10 C4.36345658 11.3479743 3.70394612 12.68596724 3 14 C3 13.01 3 12.02 3 11 C2.38125 10.7525 1.7625 10.505 1.125 10.25 C-1 9 -1 9 -2.4375 7.1875 C-3 5 -3 5 -1.625 2.25 C-1.08875 1.5075 -0.5525 0.765 0 0 Z " fill="#585858" transform="translate(65,95)"/>
<path d="M0 0 C0.66 0 1.32 0 2 0 C2.103125 0.763125 2.20625 1.52625 2.3125 2.3125 C2.73888621 5.03063512 2.73888621 5.03063512 4.5625 6.375 C6.85908901 8.9711441 6.1155431 11.64925007 6 15 C6.40095002 17.80665016 6.98350202 19.96242126 8.125 22.5625 C9.08884279 25.24749062 8.97354831 26.37141956 8 29 C7.67 28.01 7.34 27.02 7 26 C6.34 25.67 5.68 25.34 5 25 C4.02058139 22.31401866 3.16797463 19.67833383 2.375 16.9375 C2.14554687 16.19822266 1.91609375 15.45894531 1.6796875 14.69726562 C0.19127872 9.63401789 -0.22746179 5.27352202 0 0 Z " fill="#99D2D8" transform="translate(97,56)"/>
<path d="M0 0 C0.78375 0.433125 1.5675 0.86625 2.375 1.3125 C-0.98740283 2.43330094 -1.40967681 2.24818182 -4.5 0.9375 C-10.23246172 -1.4678859 -15.79678365 -1.91525139 -21.9375 -2.25 C-22.67806641 -2.29318359 -23.41863281 -2.33636719 -24.18164062 -2.38085938 C-25.99591464 -2.48620432 -27.8104355 -2.58728316 -29.625 -2.6875 C-29.76808594 -1.93082031 -29.91117187 -1.17414062 -30.05859375 -0.39453125 C-30.68615723 2.6047894 -31.61649504 5.42145244 -32.625 8.3125 C-32.955 8.3125 -33.285 8.3125 -33.625 8.3125 C-33.625 6.6625 -33.625 5.0125 -33.625 3.3125 C-34.615 3.3125 -35.605 3.3125 -36.625 3.3125 C-29.81365499 -10.31019003 -11.01178465 -5.12617561 0 0 Z " fill="#D4F0F3" transform="translate(128.625,53.6875)"/>
<path d="M0 0 C0.68707555 2.49064888 1 4.37886292 1 7 C-1.42998664 7.84114922 -2.94305588 8.00996522 -5.5 7.5625 C-10.11756789 6.82039087 -14.70697157 6.64060252 -19.375 6.4375 C-20.76525391 6.37272461 -20.76525391 6.37272461 -22.18359375 6.30664062 C-24.45560294 6.20123814 -26.72770925 6.09911394 -29 6 C-29 5.67 -29 5.34 -29 5 C-27.73285156 4.87882813 -26.46570313 4.75765625 -25.16015625 4.6328125 C-23.46090914 4.4638266 -21.76169195 4.29453963 -20.0625 4.125 C-19.23169922 4.04636719 -18.40089844 3.96773437 -17.54492188 3.88671875 C-8.15139611 3.50266086 -8.15139611 3.50266086 0 0 Z " fill="#2A7CA6" transform="translate(148,167)"/>
<path d="M0 0 C1.32 0 2.64 0 4 0 C4.33 0.66 4.66 1.32 5 2 C6.65 1.67 8.3 1.34 10 1 C10 2.98 10 4.96 10 7 C6.37 7 2.74 7 -1 7 C-1.04254356 5.00045254 -1.04080783 2.99958364 -1 1 C-0.67 0.67 -0.34 0.34 0 0 Z M-3 6 C-2.01 6.99 -1.02 7.98 0 9 C-0.99 9.66 -1.98 10.32 -3 11 C-3.99 10.67 -4.98 10.34 -6 10 C-6 9.01 -6 8.02 -6 7 C-5.01 6.67 -4.02 6.34 -3 6 Z " fill="#262626" transform="translate(82,91)"/>
<path d="M0 0 C3.54193375 0.13975405 7.08346999 0.28788934 10.625 0.4375 C12.12353516 0.49647461 12.12353516 0.49647461 13.65234375 0.55664062 C18.50956104 0.76572614 23.22132044 1.02958555 28 2 C27.67 2.66 27.34 3.32 27 4 C18.75 4 10.5 4 2 4 C1.34 2.68 0.68 1.36 0 0 Z " fill="#5999B5" transform="translate(117,172)"/>
<path d="M0 0 C0.99 0.33 1.98 0.66 3 1 C3.39047172 6.98723306 2.45092514 12.48289692 0 18 C-0.99 18.66 -1.98 19.32 -3 20 C-3 19.34 -3 18.68 -3 18 C-3.66 17.67 -4.32 17.34 -5 17 C-3.24170616 10.46919431 -3.24170616 10.46919431 -1.9375 7.9375 C-0.68993878 5.3592068 -0.3847789 2.82171193 0 0 Z " fill="#5192B2" transform="translate(152,153)"/>
<path d="M0 0 C0.99 0 1.98 0 3 0 C3 1.98 3 3.96 3 6 C2.360625 6.309375 1.72125 6.61875 1.0625 6.9375 C-1.3829786 8.197292 -1.77501801 8.55003602 -3 11 C-5.31 10.34 -7.62 9.68 -10 9 C-9.34 6.69 -8.68 4.38 -8 2 C-6.2984375 1.7834375 -6.2984375 1.7834375 -4.5625 1.5625 C-1.19222799 1.38828522 -1.19222799 1.38828522 0 0 Z M1 1 C2 5 2 5 2 5 Z M-4 2 C-4 2.99 -4 3.98 -4 5 C-3.34 4.67 -2.68 4.34 -2 4 C-2.66 3.34 -3.32 2.68 -4 2 Z M-8 7 C-7.67 7.66 -7.34 8.32 -7 9 C-6.34 8.67 -5.68 8.34 -5 8 C-5.99 7.67 -6.98 7.34 -8 7 Z " fill="#4F4F4F" transform="translate(88,63)"/>
<path d="M0 0 C0.33 0 0.66 0 1 0 C0.96777344 0.74121094 0.93554688 1.48242188 0.90234375 2.24609375 C1.0088811 11.91731805 4.30648948 18.30740563 9.06640625 26.54296875 C11 30 11 30 11 32 C9.68 32 8.36 32 7 32 C6.896875 31.236875 6.79375 30.47375 6.6875 29.6875 C6.24855741 26.99856795 6.24855741 26.99856795 4.5625 25.6015625 C-0.21713615 20.70243545 -0.1875 12.78972926 -0.1875 6.375 C-0.13991672 4.24961366 -0.08264614 2.12431186 0 0 Z " fill="#96C6D6" transform="translate(157,100)"/>
<path d="M0 0 C0 3.96 0 7.92 0 12 C0.66 12 1.32 12 2 12 C2.33 13.32 2.66 14.64 3 16 C2.01 16.33 1.02 16.66 0 17 C-0.33 17.99 -0.66 18.98 -1 20 C-3.02350324 16.96474514 -3.32124018 15.80573798 -3.625 12.3125 C-3.69976562 11.50425781 -3.77453125 10.69601563 -3.8515625 9.86328125 C-3.90054688 9.24839844 -3.94953125 8.63351563 -4 8 C-3.34 8 -2.68 8 -2 8 C-2 6.68 -2 5.36 -2 4 C-2.66 4 -3.32 4 -4 4 C-4 3.01 -4 2.02 -4 1 C-1 0 -1 0 0 0 Z " fill="#919191" transform="translate(73,70)"/>
<path d="M0 0 C1.32 0.33 2.64 0.66 4 1 C4 2.65 4 4.3 4 6 C3.34 6 2.68 6 2 6 C1.87625 6.763125 1.7525 7.52625 1.625 8.3125 C1 11 1 11 -1 14 C-1 12.35 -1 10.7 -1 9 C-2.65 9 -4.3 9 -6 9 C-6.33 8.01 -6.66 7.02 -7 6 C-6.030625 5.566875 -5.06125 5.13375 -4.0625 4.6875 C-0.72268235 3.2985139 -0.72268235 3.2985139 0 0 Z " fill="#0D0D0D" transform="translate(87,82)"/>
<path d="M0 0 C0.99 0 1.98 0 3 0 C2.42655063 2.86724686 2.1385485 3.8614515 0 6 C0.33 6.99 0.66 7.98 1 9 C1.66 9 2.32 9 3 9 C2.67 9.99 2.34 10.98 2 12 C-0.19726562 10.046875 -0.19726562 10.046875 -2.39453125 8.09375 C-4.089448 6.71848759 -4.089448 6.71848759 -7 7 C-7 8.32 -7 9.64 -7 11 C-7.99 11 -8.98 11 -10 11 C-10 8.69 -10 6.38 -10 4 C-8 3 -8 3 -5 3.125 C-4.01 3.08375 -3.02 3.0425 -2 3 C-1.34 2.01 -0.68 1.02 0 0 Z " fill="#595959" transform="translate(91,102)"/>
<path d="M0 0 C0.33 0 0.66 0 1 0 C1.338329 3.20782685 1.66976146 6.41633098 2 9.625 C2.09539062 10.52863281 2.19078125 11.43226562 2.2890625 12.36328125 C2.75579891 16.93063039 3.12222799 21.40117188 3 26 C2.34 26 1.68 26 1 26 C1 24.68 1 23.36 1 22 C0.34 22 -0.32 22 -1 22 C-0.67 14.74 -0.34 7.48 0 0 Z " fill="#6AADBF" transform="translate(155,94)"/>
<path d="M0 0 C0.33 0 0.66 0 1 0 C2.34070955 5.08583209 3.16617847 8.81698457 2 14 C2.24363599 19.68230801 2.24363599 19.68230801 4 25 C2.68 24.34 1.36 23.68 0 23 C0.20625 22.484375 0.4125 21.96875 0.625 21.4375 C1.15887026 17.96734329 0.07676761 15.29364209 -1 12 C-1.66 12 -2.32 12 -3 12 C-2.25749403 7.91621717 -1.17076699 3.98060777 0 0 Z M0 7 C1 9 1 9 1 9 Z " fill="#D0E1E3" transform="translate(96,58)"/>
<path d="M0 0 C0.66 0.99 1.32 1.98 2 3 C1.34 3.66 0.68 4.32 0 5 C-0.66 4.67 -1.32 4.34 -2 4 C-2 4.66 -2 5.32 -2 6 C-0.68 6.33 0.64 6.66 2 7 C1.34 7.66 0.68 8.32 0 9 C-0.24360073 12.12814514 -0.24360073 12.12814514 -0.125 15.625 C-0.09792969 17.40777344 -0.09792969 17.40777344 -0.0703125 19.2265625 C-0.04710938 20.14179688 -0.02390625 21.05703125 0 22 C-2 20 -2 20 -2.1953125 17.1796875 C-2.17210938 16.08914062 -2.14890625 14.99859375 -2.125 13.875 C-2.10695313 12.77929688 -2.08890625 11.68359375 -2.0703125 10.5546875 C-2.04710938 9.71164063 -2.02390625 8.86859375 -2 8 C-3.32 8.33 -4.64 8.66 -6 9 C-6 8.34 -6 7.68 -6 7 C-7.32 7 -8.64 7 -10 7 C-8.60148274 4.20296548 -6.86309036 4.13191945 -4 3 C-2.63634717 2.04175747 -1.29205831 1.05278825 0 0 Z " fill="#797979" transform="translate(93,132)"/>
<path d="M0 0 C2.8071544 3.74287254 3.20144692 4.77907657 4 9 C4.66 9.33 5.32 9.66 6 10 C6 11.65 6 13.3 6 15 C5.34 15 4.68 15 4 15 C3.01 16.485 3.01 16.485 2 18 C-0.125 19.1875 -0.125 19.1875 -2 20 C-1.34 18.02 -0.68 16.04 0 14 C0.66 14 1.32 14 2 14 C1.34 9.38 0.68 4.76 0 0 Z " fill="#4F99B8" transform="translate(113,114)"/>
<path d="M0 0 C2.29633824 3.44450737 2.54016485 5.93812283 3 10 C3.99 10.33 4.98 10.66 6 11 C6.36315666 12.9358351 6.71522731 14.87375248 7.0625 16.8125 C7.25972656 17.89144531 7.45695312 18.97039062 7.66015625 20.08203125 C8 23 8 23 7 26 C6.16112944 23.56427941 5.32873471 21.12666783 4.5 18.6875 C4.26152344 17.99720703 4.02304688 17.30691406 3.77734375 16.59570312 C2.76791737 13.61068511 2 11.17341086 2 8 C1.34 8 0.68 8 0 8 C0.33 6.68 0.66 5.36 1 4 C0.34 4 -0.32 4 -1 4 C-0.67 2.68 -0.34 1.36 0 0 Z " fill="#ACD8E0" transform="translate(99,71)"/>
<path d="M0 0 C3 1 3 1 5 3 C4.67 3.66 4.34 4.32 4 5 C4.99 4.67 5.98 4.34 7 4 C7.99 6.31 8.98 8.62 10 11 C9.01 11 8.02 11 7 11 C7 10.34 7 9.68 7 9 C6.4225 9.20625 5.845 9.4125 5.25 9.625 C2.48032433 10.08661261 1.35438733 9.42944945 -1 8 C-0.67 7.34 -0.34 6.68 0 6 C0.66 6 1.32 6 2 6 C1.34 4.02 0.68 2.04 0 0 Z " fill="#C8C7C8" transform="translate(97,102)"/>
<path d="M0 0 C0.99 0.33 1.98 0.66 3 1 C2.34 2.98 1.68 4.96 1 7 C2.299375 7.144375 3.59875 7.28875 4.9375 7.4375 C8.875 7.875 8.875 7.875 10 9 C10.04063832 10.66617115 10.042721 12.33388095 10 14 C9.01 14 8.02 14 7 14 C7.33 12.68 7.66 11.36 8 10 C5.36 10 2.72 10 0 10 C-2.21538462 4.58461538 -2.21538462 4.58461538 -1.125 1.625 C-0.75375 1.08875 -0.3825 0.5525 0 0 Z " fill="#777777" transform="translate(59,126)"/>
<path d="M0 0 C2.27678571 8.03571429 2.27678571 8.03571429 1 12 C-0.07525194 9.34771188 -1.09456151 6.71631546 -2 4 C-2.66 4.66 -3.32 5.32 -4 6 C-4.66 5.67 -5.32 5.34 -6 5 C-6 4.34 -6 3.68 -6 3 C-6.66 3 -7.32 3 -8 3 C-8 2.01 -8 1.02 -8 0 C-4.71023192 -1.09658936 -3.28696233 -0.79953138 0 0 Z " fill="#4F4F4F" transform="translate(108,113)"/>
<path d="M0 0 C1.2065625 0.0309375 1.2065625 0.0309375 2.4375 0.0625 C2.1075 3.0325 1.7775 6.0025 1.4375 9.0625 C-0.2125 9.3925 -1.8625 9.7225 -3.5625 10.0625 C-5.10828627 6.97092747 -4.16527633 4.37776981 -3.5625 1.0625 C-2.5625 0.0625 -2.5625 0.0625 0 0 Z " fill="#4697BD" transform="translate(110.5625,134.9375)"/>
<path d="M0 0 C1 3 1 3 1 5 C5.455 4.505 5.455 4.505 10 4 C10 3.01 10 2.02 10 1 C8.35 1 6.7 1 5 1 C5 0.67 5 0.34 5 0 C7.31 0 9.62 0 12 0 C12 0.66 12 1.32 12 2 C12.99 2.33 13.98 2.66 15 3 C14.67 3.66 14.34 4.32 14 5 C13.34 5 12.68 5 12 5 C11.67 5.99 11.34 6.98 11 8 C7.37 7.34 3.74 6.68 0 6 C-0.33 4.35 -0.66 2.7 -1 1 C-0.67 0.67 -0.34 0.34 0 0 Z " fill="#777777" transform="translate(79,120)"/>
<path d="M0 0 C1.98 0.66 3.96 1.32 6 2 C5.67 2.99 5.34 3.98 5 5 C5.165 5.804375 5.33 6.60875 5.5 7.4375 C6.01333512 10.06834251 5.83558658 11.49324027 5 14 C4.34 14 3.68 14 3 14 C2.34 11.69 1.68 9.38 1 7 C0.67 7 0.34 7 0 7 C0 4.69 0 2.38 0 0 Z " fill="#72BED5" transform="translate(106,87)"/>
<path d="M0 0 C1.76462683 3.08809695 2 4.23312136 2 8 C-0.31 7.67 -2.62 7.34 -5 7 C-5 5.02 -5 3.04 -5 1 C-3 0 -3 0 0 0 Z " fill="#333333" transform="translate(65,126)"/>
<path d="M0 0 C3.63 0.33 7.26 0.66 11 1 C10 4 10 4 8 5.0625 C7.34 5.371875 6.68 5.68125 6 6 C5.67 6.66 5.34 7.32 5 8 C4.01 7.67 3.02 7.34 2 7 C2 6.01 2 5.02 2 4 C1.34 3.67 0.68 3.34 0 3 C0 2.01 0 1.02 0 0 Z " fill="#646464" transform="translate(65,95)"/>
<path d="M0 0 C0.94875 0.350625 1.8975 0.70125 2.875 1.0625 C5.87060172 2.35026777 5.87060172 2.35026777 8 1 C8 1.99 8 2.98 8 4 C6.75336669 4.50833591 5.50250613 5.00631145 4.25 5.5 C3.55390625 5.7784375 2.8578125 6.056875 2.140625 6.34375 C0 7 0 7 -4 7 C-3.67 5.68 -3.34 4.36 -3 3 C-1.68 3 -0.36 3 1 3 C0.67 2.01 0.34 1.02 0 0 Z " fill="#3C3C3C" transform="translate(84,113)"/>
<path d="M0 0 C0.33 0.99 0.66 1.98 1 3 C2.65 2.34 4.3 1.68 6 1 C5.25 8.625 5.25 8.625 3 12 C2.34 12 1.68 12 1 12 C1.33 10.02 1.66 8.04 2 6 C1.34 6 0.68 6 0 6 C0 4.02 0 2.04 0 0 Z " fill="#3B8BAD" transform="translate(152,140)"/>
<path d="M0 0 C0.33 0 0.66 0 1 0 C0.979375 1.051875 0.95875 2.10375 0.9375 3.1875 C1.00719551 7.43892631 1.41748913 10.6731697 3.125 14.5625 C4.08884279 17.24749062 3.97354831 18.37141956 3 21 C2.67 20.01 2.34 19.02 2 18 C1.34 17.67 0.68 17.34 0 17 C-1.14694626 13.82049075 -1.13403933 10.72859314 -1.125 7.375 C-1.12757812 6.41335937 -1.13015625 5.45171875 -1.1328125 4.4609375 C-1 2 -1 2 0 0 Z " fill="#8CD2DC" transform="translate(102,64)"/>
<path d="M0 0 C1.890625 0.18359375 1.890625 0.18359375 4 1 C5.046875 3.28515625 5.046875 3.28515625 5.75 6.0625 C5.99234375 6.98160156 6.2346875 7.90070313 6.484375 8.84765625 C6.65453125 9.55792969 6.8246875 10.26820312 7 11 C4.5625 10.625 4.5625 10.625 2 10 C1.67 9.34 1.34 8.68 1 8 C0.34 7.01 -0.32 6.02 -1 5 C-0.625 2.3125 -0.625 2.3125 0 0 Z " fill="#727173" transform="translate(99,97)"/>
<path d="M0 0 C0.66 1.32 1.32 2.64 2 4 C0.07243478 6.26772379 -1.99141664 7.63233488 -4.5625 9.0625 C-7.94563354 10.76643423 -7.94563354 10.76643423 -10 13 C-10.625 10.625 -10.625 10.625 -11 8 C-9 6 -9 6 -5.375 5.875 C-3.704375 5.936875 -3.704375 5.936875 -2 6 C-1.34 4.02 -0.68 2.04 0 0 Z " fill="#7BAFC5" transform="translate(168,132)"/>
<path d="M0 0 C0.99 0.33 1.98 0.66 3 1 C1.33333333 2.66666667 -0.33333333 4.33333333 -2 6 C-2.495 6.5775 -2.99 7.155 -3.5 7.75 C-5.5327485 9.44395709 -7.41794457 9.65107359 -10 10 C-10 8.68 -10 7.36 -10 6 C-9.01 6 -8.02 6 -7 6 C-5.66018514 5.6937566 -4.32488113 5.36548445 -3 5 C-3 4.01 -3 3.02 -3 2 C-2.01 2 -1.02 2 0 2 C0 1.34 0 0.68 0 0 Z " fill="#3C3D3E" transform="translate(101,129)"/>
<path d="M0 0 C0.66 0 1.32 0 2 0 C5.7811405 5.44484232 6.12605926 9.44491837 6 16 C5.731875 15.360625 5.46375 14.72125 5.1875 14.0625 C4.11332248 11.66868314 4.11332248 11.66868314 1 11 C1.020625 10.113125 1.04125 9.22625 1.0625 8.3125 C1.00713781 5.37830369 0.6694266 2.84506304 0 0 Z " fill="#8BC9D3" transform="translate(151,84)"/>
<path d="M0 0 C2 1 4 2 6 3 C6 4.32 6 5.64 6 7 C4.02 7 2.04 7 0 7 C-0.38133299 5.0085944 -0.71325582 3.00720923 -1 1 C-0.67 0.67 -0.34 0.34 0 0 Z " fill="#111110" transform="translate(94,80)"/>
<path d="M0 0 C2.64465038 3.1254959 3.84414715 6.08788267 5 10 C4.34 10.66 3.68 11.32 3 12 C3 10.68 3 9.36 3 8 C0.69 7.34 -1.62 6.68 -4 6 C-3.67 5.34 -3.34 4.68 -3 4 C-2.34 4.33 -1.68 4.66 -1 5 C-0.67 3.35 -0.34 1.7 0 0 Z " fill="#656565" transform="translate(93,154)"/>
<path d="M0 0 C0 1.98 0 3.96 0 6 C-1.98 6.99 -1.98 6.99 -4 8 C-5.5 6.75 -5.5 6.75 -7 5 C-7 3.68 -7 2.36 -7 1 C-4.50935112 0.31292445 -2.62113708 0 0 0 Z M-2 1 C-1 5 -1 5 -1 5 Z " fill="#676767" transform="translate(91,63)"/>
<path d="M0 0 C1.66611905 -0.042721 3.33382885 -0.04063832 5 0 C6 1 6 1 6.0625 3.5625 C6.041875 4.366875 6.02125 5.17125 6 6 C5.01 6 4.02 6 3 6 C2.01 6.33 1.02 6.66 0 7 C0 4.69 0 2.38 0 0 Z " fill="#303030" transform="translate(59,111)"/>
<path d="M0 0 C0.45375 0.639375 0.9075 1.27875 1.375 1.9375 C2.83921726 4.09702406 2.83921726 4.09702406 5 5 C4.34 6.32 3.68 7.64 3 9 C4.32 9.66 5.64 10.32 7 11 C3.28400809 11.20086443 2.22791555 11.1519437 -1 9 C-0.67 6.03 -0.34 3.06 0 0 Z " fill="#707070" transform="translate(87,159)"/>
<path d="M0 0 C0 3.96 0 7.92 0 12 C-1.32 11.67 -2.64 11.34 -4 11 C-4 10.01 -4 9.02 -4 8 C-3.34 8 -2.68 8 -2 8 C-2 6.68 -2 5.36 -2 4 C-2.66 4 -3.32 4 -4 4 C-4 3.01 -4 2.02 -4 1 C-1 0 -1 0 0 0 Z " fill="#6B6B6B" transform="translate(73,70)"/>
<path d="M0 0 C0.66 0.33 1.32 0.66 2 1 C1.67 1.99 1.34 2.98 1 4 C0.01 4 -0.98 4 -2 4 C-2 4.99 -2 5.98 -2 7 C-1.34 7 -0.68 7 0 7 C0 8.32 0 9.64 0 11 C-0.66 11 -1.32 11 -2 11 C-2.33 11.99 -2.66 12.98 -3 14 C-3 12 -3 10 -3 8 C-3.31478446 6.66216607 -3.64587656 5.32796291 -4 4 C-2.68 3.34 -1.36 2.68 0 2 C0 1.34 0 0.68 0 0 Z " fill="#C6C6C6" transform="translate(71,67)"/>
<path d="M0 0 C1.15227823 0.76116551 2.2966386 1.53432693 3.4375 2.3125 C4.07558594 2.74175781 4.71367187 3.17101563 5.37109375 3.61328125 C7 5 7 5 8 8 C7.34 8 6.68 8 6 8 C6 8.66 6 9.32 6 10 C5.34 10 4.68 10 4 10 C0 3.375 0 3.375 0 0 Z " fill="#A8DBE2" transform="translate(136,59)"/>
<path d="M0 0 C1.65 0 3.3 0 5 0 C5 1.32 5 2.64 5 4 C5.66 4 6.32 4 7 4 C7 5.32 7 6.64 7 8 C6.01 8 5.02 8 4 8 C3.67 7.01 3.34 6.02 3 5 C2.01 4.67 1.02 4.34 0 4 C0 2.68 0 1.36 0 0 Z " fill="#7F7F7F" transform="translate(77,74)"/>
<path d="M0 0 C0.66 0 1.32 0 2 0 C2.69937202 1.4317616 3.38412718 2.87067032 4.0625 4.3125 C4.63677734 5.51326172 4.63677734 5.51326172 5.22265625 6.73828125 C6 9 6 9 5 12 C4.67 10.68 4.34 9.36 4 8 C3.34 8 2.68 8 2 8 C-0.1519437 4.77208445 -0.20086443 3.71599191 0 0 Z " fill="#A2D4DD" transform="translate(149,76)"/>
<path d="M0 0 C3 1 3 1 4 3 C4.66 3.33 5.32 3.66 6 4 C6 6.31 6 8.62 6 11 C3.37997275 8.62949916 1.64180091 6.12723983 0 3 C0 2.01 0 1.02 0 0 Z " fill="#7CB3CB" transform="translate(105,156)"/>
<path d="M0 0 C0.66 0 1.32 0 2 0 C3.15668038 4.74032407 4.14871639 9.09235906 4 14 C4.33 14.66 4.66 15.32 5 16 C3.68 15.34 2.36 14.68 1 14 C1.27650391 13.17242187 1.27650391 13.17242187 1.55859375 12.328125 C2.0918802 9.51539295 1.68538146 7.53464653 1.0625 4.75 C0.86785156 3.85796875 0.67320313 2.9659375 0.47265625 2.046875 C0.31667969 1.37140625 0.16070312 0.6959375 0 0 Z " fill="#A3A5A7" transform="translate(95,67)"/>
<path d="M0 0 C2.64 0.99 5.28 1.98 8 3 C8 4.32 8 5.64 8 7 C5 7 5 7 2.3125 4.625 C0 2 0 2 0 0 Z " fill="#76AEC7" transform="translate(111,167)"/>
<path d="M0 0 C0.33 0.99 0.66 1.98 1 3 C1.66 3.66 2.32 4.32 3 5 C0.6875 5.625 0.6875 5.625 -2 6 C-2.99 5.34 -3.98 4.68 -5 4 C-5 3.34 -5 2.68 -5 2 C-2 0 -2 0 0 0 Z " fill="#303030" transform="translate(78,155)"/>
<path d="M0 0 C0.66 0 1.32 0 2 0 C2.33 1.98 2.66 3.96 3 6 C2.195625 6.28875 1.39125 6.5775 0.5625 6.875 C-2.1326468 7.73262568 -2.1326468 7.73262568 -3 10 C-2.39009109 6.44219804 -1.4216319 3.3171411 0 0 Z " fill="#777777" transform="translate(75,149)"/>
<path d="M0 0 C0.99 0.33 1.98 0.66 3 1 C3 1.99 3 2.98 3 4 C3.66 4 4.32 4 5 4 C5 4.66 5 5.32 5 6 C4.34 6 3.68 6 3 6 C2.67 6.66 2.34 7.32 2 8 C2 7.01 2 6.02 2 5 C1.01 4.67 0.02 4.34 -1 4 C-0.67 2.68 -0.34 1.36 0 0 Z " fill="#2E80A2" transform="translate(106,152)"/>
<path d="M0 0 C0.33 0.66 0.66 1.32 1 2 C-1.97 5.63 -4.94 9.26 -8 13 C-8 9.00717059 -6.52191924 7.84668408 -4 4.8125 C-3.2575 3.91144531 -2.515 3.01039063 -1.75 2.08203125 C-1.1725 1.39496094 -0.595 0.70789063 0 0 Z " fill="#D0F1FA" transform="translate(112,128)"/>
<path d="M0 0 C1.32 0 2.64 0 4 0 C4 1.98 4 3.96 4 6 C2.68 6 1.36 6 0 6 C0 4.02 0 2.04 0 0 Z " fill="#575757" transform="translate(88,92)"/>
<path d="M0 0 C0.33 0 0.66 0 1 0 C1 2.97 1 5.94 1 9 C0.030625 9.12375 -0.93875 9.2475 -1.9375 9.375 C-2.948125 9.58125 -3.95875 9.7875 -5 10 C-5.33 10.66 -5.66 11.32 -6 12 C-6 10.68 -6 9.36 -6 8 C-2.25 6.875 -2.25 6.875 0 8 C0 5.36 0 2.72 0 0 Z " fill="#908F8E" transform="translate(100,84)"/>
<path d="M0 0 C2.1875 0.3125 2.1875 0.3125 4 1 C3.67 2.32 3.34 3.64 3 5 C1.35 5 -0.3 5 -2 5 C-2.33 4.34 -2.66 3.68 -3 3 C-1.75 1.4375 -1.75 1.4375 0 0 Z " fill="#3C3C3C" transform="translate(92,164)"/>
<path d="M0 0 C1.5625 1.6875 1.5625 1.6875 3 4 C2.6875 6.75 2.6875 6.75 2 9 C1.34 8.34 0.68 7.68 0 7 C-0.99 7.495 -0.99 7.495 -2 8 C-1.47731534 5.23723823 -0.89130413 2.6739124 0 0 Z " fill="#141414" transform="translate(90,150)"/>
<path d="M0 0 C7.75 1.625 7.75 1.625 10 5 C9.01 5 8.02 5 7 5 C7 4.34 7 3.68 7 3 C6.13375 3.309375 6.13375 3.309375 5.25 3.625 C2.48032433 4.08661261 1.35438733 3.42944945 -1 2 C-0.67 1.34 -0.34 0.68 0 0 Z " fill="#A7A7A8" transform="translate(97,108)"/>
<path d="M0 0 C2.97 0.495 2.97 0.495 6 1 C4.35 2.65 2.7 4.3 1 6 C1 5.01 1 4.02 1 3 C0.34 3 -0.32 3 -1 3 C-1 4.65 -1 6.3 -1 8 C-1.33 8 -1.66 8 -2 8 C-2 6.02 -2 4.04 -2 2 C-1.34 2 -0.68 2 0 2 C0 1.34 0 0.68 0 0 Z " fill="#1A1A1A" transform="translate(75,67)"/>
<path d="M0 0 C0.66 0.66 1.32 1.32 2 2 C1.34 3.32 0.68 4.64 0 6 C-1.32 5.67 -2.64 5.34 -4 5 C-3.6875 3.0625 -3.6875 3.0625 -3 1 C-2.01 0.67 -1.02 0.34 0 0 Z " fill="#86DEE2" transform="translate(103,56)"/>
<path d="M0 0 C3.10947117 4.14596156 3.72016345 5.96294212 4 11 C3.34 11.66 2.68 12.32 2 13 C1.34 8.71 0.68 4.42 0 0 Z " fill="#5FA3B6" transform="translate(113,114)"/>
<path d="M0 0 C2.55803184 3.83704776 4.34505724 7.75712791 3.625 12.4375 C3.41875 12.953125 3.2125 13.46875 3 14 C2.67 12.02 2.34 10.04 2 8 C1.34 8 0.68 8 0 8 C0.33 6.68 0.66 5.36 1 4 C0.34 4 -0.32 4 -1 4 C-0.67 2.68 -0.34 1.36 0 0 Z " fill="#E2F9FB" transform="translate(99,71)"/>
<path d="M0 0 C2.31 0.66 4.62 1.32 7 2 C6.01 2.66 5.02 3.32 4 4 C1.94729537 5.84188612 1.94729537 5.84188612 1 8 C0.26919734 6.02253397 -0.39421747 4.01927511 -1 2 C-0.67 1.34 -0.34 0.68 0 0 Z " fill="#585858" transform="translate(81,129)"/>
<path d="M0 0 C0.99 0.66 1.98 1.32 3 2 C2.34 3.65 1.68 5.3 1 7 C-0.32 5.68 -1.64 4.36 -3 3 C-2 1 -2 1 0 0 Z " fill="#828282" transform="translate(76,89)"/>
<path d="M0 0 C2.625 0.9375 2.625 0.9375 5 2 C5 2.99 5 3.98 5 5 C4.401875 4.835 3.80375 4.67 3.1875 4.5 C0.88655664 3.8885876 0.88655664 3.8885876 -2 4 C-2 3.01 -2 2.02 -2 1 C-1.34 0.67 -0.68 0.34 0 0 Z " fill="#4A4A4A" transform="translate(75,86)"/>
<path d="M0 0 C2.64 0.33 5.28 0.66 8 1 C5.64046906 3.35953094 4.22104383 3.49141413 1 4 C0.67 2.68 0.34 1.36 0 0 Z " fill="#656565" transform="translate(65,147)"/>
<path d="M0 0 C0.99 0 1.98 0 3 0 C3 1.65 3 3.3 3 5 C1.02 5.33 -0.96 5.66 -3 6 C-2.34 5.67 -1.68 5.34 -1 5 C-0.34444881 2.47266765 -0.34444881 2.47266765 0 0 Z " fill="#5391AF" transform="translate(165,132)"/>
<path d="M0 0 C2.0625 0.4375 2.0625 0.4375 4 1 C4 1.66 4 2.32 4 3 C3.01 3.495 3.01 3.495 2 4 C2 5.32 2 6.64 2 8 C1.01 8 0.02 8 -1 8 C-1.04241723 5.66705225 -1.04092937 3.33297433 -1 1 C-0.67 0.67 -0.34 0.34 0 0 Z " fill="#818181" transform="translate(82,105)"/>
<path d="M0 0 C4.26086957 6.39130435 4.26086957 6.39130435 3.625 10.3125 C3.41875 10.869375 3.2125 11.42625 3 12 C2.67 11.01 2.34 10.02 2 9 C1.34 8.67 0.68 8.34 0 8 C0 5.36 0 2.72 0 0 Z " fill="#86C6D0" transform="translate(102,73)"/>
<path d="M0 0 C1.32 0.33 2.64 0.66 4 1 C3.67 2.98 3.34 4.96 3 7 C2.01 7 1.02 7 0 7 C0 4.69 0 2.38 0 0 Z " fill="#8CCDDF" transform="translate(146,73)"/>
<path d="M0 0 C0.66 0 1.32 0 2 0 C2.66 1.65 3.32 3.3 4 5 C2.68 5.33 1.36 5.66 0 6 C-0.38218767 4.34385343 -0.71395102 2.67542976 -1 1 C-0.67 0.67 -0.34 0.34 0 0 Z " fill="#676767" transform="translate(82,55)"/>
<path d="M0 0 C1.60080151 4.00200378 0.29279692 7.04556236 -1 11 C-1.33 10.01 -1.66 9.02 -2 8 C-2.66 8 -3.32 8 -4 8 C-2.66666667 5.33333333 -1.33333333 2.66666667 0 0 Z " fill="#7FB4CD" transform="translate(157,146)"/>
<path d="M0 0 C0.99 0.99 1.98 1.98 3 3 C2.67 3.99 2.34 4.98 2 6 C1.34 5.67 0.68 5.34 0 5 C-0.99 5.33 -1.98 5.66 -3 6 C-1.125 1.125 -1.125 1.125 0 0 Z " fill="#338EBD" transform="translate(109,139)"/>
<path d="M0 0 C0.33 0 0.66 0 1 0 C1.33 3.3 1.66 6.6 2 10 C1.34 10 0.68 10 0 10 C-2.21538462 4.58461538 -2.21538462 4.58461538 -1.125 1.625 C-0.75375 1.08875 -0.3825 0.5525 0 0 Z " fill="#4DA6C6" transform="translate(117,113)"/>
<path d="M0 0 C0.66 0 1.32 0 2 0 C2.99 2.97 3.98 5.94 5 9 C3.68 8.34 2.36 7.68 1 7 C0.25 3.375 0.25 3.375 0 0 Z " fill="#31799D" transform="translate(110,160)"/>
<path d="M0 0 C2.15377564 2.62198774 3.40072174 4.64404172 4 8 C2.35 7.67 0.7 7.34 -1 7 C-0.67 4.69 -0.34 2.38 0 0 Z " fill="#9B9696" transform="translate(102,100)"/>
<path d="M0 0 C0.99 0.33 1.98 0.66 3 1 C3 2.32 3 3.64 3 5 C1.68 5 0.36 5 -1 5 C-0.67 3.35 -0.34 1.7 0 0 Z " fill="#626262" transform="translate(82,91)"/>
<path d="M0 0 C0.99 0 1.98 0 3 0 C3.33 1.65 3.66 3.3 4 5 C2.35 5 0.7 5 -1 5 C-0.67 3.35 -0.34 1.7 0 0 Z " fill="#666666" transform="translate(88,54)"/>
<path d="M0 0 C0.99 0 1.98 0 3 0 C3 1.65 3 3.3 3 5 C2.67 4.34 2.34 3.68 2 3 C-0.31 3 -2.62 3 -5 3 C-4.360625 2.690625 -3.72125 2.38125 -3.0625 2.0625 C-1.06389179 1.1654837 -1.06389179 1.1654837 0 0 Z " fill="#0D0D0D" transform="translate(89,117)"/>
<path d="M0 0 C1.32 0 2.64 0 4 0 C4.33 0.99 4.66 1.98 5 3 C3.02 3.33 1.04 3.66 -1 4 C-0.67 2.68 -0.34 1.36 0 0 Z " fill="#3B3B3B" transform="translate(76,80)"/>
</svg>
