<?xml version="1.0" encoding="UTF-8"?>
<svg version="1.1" xmlns="http://www.w3.org/2000/svg" width="225" height="225">
<path d="M0 0 C3.52902876 3.32543094 4.91168252 6.30864102 5.07421875 11.26171875 C4.23452918 26.54406897 -6.74577013 36.11852168 -17.375 45.8125 C-17.98206787 46.35173096 -18.58913574 46.89096191 -19.21459961 47.4465332 C-24.16535139 51.90587806 -27.43475831 55.82649796 -28.0625 62.7578125 C-27.84943708 70.40144477 -24.53979771 76.11053269 -20 82 C-20 82.66 -20 83.32 -20 84 C-18.515 84.495 -18.515 84.495 -17 85 C-16.67 85.99 -16.34 86.98 -16 88 C-24.74012715 84.88409014 -31.54855717 78.7076441 -35.9375 70.578125 C-38.19066257 65.1108923 -38.79048253 59.72007104 -37.125 54 C-32.89806177 44.58374027 -23.84366055 38.03400327 -16.09375 31.59765625 C-8.64687366 25.38814198 -1.89121452 19.61936254 -0.54296875 9.60546875 C-0.28259869 6.40118126 -0.09795693 3.21298726 0 0 Z " fill="#EC9016" transform="translate(127,33)"/>
<path d="M0 0 C0 0.66 0 1.32 0 2 C-4.95 4.475 -4.95 4.475 -10 7 C-9.67 7.99 -9.34 8.98 -9 10 C14.10334409 20.19265181 48.46443612 19.80663291 71.9375 11 C74.95764391 9.68451082 77.41325191 8.03699178 80 6 C80.99 8.475 80.99 8.475 82 11 C74.73552702 20.24569289 59.66516646 21.04185419 48.75 22.40625 C27.82317147 24.3281016 -3.81012538 26.12658308 -22 14 C-23.25 11.5 -23.25 11.5 -23 9 C-20.21722275 5.64639665 -17.65513796 4.20320222 -13.5625 2.8125 C-12.63566406 2.48894531 -11.70882812 2.16539062 -10.75390625 1.83203125 C-7.09757513 0.72735249 -3.82540141 0 0 0 Z " fill="#086C86" transform="translate(78,161)"/>
<path d="M0 0 C-0.71285156 0.4846875 -1.42570312 0.969375 -2.16015625 1.46875 C-12.55583502 8.55969647 -12.55583502 8.55969647 -19 19 C-20.04077048 26.93587492 -17.33109119 31.86935199 -13.43359375 38.5703125 C-11.70917976 42.69574977 -11.78908984 44.72474576 -13 49 C-14.7421875 51.65234375 -14.7421875 51.65234375 -16.875 53.9375 C-17.57367188 54.70964844 -18.27234375 55.48179688 -18.9921875 56.27734375 C-21 58 -21 58 -24 58 C-23.649375 57.175 -23.29875 56.35 -22.9375 55.5 C-21.49737768 50.12354336 -21.8292391 46.23841502 -24.375 41.37109375 C-25.42963221 39.6294295 -26.51169114 37.90397294 -27.625 36.19921875 C-30.47575145 31.63963617 -30.57766704 27.21599356 -30 22 C-27.87520298 14.33350264 -21.90590473 8.96122178 -15.265625 4.953125 C-13.40452469 3.90527861 -11.52714951 2.90872152 -9.625 1.9375 C-9.0180127 1.62611084 -8.41102539 1.31472168 -7.78564453 0.99389648 C-3.38270041 -1.1275668 -3.38270041 -1.1275668 0 0 Z " fill="#EC8D15" transform="translate(142,67)"/>
<path d="M0 0 C-3.80780787 2.0592341 -7.69417535 3.09769878 -11.85546875 4.21875 C-14.18004547 4.78732432 -14.18004547 4.78732432 -15 7 C-5.16360805 8.90272176 4.55976528 9.21930696 14.5625 9.25 C15.76801514 9.25902344 16.97353027 9.26804688 18.21557617 9.27734375 C25.55933551 9.25344379 32.53006075 8.62706458 39.76147461 7.33105469 C43.39961252 6.95915005 46.42727184 7.24179522 50 8 C50.99 8.99 50.99 8.99 52 10 C33.82820538 18.61531299 9.94723956 17.65130115 -9.5 14.75 C-10.24644775 14.64091309 -10.99289551 14.53182617 -11.76196289 14.41943359 C-17.07696622 13.49597975 -21.26657096 11.57993204 -26 9 C-25.65625 7.1015625 -25.65625 7.1015625 -25 5 C-17.42288886 0.07487776 -8.7732776 -0.32968475 0 0 Z " fill="#0C687E" transform="translate(96,120)"/>
<path d="M0 0 C0 0.66 0 1.32 0 2 C-0.66 2 -1.32 2 -2 2 C-1.10863154 4.36299785 -1.10863154 4.36299785 2.078125 5.078125 C5.93253706 6.07799791 9.78073588 6.5235623 13.75 6.75 C14.47300293 6.79382813 15.19600586 6.83765625 15.94091797 6.8828125 C22.5403979 7.17606006 28.95545256 6.57303314 35.49121094 5.67480469 C40.20671858 5.05108179 44.30338499 4.87562334 49 6 C50.9375 7.5625 50.9375 7.5625 52 9 C41.7801425 13.242205 31.76436708 14.37048382 20.75 14.3125 C19.65969482 14.30831055 18.56938965 14.30412109 17.44604492 14.29980469 C6.41457171 14.14607872 -3.81017356 13.66847976 -13 7 C-12.00302665 4.37752662 -11.46152265 3.23076132 -8.90625 1.953125 C-8.1121875 1.72109375 -7.318125 1.4890625 -6.5 1.25 C-5.7059375 1.00765625 -4.911875 0.7653125 -4.09375 0.515625 C-2 0 -2 0 0 0 Z " fill="#0D657D" transform="translate(89,138)"/>
<path d="M0 0 C0.66 0.99 1.32 1.98 2 3 C5.46814002 4.40504899 9.05496957 4.05153078 12.7421875 3.95703125 C14.05574219 3.93576172 15.36929688 3.91449219 16.72265625 3.89257812 C18.79878702 3.85554815 20.87408701 3.81252611 22.94970703 3.75317383 C24.96344703 3.69836679 26.97787788 3.67116512 28.9921875 3.64453125 C30.19214355 3.61721924 31.39209961 3.58990723 32.62841797 3.56176758 C36.65586431 4.08524811 38.8178249 5.54347242 42 8 C36.0946537 13.9053463 25.35765238 13.33042943 17.5 13.375 C8.64131472 13.32478692 -0.42192284 13.05205144 -8 8 C-8.1875 5.375 -8.1875 5.375 -8 3 C-5.36 2.01 -2.72 1.02 0 0 Z " fill="#066F88" transform="translate(92,156)"/>
<path d="M0 0 C0.66 0 1.32 0 2 0 C1.76758005 3.13766931 0.82574004 4.18343153 -1.375 6.5 C-14.67210457 16.74788674 -35.91864404 17.19984334 -52.0625 17.1875 C-53.70980103 17.1862915 -53.70980103 17.1862915 -55.39038086 17.18505859 C-66.8077178 17.09963584 -77.98775409 16.21190506 -89 13 C-89 12.34 -89 11.68 -89 11 C-88.26894043 11.07001221 -87.53788086 11.14002441 -86.78466797 11.2121582 C-77.9985059 11.97808616 -69.27771732 12.18622619 -60.46240234 12.18530273 C-58.13490525 12.18749069 -55.80788278 12.20573315 -53.48046875 12.22460938 C-35.85987884 12.29161623 -15.98706964 11.23228867 -1 1 C-0.67 0.67 -0.34 0.34 0 0 Z " fill="#0B6681" transform="translate(164,175)"/>
<path d="M0 0 C4.62330253 1.72240683 7.47468782 3.72639477 10 8 C10.70201527 12.73860306 10.05267882 16.22228961 7.453125 20.3046875 C2.62655351 25.93568757 -5.06799917 29.63365434 -12 32 C-12.99 32 -13.98 32 -15 32 C-15 31.34 -15 30.68 -15 30 C-13.2893067 28.85560517 -11.52950097 27.78416025 -9.75 26.75 C-4.52920069 23.48867807 -1.03681844 20.95373431 0.5859375 14.765625 C1.24506282 10.96010902 1.52362142 8.83779428 -0.5625 5.5 C-3.40561656 3.75038981 -5.69555966 3.30040367 -9 3 C-9 2.34 -9 1.68 -9 1 C-5.92805092 -0.53597454 -3.39755707 -0.2265038 0 0 Z " fill="#096A82" transform="translate(160,118)"/>
<path d="M0 0 C1.70703125 1.546875 1.70703125 1.546875 3 3 C1.75108386 3.48198463 0.50081192 3.96045677 -0.75 4.4375 C-1.44609375 4.70433594 -2.1421875 4.97117188 -2.859375 5.24609375 C-6.8551552 6.6533667 -10.29244599 7.12786551 -14.54296875 7.1328125 C-16.15461914 7.13474609 -16.15461914 7.13474609 -17.79882812 7.13671875 C-18.91708984 7.13285156 -20.03535156 7.12898437 -21.1875 7.125 C-22.28642578 7.12886719 -23.38535156 7.13273438 -24.51757812 7.13671875 C-30.7627508 7.12927072 -36.80880407 6.82374941 -43 6 C-42.34 5.01 -41.68 4.02 -41 3 C-38.20263672 2.56762695 -38.20263672 2.56762695 -34.6796875 2.48828125 C-33.42285156 2.45283203 -32.16601562 2.41738281 -30.87109375 2.38085938 C-29.55238281 2.35830078 -28.23367187 2.33574219 -26.875 2.3125 C-25.53512241 2.27933471 -24.19527689 2.24484578 -22.85546875 2.20898438 C-19.5703967 2.12626673 -16.28559968 2.05719307 -13 2 C-13 1.34 -13 0.68 -13 0 C-8.37464679 -1.01532144 -4.63126765 -1.0485889 0 0 Z " fill="#03738F" transform="translate(138,144)"/>
<path d="M0 0 C0.66 0.66 1.32 1.32 2 2 C-3.2837478 4.50504378 -8.16267909 5.8387059 -13.9375 6.6875 C-15.2064209 6.87856323 -15.2064209 6.87856323 -16.50097656 7.07348633 C-27.28965334 8.52896199 -38.13992291 8.27417336 -49 8 C-49 7.67 -49 7.34 -49 7 C-42.10212256 5.57285294 -35.07378253 5.62636735 -28.05859375 5.39453125 C-27.05441406 5.35714844 -26.05023438 5.31976563 -25.015625 5.28125 C-23.64325684 5.23581055 -23.64325684 5.23581055 -22.24316406 5.18945312 C-19.96422579 5.13642686 -19.96422579 5.13642686 -18 4 C-30.54 3.67 -43.08 3.34 -56 3 C-56.33 2.34 -56.66 1.68 -57 1 C-55.47415283 1.01571045 -55.47415283 1.01571045 -53.91748047 1.03173828 C-50.07441858 1.06846109 -46.23137152 1.09108671 -42.38818359 1.10986328 C-40.73776628 1.11980362 -39.087366 1.13336063 -37.43701172 1.15087891 C-28.12130717 1.24715062 -19.26758383 1.05438252 -10.08251953 -0.66455078 C-6.50370387 -1.05400846 -3.51677253 -0.74286045 0 0 Z " fill="#0B647A" transform="translate(146,128)"/>
<path d="M0 0 C0.66410889 0.13784912 1.32821777 0.27569824 2.01245117 0.41772461 C5.95064637 1.18528165 9.79705585 1.23332645 13.80078125 1.31640625 C15.0553437 1.3475779 15.0553437 1.3475779 16.33525085 1.37937927 C18.99425421 1.44451034 21.65335228 1.5035895 24.3125 1.5625 C26.12045231 1.60571992 27.92839522 1.6493353 29.73632812 1.69335938 C34.15745622 1.80015416 38.57867912 1.90152325 43 2 C43.495 2.99 43.495 2.99 44 4 C38.90235608 5.69921464 33.47287097 5.43243208 28.13330078 5.61254883 C26.03483166 5.68627623 23.93758891 5.77734262 21.83984375 5.86914062 C13.97620563 6.16714365 6.67030786 5.86577801 -1 4 C-1 1 -1 1 0 0 Z " fill="#04718C" transform="translate(85,129)"/>
<path d="M0 0 C0 0.66 0 1.32 0 2 C-4.95 4.475 -4.95 4.475 -10 7 C-8.86695008 10.39914975 -7.87481525 11.05254451 -5 13 C-9.75 12.25 -9.75 12.25 -12 10 C-11.625 7.375 -11.625 7.375 -11 5 C-12.98 5.99 -12.98 5.99 -15 7 C-14.34 8.65 -13.68 10.3 -13 12 C-13.99 12.33 -14.98 12.66 -16 13 C-16 13.99 -16 14.98 -16 16 C-14.906875 16.12375 -13.81375 16.2475 -12.6875 16.375 C-9 17 -9 17 -6 19 C-11.94715209 18.57520342 -17.11003526 17.6221961 -22 14 C-23.25 11.5 -23.25 11.5 -23 9 C-20.21722275 5.64639665 -17.65513796 4.20320222 -13.5625 2.8125 C-12.63566406 2.48894531 -11.70882812 2.16539062 -10.75390625 1.83203125 C-7.09757513 0.72735249 -3.82540141 0 0 0 Z M-19 7 C-19.66 8.32 -20.32 9.64 -21 11 C-19.515 11.99 -19.515 11.99 -18 13 C-17.34 11.02 -16.68 9.04 -16 7 C-16.99 7 -17.98 7 -19 7 Z " fill="#166378" transform="translate(78,161)"/>
<path d="M0 0 C0 0.66 0 1.32 0 2 C-12.59527691 5.77858307 -25.97384986 5.14193142 -39 5 C-38.67 4.01 -38.34 3.02 -38 2 C-36.35064453 1.92652344 -36.35064453 1.92652344 -34.66796875 1.8515625 C-24.80549073 1.3933356 -24.80549073 1.3933356 -15.0625 -0.125 C-9.87292233 -1.20748859 -5.20596709 -0.835665 0 0 Z " fill="#05708B" transform="translate(143,177)"/>
<path d="M0 0 C3.40819857 1.20936078 5.28386316 2.82514684 7 6 C7.42108939 9.8599861 7.30234876 12.30459786 5.75 15.875 C4 18 4 18 1.9375 18.875 C0 19 0 19 -2 18 C-1.835 17.360625 -1.67 16.72125 -1.5 16.0625 C-0.67034612 10.98086997 -0.36160326 5.91519022 -2 1 C-1.34 0.67 -0.68 0.34 0 0 Z " fill="#0A6B83" transform="translate(163,120)"/>
<path d="M0 0 C-0.71285156 0.49628906 -1.42570312 0.99257812 -2.16015625 1.50390625 C-6.67525361 4.70640465 -10.93254537 7.72862659 -14.625 11.875 C-18.17798895 15.67004172 -21.94939157 16.43882129 -27 17 C-23.23815619 9.47631238 -17.04593468 5.7960872 -9.75 2.0625 C-9.13535889 1.74361816 -8.52071777 1.42473633 -7.88745117 1.09619141 C-3.36977382 -1.12325794 -3.36977382 -1.12325794 0 0 Z " fill="#EC9110" transform="translate(142,67)"/>
<path d="M0 0 C0 0.66 0 1.32 0 2 C-0.66 2 -1.32 2 -2 2 C-1.24849977 5.27773504 -1.24849977 5.27773504 2 7 C2 7.66 2 8.32 2 9 C2.66 9.33 3.32 9.66 4 10 C-1.65468854 11.01784394 -6.40101866 11.70985614 -11.375 8.4375 C-11.91125 7.963125 -12.4475 7.48875 -13 7 C-12.00302665 4.37752662 -11.46152265 3.23076132 -8.90625 1.953125 C-8.1121875 1.72109375 -7.318125 1.4890625 -6.5 1.25 C-5.7059375 1.00765625 -4.911875 0.7653125 -4.09375 0.515625 C-2 0 -2 0 0 0 Z " fill="#0D6980" transform="translate(89,138)"/>
<path d="M0 0 C0.66 0.99 1.32 1.98 2 3 C5.46814002 4.40504899 9.05496957 4.05153078 12.7421875 3.95703125 C14.05574219 3.93576172 15.36929688 3.91449219 16.72265625 3.89257812 C18.79878702 3.85554815 20.87408701 3.81252611 22.94970703 3.75317383 C24.96344703 3.69836679 26.97787788 3.67116512 28.9921875 3.64453125 C30.19214355 3.61721924 31.39209961 3.58990723 32.62841797 3.56176758 C36.65586431 4.08524811 38.8178249 5.54347242 42 8 C40.02 8.99 40.02 8.99 38 10 C38.33 9.01 38.66 8.02 39 7 C36.525 6.505 36.525 6.505 34 6 C33.67 6.66 33.34 7.32 33 8 C32.43700195 7.83483887 31.87400391 7.66967773 31.29394531 7.49951172 C28.85922571 6.96934608 26.78450935 6.93289571 24.296875 7.0078125 C22.94916016 7.03294922 22.94916016 7.03294922 21.57421875 7.05859375 C19.70682113 7.10250213 17.83959345 7.15445056 15.97265625 7.21484375 C9.89998022 7.31013539 5.55262288 6.48955627 0 4 C0 3.34 0 2.68 0 2 C-1.65 2.33 -3.3 2.66 -5 3 C-5 4.98 -5 6.96 -5 9 C-5.99 8.67 -6.98 8.34 -8 8 C-8 6.35 -8 4.7 -8 3 C-5.36 2.01 -2.72 1.02 0 0 Z " fill="#176378" transform="translate(92,156)"/>
<path d="M0 0 C0.66 0.66 1.32 1.32 2 2 C-4.4 5.07692308 -4.4 5.07692308 -7.4375 4.6875 C-7.953125 4.460625 -8.46875 4.23375 -9 4 C-7.02 3.34 -5.04 2.68 -3 2 C-8.62986527 1.78822327 -8.62986527 1.78822327 -14.08984375 3.01367188 C-18.43363779 4.27964987 -22.50829419 4.15829483 -26.99609375 3.9765625 C-27.82963882 3.95153656 -28.6631839 3.92651062 -29.52198792 3.90072632 C-32.16094424 3.81914087 -34.79908177 3.72231772 -37.4375 3.625 C-39.23629564 3.56669745 -41.03512402 3.50939562 -42.83398438 3.453125 C-47.22311955 3.3136546 -51.61158645 3.16052463 -56 3 C-56.33 2.34 -56.66 1.68 -57 1 C-55.47415283 1.01571045 -55.47415283 1.01571045 -53.91748047 1.03173828 C-50.07441858 1.06846109 -46.23137152 1.09108671 -42.38818359 1.10986328 C-40.73776628 1.11980362 -39.087366 1.13336063 -37.43701172 1.15087891 C-28.12130717 1.24715062 -19.26758383 1.05438252 -10.08251953 -0.66455078 C-6.50370387 -1.05400846 -3.51677253 -0.74286045 0 0 Z " fill="#126074" transform="translate(146,128)"/>
<path d="M0 0 C3.15380946 2.58038956 4.13718893 5.04544924 5 9 C4.93831501 13.95022058 4.78180061 17.82729909 2 22 C2 20.35 2 18.7 2 17 C0.68 17.33 -0.64 17.66 -2 18 C-1.855625 17.20335938 -1.71125 16.40671875 -1.5625 15.5859375 C-1.376875 14.52632812 -1.19125 13.46671875 -1 12.375 C-0.814375 11.33085938 -0.62875 10.28671875 -0.4375 9.2109375 C-0.01284203 6.09425135 0.07545206 3.14069188 0 0 Z " fill="#E28B1B" transform="translate(127,33)"/>
<path d="M0 0 C1.097677 0.09849243 1.097677 0.09849243 2.2175293 0.19897461 C11.7459067 0.99832774 21.25673232 1.31457423 30.8125 1.5625 C32.39128408 1.60582772 33.97006023 1.64944576 35.54882812 1.69335938 C39.36580244 1.79890974 43.18286163 1.90056705 47 2 C47 2.33 47 2.66 47 3 C38.42 3.33 29.84 3.66 21 4 C21 4.33 21 4.66 21 5 C13.77875787 4.58169634 6.95432222 4.04538889 0 2 C0 1.34 0 0.68 0 0 Z " fill="#145970" transform="translate(75,186)"/>
<path d="M0 0 C0.99 0.33 1.98 0.66 3 1 C3 1.66 3 2.32 3 3 C2.34 3 1.68 3 1 3 C1 3.66 1 4.32 1 5 C1.66 5.33 2.32 5.66 3 6 C3.76681614 15.73004484 3.76681614 15.73004484 1.88671875 18.84375 C0.5 20.1875 0.5 20.1875 -2 22 C-1.690625 21.360625 -1.38125 20.72125 -1.0625 20.0625 C0.32494766 16.06338616 1.18280011 12.25208954 1 8 C-0.39685006 5.3530128 -0.39685006 5.3530128 -3 4 C-6.14481791 3.19684346 -6.14481791 3.19684346 -9 3 C-9 2.34 -9 1.68 -9 1 C-6.01002175 -0.49498913 -3.29957225 -0.11577446 0 0 Z " fill="#0F657A" transform="translate(160,118)"/>
<path d="M0 0 C2 2 2 2 3 5 C2.01 5.33 1.02 5.66 0 6 C0 6.99 0 7.98 0 9 C1.093125 9.12375 2.18625 9.2475 3.3125 9.375 C7 10 7 10 10 12 C4.09403861 11.57814561 -1.17156272 10.66046118 -6 7 C-7 4.25 -7 4.25 -7 2 C-6.34 2 -5.68 2 -5 2 C-4.01 3.485 -4.01 3.485 -3 5 C-2.01 3.35 -1.02 1.7 0 0 Z " fill="#0B6981" transform="translate(62,168)"/>
<path d="M0 0 C-3.80780787 2.0592341 -7.69417535 3.09769878 -11.85546875 4.21875 C-14.18004547 4.78732432 -14.18004547 4.78732432 -15 7 C-12.69 7.33 -10.38 7.66 -8 8 C-8 8.33 -8 8.66 -8 9 C-13.41538462 9.36923077 -13.41538462 9.36923077 -16.375 7.5 C-16.91125 7.005 -17.4475 6.51 -18 6 C-17.67 5.34 -17.34 4.68 -17 4 C-17.66 4 -18.32 4 -19 4 C-19 3.34 -19 2.68 -19 2 C-12.56986533 0.26044666 -6.65050424 -0.24991456 0 0 Z " fill="#0C677D" transform="translate(96,120)"/>
<path d="M0 0 C-1.65 1.32 -3.3 2.64 -5 4 C-4.67 4.66 -4.34 5.32 -4 6 C-6.54046458 6.50688605 -9.08208876 7.00566874 -11.625 7.5 C-12.33785156 7.64308594 -13.05070313 7.78617188 -13.78515625 7.93359375 C-17.92144935 8.73049426 -21.76433679 9.16034056 -26 9 C-22.31286264 6.73830234 -18.460444 6.36051434 -14.25 5.875 C-13.20392578 5.74544922 -13.20392578 5.74544922 -12.13671875 5.61328125 C-10.42527668 5.40228154 -8.71273371 5.20024499 -7 5 C-7 4.34 -7 3.68 -7 3 C-9.97 3 -12.94 3 -16 3 C-16 2.67 -16 2.34 -16 2 C-13.71022755 1.47090114 -11.41810812 0.95194981 -9.125 0.4375 C-7.84882813 0.14746094 -6.57265625 -0.14257812 -5.2578125 -0.44140625 C-2 -1 -2 -1 0 0 Z " fill="#125F74" transform="translate(150,174)"/>
<path d="M0 0 C1.7109375 1.546875 1.7109375 1.546875 3 3 C-3.05473373 5.57886807 -8.44074057 6.61020794 -15 7 C-11.74469192 5.31573191 -8.49529294 4.11213866 -5 3 C-5 2.67 -5 2.34 -5 2 C-7.31 1.67 -9.62 1.34 -12 1 C-12 0.67 -12 0.34 -12 0 C-7.73640798 -1.16279782 -4.3069785 -0.95710633 0 0 Z " fill="#0A677D" transform="translate(138,144)"/>
<path d="M0 0 C-1.77029446 1.29240512 -3.54125498 2.58389793 -5.3125 3.875 C-6.29863281 4.59429687 -7.28476563 5.31359375 -8.30078125 6.0546875 C-10.17523115 7.4055935 -12.07752993 8.71835329 -14 10 C-14.66 9.34 -15.32 8.68 -16 8 C-16.66 7.67 -17.32 7.34 -18 7 C-4.875 -1.625 -4.875 -1.625 0 0 Z " fill="#DF8A1A" transform="translate(142,67)"/>
<path d="M0 0 C3.375 2 3.375 2 6 4 C4.02 4.99 4.02 4.99 2 6 C2.33 5.01 2.66 4.02 3 3 C0.525 2.505 0.525 2.505 -2 2 C-2.33 2.66 -2.66 3.32 -3 4 C-3.55719727 3.83701416 -4.11439453 3.67402832 -4.68847656 3.50610352 C-7.19510339 2.9572825 -9.41980924 2.88670615 -11.984375 2.90234375 C-12.91894531 2.90556641 -13.85351562 2.90878906 -14.81640625 2.91210938 C-16.26853516 2.92467773 -16.26853516 2.92467773 -17.75 2.9375 C-19.22533203 2.94426758 -19.22533203 2.94426758 -20.73046875 2.95117188 C-23.15370791 2.96293517 -25.57682273 2.97937316 -28 3 C-28 2.67 -28 2.34 -28 2 C-27.40461426 1.97494385 -26.80922852 1.9498877 -26.19580078 1.92407227 C-23.50530864 1.80822506 -20.8151766 1.68544804 -18.125 1.5625 C-17.18785156 1.52318359 -16.25070313 1.48386719 -15.28515625 1.44335938 C-14.38925781 1.40146484 -13.49335937 1.35957031 -12.5703125 1.31640625 C-11.32918701 1.26141968 -11.32918701 1.26141968 -10.06298828 1.20532227 C-6.35139286 0.83591969 -3.98252864 -0.38293545 0 0 Z " fill="#0B657B" transform="translate(128,160)"/>
<path d="M0 0 C-3.43772727 3.43772727 -7.10960984 3.97127774 -11.875 4.125 C-12.90625 4.08375 -13.9375 4.0425 -15 4 C-15.33 3.34 -15.66 2.68 -16 2 C-10.60539047 -0.27141454 -5.73842251 -0.20413361 0 0 Z " fill="#04728D" transform="translate(145,129)"/>
<path d="M0 0 C0.66 0.33 1.32 0.66 2 1 C1.01 2.485 1.01 2.485 0 4 C0.66 4 1.32 4 2 4 C2 5.32 2 6.64 2 8 C2.99 8.33 3.98 8.66 5 9 C4.01 9.66 3.02 10.32 2 11 C1.01 10.01 0.02 9.02 -1 8 C-0.67 7.01 -0.34 6.02 0 5 C-1.98 5.66 -3.96 6.32 -6 7 C-4.02 4.69 -2.04 2.38 0 0 Z " fill="#E58D21" transform="translate(101,73)"/>
<path d="M0 0 C0.99 0.33 1.98 0.66 3 1 C3.8125 2.9375 3.8125 2.9375 4 5 C3.34 5.66 2.68 6.32 2 7 C-1.125 6.625 -1.125 6.625 -4 6 C-4 5.01 -4 4.02 -4 3 C-2.1875 1.25 -2.1875 1.25 0 0 Z " fill="#037590" transform="translate(76,123)"/>
<path d="M0 0 C0.33 0 0.66 0 1 0 C1.33 3.3 1.66 6.6 2 10 C1.34 10 0.68 10 0 10 C0 11.98 0 13.96 0 16 C-1.98376188 12.7317333 -2.1540383 10.64103206 -1.6875 6.875 C-1.58824219 6.00617188 -1.48898438 5.13734375 -1.38671875 4.2421875 C-1 2 -1 2 0 0 Z " fill="#E28F23" transform="translate(91,85)"/>
<path d="M0 0 C0.99 0.99 1.98 1.98 3 3 C2.34 4.65 1.68 6.3 1 8 C0.34 8 -0.32 8 -1 8 C-1 7.01 -1 6.02 -1 5 C-2.98 5.33 -4.96 5.66 -7 6 C-6.21625 5.38125 -5.4325 4.7625 -4.625 4.125 C-2.03162353 2.10141339 -2.03162353 2.10141339 0 0 Z " fill="#0E6478" transform="translate(157,167)"/>
<path d="M0 0 C3.465 1.485 3.465 1.485 7 3 C7 3.66 7 4.32 7 5 C7.66 5.33 8.32 5.66 9 6 C7.02 6.33 5.04 6.66 3 7 C0 3.375 0 3.375 0 0 Z " fill="#037491" transform="translate(84,142)"/>
<path d="M0 0 C-0.33 0.66 -0.66 1.32 -1 2 C-1.66 2 -2.32 2 -3 2 C-3.33 3.32 -3.66 4.64 -4 6 C-4 5.34 -4 4.68 -4 4 C-5.65 4.66 -7.3 5.32 -9 6 C-9 4.68 -9 3.36 -9 2 C-5.5647952 -0.29013653 -4.014669 -0.17842973 0 0 Z " fill="#F18E0F" transform="translate(124,82)"/>
<path d="M0 0 C2.97 0.495 2.97 0.495 6 1 C5.34 2.32 4.68 3.64 4 5 C3.34 4.67 2.68 4.34 2 4 C1.67 4.99 1.34 5.98 1 7 C0.34 7 -0.32 7 -1 7 C-1 6.34 -1 5.68 -1 5 C-1.66 4.67 -2.32 4.34 -3 4 C-2.01 2.68 -1.02 1.36 0 0 Z " fill="#F38E0E" transform="translate(117,61)"/>
<path d="M0 0 C2.8290723 2.8290723 3.37611108 3.38144425 4 7 C3.34 7 2.68 7 2 7 C2 8.65 2 10.3 2 12 C1.01 12.495 1.01 12.495 0 13 C0 8.71 0 4.42 0 0 Z " fill="#DA8C32" transform="translate(127,33)"/>
<path d="M0 0 C-4.75 3.875 -4.75 3.875 -7 5 C-7 4.34 -7 3.68 -7 3 C-9.97 3 -12.94 3 -16 3 C-16 2.67 -16 2.34 -16 2 C-13.71022755 1.47090114 -11.41810812 0.95194981 -9.125 0.4375 C-7.84882813 0.14746094 -6.57265625 -0.14257812 -5.2578125 -0.44140625 C-2 -1 -2 -1 0 0 Z " fill="#0D657A" transform="translate(150,174)"/>
<path d="M0 0 C-2.88628401 1.57554035 -5.53342384 2.46276373 -8.75 3.125 C-9.54921875 3.29257813 -10.3484375 3.46015625 -11.171875 3.6328125 C-11.77515625 3.75398438 -12.3784375 3.87515625 -13 4 C-13 3.34 -13 2.68 -13 2 C-13.66 1.67 -14.32 1.34 -15 1 C-10.03926578 -0.32286246 -5.08888488 -0.08893197 0 0 Z " fill="#1F5967" transform="translate(96,120)"/>
<path d="M0 0 C0.99 0.33 1.98 0.66 3 1 C3 1.66 3 2.32 3 3 C-0.96 3 -4.92 3 -9 3 C-9 2.34 -9 1.68 -9 1 C-6.01002175 -0.49498913 -3.29957225 -0.11577446 0 0 Z " fill="#175E6F" transform="translate(160,118)"/>
<path d="M0 0 C0.33 0.66 0.66 1.32 1 2 C0.0625 4.625 0.0625 4.625 -1 7 C-2.32 6.67 -3.64 6.34 -5 6 C-4.67 4.35 -4.34 2.7 -4 1 C-2.68 0.67 -1.36 0.34 0 0 Z " fill="#037692" transform="translate(166,132)"/>
<path d="M0 0 C2.02045442 0.60183749 4.02111039 1.27306096 6 2 C6.33 2.66 6.66 3.32 7 4 C5.02 4.33 3.04 4.66 1 5 C0.34 3.68 -0.32 2.36 -1 1 C-0.67 0.67 -0.34 0.34 0 0 Z " fill="#04738F" transform="translate(94,178)"/>
<path d="M0 0 C0.33 0.99 0.66 1.98 1 3 C1.99 3.33 2.98 3.66 4 4 C3.67 5.32 3.34 6.64 3 8 C2.01 8 1.02 8 0 8 C-0.66 5.69 -1.32 3.38 -2 1 C-1.34 0.67 -0.68 0.34 0 0 Z " fill="#037590" transform="translate(163,120)"/>
<path d="M0 0 C0.99 0.66 1.98 1.32 3 2 C3 2.66 3 3.32 3 4 C3.99 4.33 4.98 4.66 6 5 C6.33 5.99 6.66 6.98 7 8 C3.06326356 6.68775452 0.77280706 5.08089673 -2 2 C-1.34 2 -0.68 2 0 2 C0 1.34 0 0.68 0 0 Z " fill="#D8942A" transform="translate(104,113)"/>
<path d="M0 0 C-0.39803561 2.88575819 -0.79009069 3.82189513 -3.0625 5.75 C-3.701875 6.1625 -4.34125 6.575 -5 7 C-5 6.34 -5 5.68 -5 5 C-5.99 4.67 -6.98 4.34 -8 4 C-2.25 0 -2.25 0 0 0 Z " fill="#195D71" transform="translate(166,175)"/>
<path d="M0 0 C6.52307692 0.61538462 6.52307692 0.61538462 8.9375 2.5625 C9.288125 3.036875 9.63875 3.51125 10 4 C8.1875 5.0625 8.1875 5.0625 6 6 C5.01 5.67 4.02 5.34 3 5 C3.99 4.34 4.98 3.68 6 3 C4.02 2.34 2.04 1.68 0 1 C0 0.67 0 0.34 0 0 Z " fill="#165C6D" transform="translate(131,143)"/>
<path d="M0 0 C2.56687367 3.8503105 1.83288724 5.58569763 1 10 C0.01 10 -0.98 10 -2 10 C-1.49396008 7.83125748 -1.00016187 6.00032373 0 4 C0 2.68 0 1.36 0 0 Z " fill="#E28C1B" transform="translate(128,106)"/>
<path d="M0 0 C1 2 1 2 0.9375 4 C0 6 0 6 -3.0625 7.25 C-4.031875 7.4975 -5.00125 7.745 -6 8 C-4.26440562 4.942048 -2.61527381 2.36620011 0 0 Z " fill="#DE8D22" transform="translate(121,76)"/>
<path d="M0 0 C-2.64 1.65 -5.28 3.3 -8 5 C-8 4.34 -8 3.68 -8 3 C-8.66 2.67 -9.32 2.34 -10 2 C-3.375 -1.125 -3.375 -1.125 0 0 Z " fill="#DB9436" transform="translate(142,67)"/>
<path d="M0 0 C0.99 0.99 1.98 1.98 3 3 C0.03 5.475 0.03 5.475 -3 8 C-3 6.68 -3 5.36 -3 4 C-2.34 4 -1.68 4 -1 4 C-0.67 2.68 -0.34 1.36 0 0 Z " fill="#E18C20" transform="translate(119,64)"/>
<path d="M0 0 C-0.33 1.65 -0.66 3.3 -1 5 C-2.9375 4.1875 -2.9375 4.1875 -5 3 C-5.33 2.01 -5.66 1.02 -6 0 C-2.25 -1.125 -2.25 -1.125 0 0 Z " fill="#EC9F15" transform="translate(101,108)"/>
<path d="M0 0 C0.33 0.66 0.66 1.32 1 2 C1.66 2.33 2.32 2.66 3 3 C0.09399739 4.25664978 -1.79604584 5 -5 5 C-5 4.34 -5 3.68 -5 3 C-2.5 1.375 -2.5 1.375 0 0 Z " fill="#205C70" transform="translate(150,145)"/>
<path d="M0 0 C0 0.33 0 0.66 0 1 C-6.435 1.495 -6.435 1.495 -13 2 C-8.19155649 -1.20562901 -5.57936203 -0.94743883 0 0 Z " fill="#0F5D74" transform="translate(136,133)"/>
<path d="M0 0 C1.65 0 3.3 0 5 0 C4.67 1.65 4.34 3.3 4 5 C3.01 4.67 2.02 4.34 1 4 C0.3125 1.9375 0.3125 1.9375 0 0 Z " fill="#F58E09" transform="translate(94,104)"/>
<path d="M0 0 C0 1.65 0 3.3 0 5 C-3.75 6.125 -3.75 6.125 -6 5 C-1.125 0 -1.125 0 0 0 Z " fill="#EFAE15" transform="translate(121,56)"/>
<path d="M0 0 C0.66 0 1.32 0 2 0 C1.67 2.97 1.34 5.94 1 9 C0.01 9 -0.98 9 -2 9 C-1.34 6.03 -0.68 3.06 0 0 Z " fill="#F28E10" transform="translate(129,40)"/>
<path d="M0 0 C1.98 0 3.96 0 6 0 C5.01 0.66 4.02 1.32 3 2 C4.65 2.33 6.3 2.66 8 3 C8 3.33 8 3.66 8 4 C5.69 4 3.38 4 1 4 C0.67 2.68 0.34 1.36 0 0 Z " fill="#12586E" transform="translate(125,187)"/>
</svg>
