<?xml version="1.0" encoding="UTF-8"?>
<svg version="1.1" xmlns="http://www.w3.org/2000/svg" width="225" height="225">
<path d="M0 0 C74.25 0 148.5 0 225 0 C225 74.25 225 148.5 225 225 C150.75 225 76.5 225 0 225 C0 150.75 0 76.5 0 0 Z " fill="#577ADE" transform="translate(0,0)"/>
<path d="M0 0 C73.92 0 147.84 0 224 0 C217.25000163 7.8749981 217.25000163 7.8749981 213.55369568 11.56655884 C212.71967224 12.40195694 211.8856488 13.23735504 211.02635193 14.09806824 C210.13005569 14.9907692 209.23375946 15.88347015 208.31030273 16.80322266 C207.34195821 17.77128457 206.3738349 18.7395678 205.40591431 19.70805359 C202.79461441 22.31963876 200.18025623 24.92814237 197.56531405 27.53607988 C194.82055093 30.27455574 192.07865383 33.01589825 189.33644104 35.75692749 C184.14553872 40.94472902 178.95209534 46.12997889 173.75771815 51.31430089 C167.86157266 57.19927774 161.96825623 63.08708412 156.0751847 68.9751389 C145.99835966 79.04328971 135.91941994 89.10931933 125.83811951 99.17298889 C121.89049747 103.11374745 117.94323763 107.05485406 114 111 C97 128 97 128 94.4375 130.5 C92.10616559 132.89111221 90.07604215 135.38820503 88 138 C85.875 140.3125 85.875 140.3125 84 142 C83.34 142 82.68 142 82 142 C82 142.66 82 143.32 82 144 C81.34 144 80.68 144 80 144 C80 144.66 80 145.32 80 146 C78.49609375 147.48046875 78.49609375 147.48046875 76.4375 149.1875 C72.41273068 152.60784283 68.69599489 156.23188814 65 160 C64.071875 160.9075 63.14375 161.815 62.1875 162.75 C59.87122524 164.99568449 59.87122524 164.99568449 58 168 C57.34 168 56.68 168 56 168 C56 168.66 56 169.32 56 170 C55.34 170 54.68 170 54 170 C54 170.66 54 171.32 54 172 C52.125 174.125 52.125 174.125 50 176 C49.34 176 48.68 176 48 176 C48 176.66 48 177.32 48 178 C47.34 178 46.68 178 46 178 C46 178.66 46 179.32 46 180 C43.92469224 181.84471801 42.20501474 182.93166175 39.5625 183.8125 C35.93679926 185.49270278 34.43576504 187.84008859 32 191 C29.66666667 193.33333333 27.33333333 195.66666667 25 198 C23.700625 199.36125 23.700625 199.36125 22.375 200.75 C20 203 20 203 17 204 C17 204.99 17 205.98 17 207 C16.34 207 15.68 207 15 207 C15 207.66 15 208.32 15 209 C14.01 209 13.02 209 12 209 C11.01 210.98 11.01 210.98 10 213 C9.34 213 8.68 213 8 213 C7.67 213.99 7.34 214.98 7 216 C6.34 216 5.68 216 5 216 C4.01 217.98 4.01 217.98 3 220 C2.01 220 1.02 220 0 220 C0 147.4 0 74.8 0 0 Z " fill="#E97941" transform="translate(0,0)"/>
<path d="M0 0 C0 74.25 0 148.5 0 225 C-5.80160354 220.16533038 -10.80591023 215.35820132 -15.5703125 209.55078125 C-17.11481807 207.75318225 -17.11481807 207.75318225 -20 206 C-20 205.34 -20 204.68 -20 204 C-20.66 204 -21.32 204 -22 204 C-23.4307642 202.54978943 -23.4307642 202.54978943 -25.09913635 200.53295898 C-28.99578417 195.95445027 -33.15408796 191.71199245 -37.41381836 187.47265625 C-38.62967117 186.2565844 -38.62967117 186.2565844 -39.87008667 185.01594543 C-42.52430646 182.36241698 -45.18204039 179.71243867 -47.83984375 177.0625 C-49.69093836 175.21327234 -51.54181092 173.36382237 -53.39247131 171.51416016 C-57.74993542 167.15978976 -62.10993965 162.8079722 -66.47088867 158.45709229 C-71.44030278 153.49890056 -76.4068383 148.53782961 -81.37314785 143.57652855 C-91.57892453 133.38117181 -101.78826679 123.1893906 -112 113 C-111.1875 111.0625 -111.1875 111.0625 -110 109 C-108.515 108.505 -108.515 108.505 -107 108 C-106.31367119 106.67668032 -105.65048685 105.34130126 -105 104 C-103.65651399 102.47746325 -102.25429518 101.00603257 -100.81797791 99.57073975 C-99.94160172 98.69016907 -99.06522552 97.80959839 -98.16229248 96.90234375 C-97.18893912 95.93447341 -96.21548606 94.96670332 -95.24194336 93.99902344 C-94.21823087 92.97423779 -93.19495155 91.94901928 -92.17207336 90.92340088 C-89.3957877 88.14227067 -86.61329698 85.3674259 -83.82951808 82.59379864 C-80.9198911 79.6929535 -78.01553568 76.7868393 -75.11048889 73.88140869 C-70.23388222 69.00573828 -65.35341888 64.13395568 -60.47045898 59.26464844 C-54.81737479 53.62731135 -49.16955607 47.98474285 -43.52470678 42.33916068 C-38.100215 36.91405966 -32.67287688 31.49181611 -27.24392891 26.07117462 C-24.93015674 23.76094155 -22.61724357 21.44985341 -20.30497551 19.13811493 C-17.58642823 16.42056849 -14.86535816 13.70557369 -12.14227104 10.9925766 C-11.14042126 9.99365952 -10.1394281 8.99388249 -9.13933182 7.99320984 C-7.78021086 6.63360186 -6.41772541 5.27735957 -5.05503845 3.92132568 C-4.29162612 3.1595892 -3.52821379 2.39785271 -2.74166775 1.61303329 C-1 -0 -1 -0 0 0 Z " fill="#FEFEFD" transform="translate(225,0)"/>
<path d="M0 0 C36.96 0 73.92 0 112 0 C109.97441262 4.05117476 108.47973456 5.32328111 105 8 C104.67 8.66 104.34 9.32 104 10 C103.34 10 102.68 10 102 10 C102 10.66 102 11.32 102 12 C101.34 12 100.68 12 100 12 C100 12.66 100 13.32 100 14 C98.55929711 15.17266514 97.11640944 16.3427963 95.66015625 17.49609375 C93.87820162 19.110335 92.61070841 20.77189554 91.25 22.75 C89 26 89 26 87 27 C86.55011719 27.75539063 86.10023437 28.51078125 85.63671875 29.2890625 C81.53672197 36.07998796 74.77427146 41.35477378 68.7265625 46.39453125 C66.89926248 47.99112696 66.89926248 47.99112696 65.3984375 50.19921875 C64.93695313 50.79347656 64.47546875 51.38773438 64 52 C63.34 52 62.68 52 62 52 C62 52.66 62 53.32 62 54 C61.01 54.66 60.02 55.32 59 56 C57.98133771 57.65532623 56.98189187 59.32260138 56 61 C54.5 62.8125 54.5 62.8125 53 64 C52.01 64 51.02 64 50 64 C50 64.66 50 65.32 50 66 C49.34 66 48.68 66 48 66 C47.92007813 66.73605469 47.84015625 67.47210938 47.7578125 68.23046875 C46.82147853 71.65243155 45.46084847 72.91511167 42.875 75.3125 C39.83275373 78.21448372 36.92957236 81.12432043 34.1875 84.3125 C29.09653465 90.2029703 29.09653465 90.2029703 27 92 C26.01 92 25.02 92 24 92 C24 92.66 24 93.32 24 94 C23.34 94 22.68 94 22 94 C22 94.66 22 95.32 22 96 C21.34 96 20.68 96 20 96 C20 96.66 20 97.32 20 98 C19.34 98 18.68 98 18 98 C18 98.66 18 99.32 18 100 C17.34 100 16.68 100 16 100 C16 100.66 16 101.32 16 102 C15.34 102 14.68 102 14 102 C13.34 103.32 12.68 104.64 12 106 C11.34 106 10.68 106 10 106 C9.90589844 106.59296875 9.81179688 107.1859375 9.71484375 107.796875 C8.84054781 110.49142641 7.73279682 111.46322756 5.5625 113.25 C4.63630859 114.03117187 4.63630859 114.03117187 3.69140625 114.828125 C2 116 2 116 0 116 C0 77.72 0 39.44 0 0 Z " fill="#2689D9" transform="translate(0,0)"/>
<path d="M0 0 C6.02264504 4.99521346 11.55567255 10.39451302 17.08984375 15.921875 C18.04383848 16.87265042 18.99790571 17.82335309 19.95204163 18.77398682 C21.93634839 20.75234764 23.91862043 22.73272151 25.8996582 24.71435547 C28.44234504 27.2571448 30.99189539 29.79293373 33.54317379 32.32709885 C35.50847175 34.2813145 37.46924465 36.24002138 39.42874336 38.20005035 C40.82396033 39.59351156 42.22371656 40.98242297 43.6235199 42.37127686 C44.46181839 43.21265198 45.30011688 44.0540271 46.16381836 44.92089844 C46.90659531 45.66225037 47.64937225 46.40360229 48.41465759 47.16741943 C50 49 50 49 50 51 C50.66 51 51.32 51 52 51 C54.5765427 53.37313144 56.84443183 55.80067829 59 58.5625 C60.90858759 61.0758266 60.90858759 61.0758266 63.4375 62.875 C66.69011835 65.57229327 68.64365154 68.49913944 71 72 C68.125 72.1875 68.125 72.1875 65 72 C63 69 63 69 63 66 C62.67 65.34 62.34 64.68 62 64 C59.6859378 63.26924352 57.35171131 62.59861742 55 62 C55 60.02 55 58.04 55 56 C52.36 55.67 49.72 55.34 47 55 C47 52.66666667 47 50.33333333 47 48 C44.36 47.67 41.72 47.34 39 47 C38.938125 46.05125 38.87625 45.1025 38.8125 44.125 C38.544375 43.09375 38.27625 42.0625 38 41 C35.52409924 39.60333803 33.83735815 39 31 39 C30.855625 38.05125 30.71125 37.1025 30.5625 36.125 C30.17064601 33.1065506 30.17064601 33.1065506 29 31 C27.02 31 25.04 31 23 31 C22.938125 30.05125 22.87625 29.1025 22.8125 28.125 C22.544375 27.09375 22.27625 26.0625 22 25 C19.52409924 23.60333803 17.83735815 23 15 23 C14.34 22.34 13.68 21.68 13 21 C11.68252676 20.30251417 10.35085807 19.63040043 9 19 C9 18.01 9 17.02 9 16 C8.34 15.67 7.68 15.34 7 15 C6.40644386 12.35139573 6.25790731 9.70802678 6 7 C3.69 7 1.38 7 -1 7 C-1.04254356 5.00045254 -1.04080783 2.99958364 -1 1 C-0.67 0.67 -0.34 0.34 0 0 Z " fill="#8776DB" transform="translate(153,153)"/>
<path d="M0 0 C2.64 0 5.28 0 8 0 C3.75288085 5.0697744 -0.684155 9.82792196 -5.36645508 14.49584961 C-6.0777356 15.20888245 -6.78901611 15.92191528 -7.52185059 16.65655518 C-9.8519173 18.99099093 -12.18558384 21.32178837 -14.51953125 23.65234375 C-16.14538447 25.27887098 -17.77108924 26.9055466 -19.39665222 28.53236389 C-22.79170221 31.92888376 -26.18854368 35.32359894 -29.58666992 38.71704102 C-33.9528052 43.07745209 -38.31439942 47.44237365 -42.67468739 51.80863094 C-46.02445983 55.16200495 -49.37659548 58.51300841 -52.72946739 61.86328316 C-54.33984575 63.47299253 -55.94947637 65.08345029 -57.55835915 66.69465446 C-59.79667619 68.93549432 -62.03814442 71.17313219 -64.28051758 73.40991211 C-64.95009995 74.08151871 -65.61968231 74.75312531 -66.30955505 75.44508362 C-70.88573232 80 -70.88573232 80 -72 80 C-72 77.36 -72 74.72 -72 72 C-68.535 71.505 -68.535 71.505 -65 71 C-64.67 68.69 -64.34 66.38 -64 64 C-63.071875 63.938125 -62.14375 63.87625 -61.1875 63.8125 C-57.83826261 63.30098918 -57.83826261 63.30098918 -56.0625 60.5625 C-55.5365625 59.2940625 -55.5365625 59.2940625 -55 58 C-55.33 57.34 -55.66 56.68 -56 56 C-55.071875 56.103125 -54.14375 56.20625 -53.1875 56.3125 C-52.135625 56.209375 -51.08375 56.10625 -50 56 C-47.68858396 53.14925356 -47 51.6860549 -47 48 C-44.525 47.505 -44.525 47.505 -42 47 C-41.34 44.69 -40.68 42.38 -40 40 C-38.02 40 -36.04 40 -34 40 C-33.608125 38.88625 -33.21625 37.7725 -32.8125 36.625 C-31.60088681 33.75174586 -31.35557163 33.17344958 -28.4375 31.75 C-27.633125 31.5025 -26.82875 31.255 -26 31 C-25.34 30.01 -24.68 29.02 -24 28 C-23.34 28 -22.68 28 -22 28 C-22.66 26.68 -23.32 25.36 -24 24 C-23.01 24 -22.02 24 -21 24 C-20.525625 23.360625 -20.05125 22.72125 -19.5625 22.0625 C-17.77509389 19.70312394 -16.86332753 19.39494173 -14 19 C-14.66 18.67 -15.32 18.34 -16 18 C-15.67 17.34 -15.34 16.68 -15 16 C-14.21625 15.896875 -13.4325 15.79375 -12.625 15.6875 C-9.77993029 15.2286127 -9.77993029 15.2286127 -8.125 12.5625 C-7.568125 11.2940625 -7.568125 11.2940625 -7 10 C-7.495 9.01 -7.495 9.01 -8 8 C-7.071875 8.103125 -6.14375 8.20625 -5.1875 8.3125 C-1.84240093 8.36010613 -1.84240093 8.36010613 -0.0625 5.6875 C1.34608472 2.96680208 1.34608472 2.96680208 0 0 Z " fill="#EF8819" transform="translate(216,0)"/>
<path d="M0 0 C0.66 0.33 1.32 0.66 2 1 C1.67 1.99 1.34 2.98 1 4 C0.34 4 -0.32 4 -1 4 C-1.04898437 4.62648438 -1.09796875 5.25296875 -1.1484375 5.8984375 C-1.22320313 6.71570313 -1.29796875 7.53296875 -1.375 8.375 C-1.44460937 9.18710938 -1.51421875 9.99921875 -1.5859375 10.8359375 C-2 13 -2 13 -4 15 C-4.33 14.34 -4.66 13.68 -5 13 C-7.57939515 15.50774529 -9.9764106 17.96967077 -12.1875 20.8125 C-12.785625 21.534375 -13.38375 22.25625 -14 23 C-14.66 23 -15.32 23 -16 23 C-16.268125 23.639375 -16.53625 24.27875 -16.8125 24.9375 C-18 27 -18 27 -21 28 C-22.66710346 29.49985609 -22.66710346 29.49985609 -24 31 C-24.5625 27.9375 -24.5625 27.9375 -24 24 C-21.8360095 21.89182671 -19.57467562 20.25815519 -17.06640625 18.578125 C-14.71817171 17.09122196 -14.71817171 17.09122196 -14 14 C-12.0625 11.8125 -12.0625 11.8125 -10 10 C-9.34 10 -8.68 10 -8 10 C-8 9.34 -8 8.68 -8 8 C-7.34 8 -6.68 8 -6 8 C-6 7.34 -6 6.68 -6 6 C-5.34 6 -4.68 6 -4 6 C-4 5.34 -4 4.68 -4 4 C-3.34 4 -2.68 4 -2 4 C-2 3.34 -2 2.68 -2 2 C-1.34 2 -0.68 2 0 2 C0 1.34 0 0.68 0 0 Z " fill="#D7706D" transform="translate(24,92)"/>
<path d="M0 0 C0.99 0.33 1.98 0.66 3 1 C2.21625 1.763125 1.4325 2.52625 0.625 3.3125 C-2.07257717 5.90891805 -2.07257717 5.90891805 -4 9 C-4.66 9 -5.32 9 -6 9 C-6 9.66 -6 10.32 -6 11 C-6.66 11 -7.32 11 -8 11 C-8 11.66 -8 12.32 -8 13 C-9.50390625 14.48046875 -9.50390625 14.48046875 -11.5625 16.1875 C-15.58726932 19.60784283 -19.30400511 23.23188814 -23 27 C-23.928125 27.9075 -24.85625 28.815 -25.8125 29.75 C-28.12877476 31.99568449 -28.12877476 31.99568449 -30 35 C-30.66 35 -31.32 35 -32 35 C-32 35.66 -32 36.32 -32 37 C-32.66 37 -33.32 37 -34 37 C-34 37.66 -34 38.32 -34 39 C-35.875 41.125 -35.875 41.125 -38 43 C-38.66 43 -39.32 43 -40 43 C-40 43.66 -40 44.32 -40 45 C-40.66 45 -41.32 45 -42 45 C-42 45.66 -42 46.32 -42 47 C-44.5 48.625 -44.5 48.625 -47 50 C-45 46 -45 46 -43 42 C-41.68 42 -40.36 42 -39 42 C-38.938125 41.4225 -38.87625 40.845 -38.8125 40.25 C-38 38 -38 38 -35.625 36.1875 C-32.71063628 34.11331293 -32.71063628 34.11331293 -31.5625 30.375 C-30 27 -30 27 -27.125 25.875 C-26.09375 25.58625 -25.0625 25.2975 -24 25 C-19.91835657 21.45541491 -16.50255287 17.19424817 -12.91796875 13.15234375 C-6.83034535 6.32081525 -6.83034535 6.32081525 -3.25 4.9375 C-2.5075 4.628125 -1.765 4.31875 -1 4 C-0.11306697 1.95894361 -0.11306697 1.95894361 0 0 Z " fill="#CC727C" transform="translate(88,133)"/>
<path d="M0 0 C5.80891746 4.81867247 11.13065552 10.01256408 16.4375 15.375 C17.26443359 16.20644531 18.09136719 17.03789062 18.94335938 17.89453125 C20.96455531 19.9274104 22.98336335 21.96259963 25 24 C22 24 19 24 16 24 C15.67 21.69 15.34 19.38 15 17 C14.21625 16.7525 13.4325 16.505 12.625 16.25 C9.57704392 14.79859234 9.27463336 14.00449293 8 11 C6.4587688 9.29078411 6.4587688 9.29078411 5 8 C4.01 8.33 3.02 8.66 2 9 C1.34 8.34 0.68 7.68 0 7 C0 6.01 0 5.02 0 4 C-3.01631166 5.98898125 -3.01631166 5.98898125 -4.875 9 C-6.5292526 11.94089351 -9.01218888 12.60145012 -12 14 C-12.33 14.66 -12.66 15.32 -13 16 C-13.66 15.67 -14.32 15.34 -15 15 C-13.37660195 13.29115995 -11.70680947 11.62553283 -10 10 C-9.34 10 -8.68 10 -8 10 C-7.79375 9.46375 -7.5875 8.9275 -7.375 8.375 C-5.42003056 4.9982346 -2.81776305 2.69525161 0 0 Z " fill="#7F6ED6" transform="translate(112,112)"/>
<path d="M0 0 C2 3 2 3 2 5 C0.68 4.67 -0.64 4.34 -2 4 C-2.144375 4.639375 -2.28875 5.27875 -2.4375 5.9375 C-3.1603098 8.5878026 -3.99653477 8.99653477 -6 11 C-7.1577506 14.47325181 -7.06866652 17.36067448 -7 21 C-7.556875 21.103125 -8.11375 21.20625 -8.6875 21.3125 C-11.124033 21.92051915 -11.124033 21.92051915 -13.4375 23.5625 C-16.25332378 25.14210846 -17.82961713 25.2717471 -21 25 C-21 24.34 -21 23.68 -21 23 C-20.34 23 -19.68 23 -19 23 C-18.89558594 22.15695313 -18.89558594 22.15695313 -18.7890625 21.296875 C-17.69414938 18.10970215 -15.81052724 16.56043974 -13.375 14.25 C-9.00026437 10.01334785 -4.95133462 5.62801578 -1 1 C-0.67 0.67 -0.34 0.34 0 0 Z " fill="#DF7458" transform="translate(44,73)"/>
<path d="M0 0 C2.475 0.495 2.475 0.495 5 1 C4.38722388 3.96175123 3.74627478 5.38058783 2 8 C1.34 8 0.68 8 0 8 C0 8.66 0 9.32 0 10 C-0.66 10 -1.32 10 -2 10 C-2.24105469 10.56847656 -2.48210938 11.13695313 -2.73046875 11.72265625 C-4.24968088 14.44788908 -6.07418981 16.26690339 -8.3125 18.4375 C-9.11171875 19.21867187 -9.9109375 19.99984375 -10.734375 20.8046875 C-11.85585938 21.89136719 -11.85585938 21.89136719 -13 23 C-14.02317737 24.0184839 -15.04459587 25.03874585 -16.0625 26.0625 C-16.701875 26.701875 -17.34125 27.34125 -18 28 C-18 26.68 -18 25.36 -18 24 C-17.01 24 -16.02 24 -15 24 C-15 23.236875 -15 22.47375 -15 21.6875 C-15 16 -15 16 -12.6875 13.375 C-10 11 -10 11 -7 10 C-7.33 9.34 -7.66 8.68 -8 8 C-5.03 8.495 -5.03 8.495 -2 9 C-2 8.34 -2 7.68 -2 7 C-1.01 7 -0.02 7 1 7 C1.15149298 3.37114676 1.15149298 3.37114676 0 0 Z " fill="#1390CE" transform="translate(50,56)"/>
<path d="M0 0 C0.66 0.33 1.32 0.66 2 1 C0.71284028 2.64936048 -0.57987019 4.29439047 -1.875 5.9375 C-2.59429687 6.85402344 -3.31359375 7.77054688 -4.0546875 8.71484375 C-6 11 -6 11 -8 12 C-8.43957031 12.74636719 -8.87914063 13.49273437 -9.33203125 14.26171875 C-11.14923356 17.24499467 -13.18569064 19.38320685 -15.6875 21.8125 C-16.49574219 22.60269531 -17.30398437 23.39289062 -18.13671875 24.20703125 C-18.75160156 24.79871094 -19.36648437 25.39039062 -20 26 C-20 22.61976483 -19.12544378 20.16531063 -18 17 C-17.34 17 -16.68 17 -16 17 C-14.05997008 10.55201154 -14.05997008 10.55201154 -15 4 C-14.01 3.67 -13.02 3.34 -12 3 C-11.34 4.98 -10.68 6.96 -10 9 C-9.67 8.34 -9.34 7.68 -9 7 C-8.34 7 -7.68 7 -7 7 C-6.67 5.68 -6.34 4.36 -6 3 C-5.01 3 -4.02 3 -3 3 C-1.31201173 1.56249809 -1.31201173 1.56249809 0 0 Z " fill="#7570D5" transform="translate(95,15)"/>
<path d="M0 0 C0.99 0.33 1.98 0.66 3 1 C1.88200014 2.33920838 0.75538103 3.67122556 -0.375 5 C-1.00148437 5.7425 -1.62796875 6.485 -2.2734375 7.25 C-2.84320313 7.8275 -3.41296875 8.405 -4 9 C-4.66 9 -5.32 9 -6 9 C-6 9.66 -6 10.32 -6 11 C-6.66 11 -7.32 11 -8 11 C-8 11.66 -8 12.32 -8 13 C-8.66 13 -9.32 13 -10 13 C-10 13.66 -10 14.32 -10 15 C-10.66 15 -11.32 15 -12 15 C-12.66 16.32 -13.32 17.64 -14 19 C-14.66 19 -15.32 19 -16 19 C-16 19.66 -16 20.32 -16 21 C-16.66 21 -17.32 21 -18 21 C-18 21.66 -18 22.32 -18 23 C-18.66 23 -19.32 23 -20 23 C-20 23.66 -20 24.32 -20 25 C-20.66 25 -21.32 25 -22 25 C-22 25.66 -22 26.32 -22 27 C-22.66 27 -23.32 27 -24 27 C-24 27.66 -24 28.32 -24 29 C-24.66 29 -25.32 29 -26 29 C-26 29.66 -26 30.32 -26 31 C-26.66 31 -27.32 31 -28 31 C-28 31.66 -28 32.32 -28 33 C-28.66 33 -29.32 33 -30 33 C-30 33.66 -30 34.32 -30 35 C-31.53125 36.5078125 -31.53125 36.5078125 -33.5 38.125 C-34.1496875 38.66382813 -34.799375 39.20265625 -35.46875 39.7578125 C-35.9740625 40.16773438 -36.479375 40.57765625 -37 41 C-37.33 39.68 -37.66 38.36 -38 37 C-37.4225 36.773125 -36.845 36.54625 -36.25 36.3125 C-33.41025155 34.65598007 -31.98500033 32.60531294 -30 30 C-27.9375 27.6875 -27.9375 27.6875 -26 26 C-25.01 26 -24.02 26 -23 26 C-23 25.34 -23 24.68 -23 24 C-22.34 24 -21.68 24 -21 24 C-21 23.01 -21 22.02 -21 21 C-17.66666667 18 -17.66666667 18 -15 18 C-14.773125 17.443125 -14.54625 16.88625 -14.3125 16.3125 C-12.9970617 13.994823 -11.49105261 12.40080249 -9.57421875 10.5703125 C-6.20867891 7.21312388 -3.13527631 3.57094745 0 0 Z " fill="#9F6ABC" transform="translate(38,183)"/>
<path d="M0 0 C0.66 0 1.32 0 2 0 C1.33333333 1.33333333 0.66666667 2.66666667 0 4 C-0.6496875 5.546875 -0.6496875 5.546875 -1.3125 7.125 C-3 10 -3 10 -5.1640625 10.71875 C-9.42600664 12.64425644 -11.98188938 15.92523879 -15.0625 19.375 C-16.28203452 20.71661648 -17.50207291 22.05777515 -18.72265625 23.3984375 C-19.29161621 24.02427734 -19.86057617 24.65011719 -20.44677734 25.29492188 C-24.17658936 29.38939015 -24.17658936 29.38939015 -26 31 C-28.25 30.75 -28.25 30.75 -30 30 C-29.38125 29.7525 -28.7625 29.505 -28.125 29.25 C-25.64931313 27.79371361 -25.04874998 26.62187494 -24 24 C-23.34 24 -22.68 24 -22 24 C-22 23.34 -22 22.68 -22 22 C-21.34 22 -20.68 22 -20 22 C-20 21.34 -20 20.68 -20 20 C-19.34 20 -18.68 20 -18 20 C-18 19.34 -18 18.68 -18 18 C-17.34 18 -16.68 18 -16 18 C-16 17.34 -16 16.68 -16 16 C-15.34 16 -14.68 16 -14 16 C-14 15.34 -14 14.68 -14 14 C-13.34 14 -12.68 14 -12 14 C-12 13.34 -12 12.68 -12 12 C-11.34 12 -10.68 12 -10 12 C-10 11.34 -10 10.68 -10 10 C-9.34 10 -8.68 10 -8 10 C-8 9.34 -8 8.68 -8 8 C-6.125 5.875 -6.125 5.875 -4 4 C-3.34 4 -2.68 4 -2 4 C-2 3.34 -2 2.68 -2 2 C-1.34 2 -0.68 2 0 2 C0 1.34 0 0.68 0 0 Z " fill="#3086CF" transform="translate(30,194)"/>
<path d="M0 0 C0.33 1.32 0.66 2.64 1 4 C0.34 4 -0.32 4 -1 4 C-1 4.66 -1 5.32 -1 6 C-1.66 6 -2.32 6 -3 6 C-3.66 7.32 -4.32 8.64 -5 10 C-5.66 10 -6.32 10 -7 10 C-7.09410156 10.59296875 -7.18820312 11.1859375 -7.28515625 11.796875 C-8.15945219 14.49142641 -9.26720318 15.46322756 -11.4375 17.25 C-12.05496094 17.77078125 -12.67242188 18.2915625 -13.30859375 18.828125 C-15 20 -15 20 -17 20 C-17.25 14.375 -17.25 14.375 -15 11 C-13.68 11.33 -12.36 11.66 -11 12 C-9.35173889 9.03312999 -8.55728913 6.34373475 -8 3 C-7.67 3.99 -7.34 4.98 -7 6 C-6.34 6 -5.68 6 -5 6 C-4.731875 5.38125 -4.46375 4.7625 -4.1875 4.125 C-3 2 -3 2 0 0 Z " fill="#0F92D2" transform="translate(17,96)"/>
<path d="M0 0 C3.3 0 6.6 0 10 0 C7.97441262 4.05117476 6.47973456 5.32328111 3 8 C2.67 8.66 2.34 9.32 2 10 C1.34 10 0.68 10 0 10 C0 10.66 0 11.32 0 12 C-0.66 12 -1.32 12 -2 12 C-2 12.66 -2 13.32 -2 14 C-2.99 14.33 -3.98 14.66 -5 15 C-5.625 12.6875 -5.625 12.6875 -6 10 C-5.34 9.01 -4.68 8.02 -4 7 C-3.34 7.33 -2.68 7.66 -2 8 C-2 8.66 -2 9.32 -2 10 C-1.34 9.34 -0.68 8.68 0 8 C0 7.01 0 6.02 0 5 C-0.66 4.67 -1.32 4.34 -2 4 C-2 3.34 -2 2.68 -2 2 C-1.34 2 -0.68 2 0 2 C0 1.34 0 0.68 0 0 Z " fill="#8C6FC5" transform="translate(102,0)"/>
<path d="M0 0 C0 3 0 3 -1.49609375 4.71875 C-2.13675781 5.3065625 -2.77742188 5.894375 -3.4375 6.5 C-5.92139791 8.78819687 -6.90880131 9.72640392 -8 13 C-7.01 13 -6.02 13 -5 13 C-4.67 13.99 -4.34 14.98 -4 16 C-5.65 17.32 -7.3 18.64 -9 20 C-9.33 19.34 -9.66 18.68 -10 18 C-10.66 18 -11.32 18 -12 18 C-11.34 19.32 -10.68 20.64 -10 22 C-10.99 21.67 -11.98 21.34 -13 21 C-13.33 20.34 -13.66 19.68 -14 19 C-14.66 18.67 -15.32 18.34 -16 18 C-14.625 15.5 -14.625 15.5 -13 13 C-12.34 13 -11.68 13 -11 13 C-11 12.34 -11 11.68 -11 11 C-10.34 11 -9.68 11 -9 11 C-8.74476562 10.41734375 -8.48953125 9.8346875 -8.2265625 9.234375 C-6.88258913 6.78611777 -5.38189704 5.18256752 -3.375 3.25 C-2.74335937 2.63640625 -2.11171875 2.0228125 -1.4609375 1.390625 C-0.73777344 0.70226563 -0.73777344 0.70226563 0 0 Z " fill="#D17F49" transform="translate(73,41)"/>
<path d="M0 0 C1.98 0 3.96 0 6 0 C5.40632048 3.53832993 4.06937798 5.4154022 1.6875 8.0625 C1.09324219 8.73410156 0.49898437 9.40570313 -0.11328125 10.09765625 C-1.97326157 11.97304014 -3.79787662 13.54251215 -6 15 C-6.66 15 -7.32 15 -8 15 C-7.50505051 8.44191919 -7.50505051 8.44191919 -5 6.25 C-4.34 5.8375 -3.68 5.425 -3 5 C-2.67 4.01 -2.34 3.02 -2 2 C-1.34 2 -0.68 2 0 2 C0 1.34 0 0.68 0 0 Z " fill="#E97F2F" transform="translate(120,96)"/>
<path d="M0 0 C0.66 0.33 1.32 0.66 2 1 C1.071875 2.299375 1.071875 2.299375 0.125 3.625 C-1.84654784 6.75628186 -2.98966991 9.46384469 -4 13 C-4.66 13 -5.32 13 -6 13 C-6.268125 13.639375 -6.53625 14.27875 -6.8125 14.9375 C-8 17 -8 17 -11 18 C-12.66710346 19.49985609 -12.66710346 19.49985609 -14 21 C-14.5625 17.9375 -14.5625 17.9375 -14 14 C-11.8360095 11.89182671 -9.57467562 10.25815519 -7.06640625 8.578125 C-4.71817171 7.09122196 -4.71817171 7.09122196 -4 4 C-2.70644173 2.62804426 -1.37701298 1.28817344 0 0 Z " fill="#D16A7F" transform="translate(14,102)"/>
<path d="M0 0 C0.66 0 1.32 0 2 0 C1.649375 0.9075 1.29875 1.815 0.9375 2.75 C0.03531221 5.87758436 -0.13381507 7.05208081 1 10 C0.21625 10.103125 -0.5675 10.20625 -1.375 10.3125 C-4.33045181 10.77595022 -4.33045181 10.77595022 -6 14 C-6 14.99 -6 15.98 -6 17 C-6.66 17 -7.32 17 -8 17 C-8 16.34 -8 15.68 -8 15 C-8.99 15 -9.98 15 -11 15 C-10.42704553 11.46936161 -9.22229897 9.91099482 -6.625 7.5 C-4.59219459 5.56696418 -2.86709356 3.82126375 -1.1875 1.5625 C-0.795625 1.046875 -0.40375 0.53125 0 0 Z " fill="#EC802C" transform="translate(76,39)"/>
<path d="M0 0 C5.66129431 4.69766975 10.85228904 9.74723372 16 15 C12.79937313 16.60031344 10.27728194 15.03173691 7 14 C6.67 12.02 6.34 10.04 6 8 C3.69 7.67 1.38 7.34 -1 7 C-0.67 4.69 -0.34 2.38 0 0 Z " fill="#816FD8" transform="translate(137,137)"/>
<path d="M0 0 C1.98 0 3.96 0 6 0 C4.34136495 4.32504836 1.128959 7.09418825 -2.125 10.25 C-2.68832031 10.80429688 -3.25164062 11.35859375 -3.83203125 11.9296875 C-5.21686028 13.29104485 -6.60783204 14.64614859 -8 16 C-8.87840996 12.90279155 -8.99435406 11.09354597 -8 8 C-7.21625 7.938125 -6.4325 7.87625 -5.625 7.8125 C-4.75875 7.544375 -3.8925 7.27625 -3 7 C-1.67518454 4.60470331 -1.67518454 4.60470331 -1 2 C-0.67 1.34 -0.34 0.68 0 0 Z " fill="#E98523" transform="translate(137,80)"/>
<path d="M0 0 C0 0.66 0 1.32 0 2 C0.66 2 1.32 2 2 2 C1.67 4.31 1.34 6.62 1 9 C-4.625 11.125 -4.625 11.125 -8 10 C-6.83833955 5.74057835 -5.25202969 0 0 0 Z " fill="#F0841F" transform="translate(87,30)"/>
<path d="M0 0 C0.45842179 3.53366794 0.18346888 4.7506425 -1.96875 7.67578125 C-2.8040625 8.54589844 -3.639375 9.41601562 -4.5 10.3125 C-5.3353125 11.19550781 -6.170625 12.07851563 -7.03125 12.98828125 C-7.6809375 13.65214844 -8.330625 14.31601562 -9 15 C-9.33 14.01 -9.66 13.02 -10 12 C-9.34 12 -8.68 12 -8 12 C-8.33 10.68 -8.66 9.36 -9 8 C-8.34 8 -7.68 8 -7 8 C-7.103125 7.236875 -7.20625 6.47375 -7.3125 5.6875 C-7.209375 4.800625 -7.10625 3.91375 -7 3 C-4.6167054 1.18116991 -3.04181663 0 0 0 Z " fill="#507ECA" transform="translate(77,32)"/>
<path d="M0 0 C2.31 0.33 4.62 0.66 7 1 C5.22570002 3.14783681 4.35636313 3.93603739 1.5625 4.4375 C-1.66204194 5.14532628 -2.78588742 6.63319 -5 9 C-5.66 9 -6.32 9 -7 9 C-7.33 11.64 -7.66 14.28 -8 17 C-8.66 17 -9.32 17 -10 17 C-10.8125 14.375 -10.8125 14.375 -11 11 C-8.14366166 6.71549249 -5.50985563 4.50547535 -1 2 C-0.67 1.34 -0.34 0.68 0 0 Z " fill="#EE871D" transform="translate(102,13)"/>
<path d="M0 0 C5.06873851 2.07357484 7.26847601 4.27236232 10 9 C7.08517222 9.80967438 5.53886783 10.21845993 2.6875 9.0625 C2.130625 8.711875 1.57375 8.36125 1 8 C1 7.01 1 6.02 1 5 C0.34 4.67 -0.32 4.34 -1 4 C-0.67 2.68 -0.34 1.36 0 0 Z " fill="#7F6DE1" transform="translate(161,164)"/>
<path d="M0 0 C0.99 0.33 1.98 0.66 3 1 C1.625 3 1.625 3 0 5 C-0.66 5 -1.32 5 -2 5 C-2 5.66 -2 6.32 -2 7 C-2.66 7 -3.32 7 -4 7 C-4 7.66 -4 8.32 -4 9 C-5.875 11.125 -5.875 11.125 -8 13 C-8.66 13 -9.32 13 -10 13 C-10 13.66 -10 14.32 -10 15 C-10.66 15 -11.32 15 -12 15 C-12 15.66 -12 16.32 -12 17 C-14.5 18.625 -14.5 18.625 -17 20 C-15.66666667 17.33333333 -14.33333333 14.66666667 -13 12 C-11.68 12 -10.36 12 -9 12 C-8.938125 11.4225 -8.87625 10.845 -8.8125 10.25 C-7.6812921 7.11742429 -5.62052199 5.96539149 -3 4 C-2.67 3.34 -2.34 2.68 -2 2 C-1.34 2 -0.68 2 0 2 C0 1.34 0 0.68 0 0 Z " fill="#BF6D94" transform="translate(58,163)"/>
<path d="M0 0 C0 0.66 0 1.32 0 2 C-0.66 2 -1.32 2 -2 2 C-2 2.66 -2 3.32 -2 4 C-2.99 4.66 -3.98 5.32 -5 6 C-5.474375 6.804375 -5.94875 7.60875 -6.4375 8.4375 C-8.03370228 11.05527174 -9.46225774 12.33734128 -12 14 C-11.690625 13.401875 -11.38125 12.80375 -11.0625 12.1875 C-9.89790296 9.91043228 -9.89790296 9.91043228 -9 7 C-9.99 6.67 -10.98 6.34 -12 6 C-10.68 6 -9.36 6 -8 6 C-8 4.68 -8 3.36 -8 2 C-4.91190305 0.23537317 -3.76687864 0 0 0 Z " fill="#3A88B9" transform="translate(64,50)"/>
<path d="M0 0 C0.66 0.33 1.32 0.66 2 1 C1.67 1.99 1.34 2.98 1 4 C0.34 4 -0.32 4 -1 4 C-0.938125 5.423125 -0.938125 5.423125 -0.875 6.875 C-1 10 -1 10 -3 12 C-3.66 11.34 -4.32 10.68 -5 10 C-5.99 10 -6.98 10 -8 10 C-8 9.34 -8 8.68 -8 8 C-7.34 8 -6.68 8 -6 8 C-6 7.34 -6 6.68 -6 6 C-5.34 6 -4.68 6 -4 6 C-4 5.34 -4 4.68 -4 4 C-3.34 4 -2.68 4 -2 4 C-2 3.34 -2 2.68 -2 2 C-1.34 2 -0.68 2 0 2 C0 1.34 0 0.68 0 0 Z " fill="#AF7A83" transform="translate(24,92)"/>
<path d="M0 0 C0.66 0.33 1.32 0.66 2 1 C1.360625 1.928125 0.72125 2.85625 0.0625 3.8125 C-2.08622093 6.84219943 -2.08622093 6.84219943 -3 10 C-4.6635479 10.67441131 -6.33066942 11.3400321 -8 12 C-9.35251497 13.31387169 -10.68945377 14.64426252 -12 16 C-12.66 16 -13.32 16 -14 16 C-14 15.34 -14 14.68 -14 14 C-11.76948111 12.12996901 -9.42301608 10.46143418 -7.06640625 8.75390625 C-4.74102935 7.08749655 -4.74102935 7.08749655 -4 4 C-2.70644173 2.62804426 -1.37701298 1.28817344 0 0 Z " fill="#7F7DA0" transform="translate(14,102)"/>
<path d="M0 0 C0.66 0.99 1.32 1.98 2 3 C3.32 2.01 4.64 1.02 6 0 C4.46356148 3.68069887 2.21849055 5.98775204 -0.625 8.75 C-1.85089844 9.94882812 -1.85089844 9.94882812 -3.1015625 11.171875 C-3.72804688 11.77515625 -4.35453125 12.3784375 -5 13 C-5 9.61976483 -4.12544378 7.16531063 -3 4 C-2.34 4 -1.68 4 -1 4 C-0.67 2.68 -0.34 1.36 0 0 Z " fill="#8B7AA3" transform="translate(80,28)"/>
<path d="M0 0 C0 3.59857954 -0.95830515 5.09451118 -3 8 C-3.66 8 -4.32 8 -5 8 C-5.2475 8.639375 -5.495 9.27875 -5.75 9.9375 C-7 12 -7 12 -9.125 12.75 C-10.053125 12.87375 -10.053125 12.87375 -11 13 C-10.34 11.68 -9.68 10.36 -9 9 C-8.34 9 -7.68 9 -7 9 C-7 8.34 -7 7.68 -7 7 C-6.34 7 -5.68 7 -5 7 C-5 6.34 -5 5.68 -5 5 C-4.34 5 -3.68 5 -3 5 C-2.690625 4.360625 -2.38125 3.72125 -2.0625 3.0625 C-1 1 -1 1 0 0 Z " fill="#D68054" transform="translate(107,5)"/>
<path d="M0 0 C0 3 0 3 -1.875 4.9375 C-2.57625 5.618125 -3.2775 6.29875 -4 7 C-4.433125 8.0209375 -4.433125 8.0209375 -4.875 9.0625 C-6.5447898 11.93824909 -9.05419107 12.62111071 -12 14 C-12.33 14.66 -12.66 15.32 -13 16 C-13.66 15.67 -14.32 15.34 -15 15 C-13.37660195 13.29115995 -11.70680947 11.62553283 -10 10 C-9.34 10 -8.68 10 -8 10 C-7.79375 9.46375 -7.5875 8.9275 -7.375 8.375 C-5.42003056 4.9982346 -2.81776305 2.69525161 0 0 Z " fill="#A373A5" transform="translate(112,112)"/>
<path d="M0 0 C1.32 0.66 2.64 1.32 4 2 C2.52307692 6.67692308 2.52307692 6.67692308 -0.125 8.3125 C-1.053125 8.6528125 -1.053125 8.6528125 -2 9 C-2.25 3.375 -2.25 3.375 0 0 Z " fill="#0893D3" transform="translate(2,107)"/>
<path d="M0 0 C0 3.32058331 -0.43061972 5.08543662 -2 8 C-4.375 9.1875 -4.375 9.1875 -7 10 C-8.34098912 10.6511301 -9.6758044 11.3153627 -11 12 C-7.49102731 7.81576108 -3.91939465 3.80411834 0 0 Z " fill="#F9E5D9" transform="translate(129,95)"/>
<path d="M0 0 C0.66 0.33 1.32 0.66 2 1 C-0.64 4.3 -3.28 7.6 -6 11 C-6.92538169 7.29847322 -7.08174162 6.36541838 -6 3 C-5.01 3 -4.02 3 -3 3 C-1.31201173 1.56249809 -1.31201173 1.56249809 0 0 Z " fill="#8570CA" transform="translate(95,15)"/>
<path d="M0 0 C0.33 0.66 0.66 1.32 1 2 C0.67 2.66 0.34 3.32 0 4 C-0.66 4 -1.32 4 -2 4 C-2 4.66 -2 5.32 -2 6 C-3.53125 7.5078125 -3.53125 7.5078125 -5.5 9.125 C-6.1496875 9.66382813 -6.799375 10.20265625 -7.46875 10.7578125 C-7.9740625 11.16773438 -8.479375 11.57765625 -9 12 C-9.33 10.68 -9.66 9.36 -10 8 C-9.13375 7.6596875 -9.13375 7.6596875 -8.25 7.3125 C-5.43572387 5.67083893 -3.97262267 3.56440947 -2 1 C-1.34 0.67 -0.68 0.34 0 0 Z " fill="#AA64C3" transform="translate(10,212)"/>
<path d="M0 0 C0.66 0.33 1.32 0.66 2 1 C0.8553125 2.36125 0.8553125 2.36125 -0.3125 3.75 C-2.28483107 6.114556 -4.18262034 8.51305942 -6 11 C-7.32 10.67 -8.64 10.34 -10 10 C-6.7 6.7 -3.4 3.4 0 0 Z " fill="#8077BB" transform="translate(78,146)"/>
<path d="M0 0 C-0.33 0.99 -0.66 1.98 -1 3 C-1.66 3 -2.32 3 -3 3 C-3 4.32 -3 5.64 -3 7 C-4.98 7 -6.96 7 -9 7 C-7.16766277 2.5718517 -4.96404317 0 0 0 Z " fill="#0497D4" transform="translate(43,67)"/>
<path d="M0 0 C0.66 0.33 1.32 0.66 2 1 C1.25 3.9375 1.25 3.9375 0 7 C-2.125 7.875 -2.125 7.875 -4 8 C-4 9.32 -4 10.64 -4 12 C-4.99 11.67 -5.98 11.34 -7 11 C-4.84921278 7.14341602 -2.76544722 3.45680903 0 0 Z " fill="#F2881D" transform="translate(112,0)"/>
<path d="M0 0 C0.99 0.33 1.98 0.66 3 1 C3.6875 3.0625 3.6875 3.0625 4 5 C3.34 5 2.68 5 2 5 C1.67 6.65 1.34 8.3 1 10 C-1 7 -1 7 -1 3 C-0.67 2.01 -0.34 1.02 0 0 Z " fill="#3E82DA" transform="translate(65,39)"/>
<path d="M0 0 C0.66 0 1.32 0 2 0 C2 0.66 2 1.32 2 2 C3.65 1.34 5.3 0.68 7 0 C7 2.64 7 5.28 7 8 C1.125 3.375 1.125 3.375 0 0 Z " fill="#F0EDF9" transform="translate(218,217)"/>
<path d="M0 0 C7.48291572 6.15034169 7.48291572 6.15034169 10 10 C6.21388773 9.45912682 4.44599233 7.88277668 2 5 C2 4.34 2 3.68 2 3 C1.34 3 0.68 3 0 3 C0 2.01 0 1.02 0 0 Z " fill="#8475D1" transform="translate(157,157)"/>
<path d="M0 0 C0.66 0.33 1.32 0.66 2 1 C1.67 1.99 1.34 2.98 1 4 C0.34 4 -0.32 4 -1 4 C-0.34 6.31 0.32 8.62 1 11 C0.01 10.67 -0.98 10.34 -2 10 C-2.33 9.34 -2.66 8.68 -3 8 C-3.66 7.67 -4.32 7.34 -5 7 C-3.625 4.5 -3.625 4.5 -2 2 C-1.34 2 -0.68 2 0 2 C0 1.34 0 0.68 0 0 Z " fill="#BA815A" transform="translate(62,52)"/>
<path d="M0 0 C0 1.65 0 3.3 0 5 C-1.65 5.33 -3.3 5.66 -5 6 C-5.66 5.01 -6.32 4.02 -7 3 C-2.25 0 -2.25 0 0 0 Z " fill="#5379DB" transform="translate(77,32)"/>
<path d="M0 0 C0.66 0 1.32 0 2 0 C2.144375 1.11375 2.28875 2.2275 2.4375 3.375 C2.78372035 6.82142047 2.78372035 6.82142047 4 9 C2.68 9.33 1.36 9.66 0 10 C-0.19412181 8.52168779 -0.38012131 7.04230684 -0.5625 5.5625 C-0.66691406 4.73878906 -0.77132812 3.91507813 -0.87890625 3.06640625 C-0.91886719 2.38449219 -0.95882812 1.70257812 -1 1 C-0.67 0.67 -0.34 0.34 0 0 Z " fill="#7072E1" transform="translate(81,18)"/>
<path d="M0 0 C3.36720387 1.39332574 4.9859524 2.9789286 7 6 C4.125 6.1875 4.125 6.1875 1 6 C0.34 5.01 -0.32 4.02 -1 3 C-0.67 2.01 -0.34 1.02 0 0 Z " fill="#7E6CDC" transform="translate(217,219)"/>
<path d="M0 0 C0.99 0.33 1.98 0.66 3 1 C1.33333333 2.66666667 -0.33333333 4.33333333 -2 6 C-2.721875 6.763125 -3.44375 7.52625 -4.1875 8.3125 C-6 10 -6 10 -8 10 C-7.3125 8.125 -7.3125 8.125 -6 6 C-5.154375 5.67 -4.30875 5.34 -3.4375 5 C-2.633125 4.67 -1.82875 4.34 -1 4 C-0.11306697 1.95894361 -0.11306697 1.95894361 0 0 Z " fill="#CF7769" transform="translate(88,133)"/>
<path d="M0 0 C2 3 2 3 2 5 C0.68 4.67 -0.64 4.34 -2 4 C-2.33 5.32 -2.66 6.64 -3 8 C-4.32 8.33 -5.64 8.66 -7 9 C-5.44499019 5.18315774 -2.96404505 2.80804268 0 0 Z " fill="#D47E57" transform="translate(44,73)"/>
<path d="M0 0 C0.66 0 1.32 0 2 0 C1.46930939 3.82097239 0.50298434 6.06171403 -2 9 C-2.99 8.67 -3.98 8.34 -5 8 C-4.34 7.34 -3.68 6.68 -3 6 C-2.3574765 3.93125966 -2.3574765 3.93125966 -2 2 C-1.34 2 -0.68 2 0 2 C0 1.34 0 0.68 0 0 Z " fill="#B58266" transform="translate(50,64)"/>
<path d="M0 0 C0.99 0.33 1.98 0.66 3 1 C1.88121617 2.17262904 0.75476949 3.33795138 -0.375 4.5 C-1.00148438 5.1496875 -1.62796875 5.799375 -2.2734375 6.46875 C-4 8 -4 8 -6 8 C-4.55746343 4.63408134 -2.66735273 2.48952921 0 0 Z " fill="#BD67A3" transform="translate(38,183)"/>
<path d="M0 0 C0 2.66666667 0 5.33333333 0 8 C-1.65 8 -3.3 8 -5 8 C-5 7.34 -5 6.68 -5 6 C-4.34 6 -3.68 6 -3 6 C-2.87625 5.38125 -2.7525 4.7625 -2.625 4.125 C-2 2 -2 2 0 0 Z " fill="#D67560" transform="translate(28,90)"/>
<path d="M0 0 C2.31 0.33 4.62 0.66 7 1 C5.02579865 3.52259061 4.03254358 3.9929808 0.8125 4.6875 C-0.5796875 4.8421875 -0.5796875 4.8421875 -2 5 C-1.34 3.35 -0.68 1.7 0 0 Z " fill="#F5880D" transform="translate(102,13)"/>
<path d="M0 0 C0.99 0.33 1.98 0.66 3 1 C2.34 1 1.68 1 1 1 C1 1.66 1 2.32 1 3 C0.34 3 -0.32 3 -1 3 C-1 3.66 -1 4.32 -1 5 C-1.66 5 -2.32 5 -3 5 C-3 5.66 -3 6.32 -3 7 C-4.32 7.33 -5.64 7.66 -7 8 C-6.21366078 6.85050412 -5.42073742 5.70551011 -4.625 4.5625 C-4.18414063 3.92441406 -3.74328125 3.28632813 -3.2890625 2.62890625 C-2 1 -2 1 0 0 Z " fill="#AC69B0" transform="translate(31,191)"/>
<path d="M0 0 C0.99 0.33 1.98 0.66 3 1 C2.75 2.875 2.75 2.875 2 5 C-0.0625 6.25 -0.0625 6.25 -2 7 C-1.125 1.125 -1.125 1.125 0 0 Z " fill="#198FC6" transform="translate(7,105)"/>
<path d="M0 0 C0.99 0.33 1.98 0.66 3 1 C-0.465 3.97 -0.465 3.97 -4 7 C-4.99 6.01 -5.98 5.02 -7 4 C-5.824375 3.8453125 -5.824375 3.8453125 -4.625 3.6875 C-1.66954819 3.22404978 -1.66954819 3.22404978 0 0 Z " fill="#EB8924" transform="translate(153,68)"/>
<path d="M0 0 C1.32 0 2.64 0 4 0 C4 0.66 4 1.32 4 2 C3.34 2 2.68 2 2 2 C2 2.66 2 3.32 2 4 C0.02 4.99 0.02 4.99 -2 6 C-1.125 1.125 -1.125 1.125 0 0 Z " fill="#3287CA" transform="translate(60,50)"/>
<path d="M0 0 C2.64 0 5.28 0 8 0 C7.01 1.485 7.01 1.485 6 3 C3.375 3.1875 3.375 3.1875 1 3 C0.67 2.01 0.34 1.02 0 0 Z " fill="#F38713" transform="translate(216,0)"/>
<path d="M0 0 C0.99 0.33 1.98 0.66 3 1 C2.67 2.32 2.34 3.64 2 5 C0.35 4.67 -1.3 4.34 -3 4 C-2.01 2.68 -1.02 1.36 0 0 Z " fill="#FAEFE4" transform="translate(133,91)"/>
<path d="M0 0 C1.65 0 3.3 0 5 0 C3.35 1.65 1.7 3.3 0 5 C-0.66 4.67 -1.32 4.34 -2 4 C-2 3.34 -2 2.68 -2 2 C-1.34 2 -0.68 2 0 2 C0 1.34 0 0.68 0 0 Z " fill="#806FDF" transform="translate(102,0)"/>
<path d="M0 0 C0.66 0.33 1.32 0.66 2 1 C0.37660195 2.70884005 -1.29319053 4.37446717 -3 6 C-3.66 6 -4.32 6 -5 6 C-5 5.01 -5 4.02 -5 3 C-4.34 3 -3.68 3 -3 3 C-3 2.34 -3 1.68 -3 1 C-2.01 0.67 -1.02 0.34 0 0 Z " fill="#1F8BCF" transform="translate(15,211)"/>
<path d="M0 0 C0.66 0.33 1.32 0.66 2 1 C1.67 1.66 1.34 2.32 1 3 C0.64386903 4.66194453 0.30791692 6.328451 0 8 C-0.66 7.67 -1.32 7.34 -2 7 C-2.125 4.625 -2.125 4.625 -2 2 C-1.34 1.34 -0.68 0.68 0 0 Z " fill="#7E6FE0" transform="translate(98,7)"/>
<path d="M0 0 C0.99 0.33 1.98 0.66 3 1 C-0.465 3.97 -0.465 3.97 -4 7 C-2.92598892 4.08482708 -2.22189824 2.22189824 0 0 Z " fill="#4581C9" transform="translate(37,187)"/>
</svg>
