<?xml version="1.0" encoding="UTF-8"?>
<svg version="1.1" xmlns="http://www.w3.org/2000/svg" width="214" height="235">
<path d="M0 0 C0.97775391 -0.020625 1.95550781 -0.04125 2.96289062 -0.0625 C10.39584181 -0.10232827 16.30542919 0.61621318 22.1875 5.5625 C33.52449822 19.10391454 36.54941296 38.94021987 35.4375 56.25 C34.19453428 68.96492799 29.32955125 84.53466801 20 93.625 C14.82022086 96.90973799 10.11474541 97.49801815 4.05517578 97.47705078 C2.98584557 97.47748886 2.98584557 97.47748886 1.89491272 97.47793579 C-0.44258132 97.47655138 -2.77974969 97.4610326 -5.1171875 97.4453125 C-6.74528835 97.4415792 -8.37339146 97.43873372 -10.00149536 97.43673706 C-14.27256548 97.42912556 -18.54349811 97.40949856 -22.81451416 97.3873291 C-27.17840719 97.36681703 -31.54232258 97.3577239 -35.90625 97.34765625 C-44.4583962 97.32625018 -53.01043097 97.29214442 -61.5625 97.25 C-61.2325 98.57 -60.9025 99.89 -60.5625 101.25 C-58.63216919 101.23428955 -58.63216919 101.23428955 -56.6628418 101.21826172 C-51.89382706 101.18209456 -47.12482448 101.15911146 -42.35571289 101.14013672 C-40.290588 101.13007165 -38.22547737 101.11641846 -36.16040039 101.09912109 C-33.19413736 101.07489507 -30.22806256 101.06352203 -27.26171875 101.0546875 C-26.3366301 101.04436493 -25.41154144 101.03404236 -24.4584198 101.02340698 C-23.59775406 101.02325592 -22.73708832 101.02310486 -21.8503418 101.02294922 C-21.09311325 101.018508 -20.3358847 101.01406677 -19.55570984 101.00949097 C-17.5625 101.25 -17.5625 101.25 -14.5625 103.25 C-14.26611328 105.38549805 -14.26611328 105.38549805 -14.3828125 108.01171875 C-14.4240625 108.96626953 -14.4653125 109.92082031 -14.5078125 110.90429688 C-14.56710938 111.90525391 -14.62640625 112.90621094 -14.6875 113.9375 C-14.72359375 114.91912109 -14.7596875 115.90074219 -14.796875 116.91210938 C-15.2410912 125.62692976 -17.05141278 131.61048526 -23.5625 137.6875 C-31.88872175 144.19236074 -45.16688032 147.81320926 -55.5625 148.25 C-57.28533203 148.34474609 -57.28533203 148.34474609 -59.04296875 148.44140625 C-74.13764868 149.01151219 -91.44591214 145.81572726 -103.5625 136.25 C-103.5625 135.59 -103.5625 134.93 -103.5625 134.25 C-104.2225 134.25 -104.8825 134.25 -105.5625 134.25 C-110.48553417 126.30962231 -110.72696031 119.47431361 -110.765625 110.26171875 C-110.77132507 109.2039473 -110.77702515 108.14617584 -110.78289795 107.05635071 C-110.79232178 104.82314038 -110.7988715 102.58991632 -110.80273438 100.35668945 C-110.81243703 96.95954886 -110.84348475 93.56301438 -110.875 90.16601562 C-110.88153128 87.9895869 -110.88678126 85.81315388 -110.890625 83.63671875 C-110.9029718 82.63017746 -110.9153186 81.62363617 -110.92803955 80.58659363 C-110.89809011 70.99659074 -108.97364421 63.94327481 -102.33203125 56.91015625 C-97.37702184 52.26141674 -92.83765704 51.13812338 -86.21826172 51.09228516 C-85.1496994 51.08202301 -84.08113708 51.07176086 -82.98019409 51.06118774 C-81.25363083 51.05023575 -81.25363083 51.05023575 -79.4921875 51.0390625 C-77.04426427 51.01098348 -74.59634769 50.98231896 -72.1484375 50.953125 C-68.29752869 50.91195977 -64.44674281 50.87506344 -60.59570312 50.84863281 C-56.87343773 50.82088328 -53.15173373 50.7750008 -49.4296875 50.7265625 C-47.72134232 50.7216832 -47.72134232 50.7216832 -45.97848511 50.71670532 C-36.56920603 50.5733655 -27.88899336 49.26322688 -20.38671875 43.19140625 C-14.07488781 36.47410437 -11.39199714 28.60411499 -11.5 19.546875 C-11.51160156 17.95359375 -11.51160156 17.95359375 -11.5234375 16.328125 C-11.54277344 14.68070313 -11.54277344 14.68070313 -11.5625 13 C-11.58787801 10.80733956 -11.6089555 8.6146236 -11.625 6.421875 C-11.63660156 5.4534668 -11.64820313 4.48505859 -11.66015625 3.48730469 C-11.42311218 -1.94337506 -4.14883296 0.02128971 0 0 Z M-42.5625 117.25 C-44.89763137 120.15177184 -44.89763137 120.15177184 -44.5625 123.875 C-43.4928714 127.80785941 -43.4928714 127.80785941 -40.5625 130.25 C-37.69612718 131.33892339 -37.69612718 131.33892339 -34.5625 131.25 C-31.61131284 129.88926358 -31.61131284 129.88926358 -29.5625 127.25 C-28.31964105 123.80125329 -28.31964105 123.80125329 -28.5625 120.25 C-30.64836439 116.94738138 -32.27024573 116.34033314 -36 115.1875 C-39.66922687 114.931137 -39.66922687 114.931137 -42.5625 117.25 Z " fill="#FDDE5B" transform="translate(159.5625,48.75)"/>
<path d="M0 0 C1.53207848 -0.00929787 1.53207848 -0.00929787 3.09510803 -0.01878357 C5.2387701 -0.02583539 7.38248748 -0.02278972 9.52612305 -0.01000977 C12.77431692 0.00385997 16.01962619 -0.03029264 19.26757812 -0.06835938 C33.41336273 -0.12133221 44.14509295 0.74789594 55.12890625 10.52734375 C61.07696733 17.58390712 61.44208784 23.11680938 61.37890625 32.1484375 C61.38273315 33.35779465 61.38656006 34.56715179 61.39050293 35.81315613 C61.39321859 38.36576166 61.38588184 40.91839519 61.36914062 43.47094727 C61.34778427 47.35562035 61.3689276 51.2384321 61.39453125 55.12304688 C61.39188682 57.61068113 61.38675948 60.09831424 61.37890625 62.5859375 C61.38700317 63.73729691 61.3951001 64.88865631 61.40344238 66.0749054 C61.30604635 74.55501189 59.97980564 81.77485698 54.47265625 88.44140625 C48.84110244 93.00028315 44.71838561 95.67566924 37.41748047 95.72412109 C35.7496199 95.73951431 35.7496199 95.73951431 34.04806519 95.75521851 C32.24343307 95.7661705 32.24343307 95.7661705 30.40234375 95.77734375 C27.85546243 95.80542241 25.30858752 95.83408694 22.76171875 95.86328125 C18.74609428 95.90446714 14.73059588 95.94239221 10.71484375 95.96777344 C6.83959195 95.99548111 2.96488411 96.0413654 -0.91015625 96.08984375 C-2.10109894 96.09309662 -3.29204163 96.09634949 -4.51907349 96.09970093 C-14.67026572 96.24841548 -21.58294092 97.73548174 -29.15234375 104.56640625 C-29.81234375 104.56640625 -30.47234375 104.56640625 -31.15234375 104.56640625 C-31.43948242 105.14720947 -31.72662109 105.7280127 -32.02246094 106.32641602 C-32.71744916 107.70422866 -33.43709521 109.07031511 -34.19628906 110.41381836 C-37.84655102 117.44634617 -37.81461664 124.33315644 -37.90234375 132.12890625 C-37.94681641 134.07120117 -37.94681641 134.07120117 -37.9921875 136.05273438 C-38.06240045 139.22401918 -38.11533975 142.39458937 -38.15234375 145.56640625 C-47.93656197 147.65796398 -59.33618648 148.4722395 -68.14453125 143.09765625 C-77.36259188 136.06753997 -81.53107694 124.81468439 -83.15234375 113.56640625 C-83.5336722 108.23148872 -83.64085071 102.91216111 -83.65234375 97.56640625 C-83.65502258 96.83262756 -83.65770142 96.09884888 -83.66046143 95.34283447 C-83.64998305 82.12381925 -82.5647319 69.90669954 -74.02734375 59.19140625 C-67.86662946 53.56640625 -67.86662946 53.56640625 -64.15234375 53.56640625 C-63.82234375 52.90640625 -63.49234375 52.24640625 -63.15234375 51.56640625 C-55.55744962 48.8380387 -47.6739226 49.31223494 -39.71484375 49.37109375 C-38.22412303 49.37482978 -36.73339984 49.37767396 -35.24267578 49.37966919 C-31.34317087 49.38725922 -27.44381794 49.40686721 -23.54437256 49.42907715 C-19.55564428 49.44963603 -15.56689114 49.45869226 -11.578125 49.46875 C-3.76946241 49.49011808 4.03907552 49.52419719 11.84765625 49.56640625 C12.17765625 48.24640625 12.50765625 46.92640625 12.84765625 45.56640625 C12.27580597 45.56862686 11.70395569 45.57084747 11.11477661 45.57313538 C5.17792382 45.59521108 -0.75891737 45.61032245 -6.69580078 45.62133789 C-8.91325351 45.62637534 -11.13070291 45.63320547 -13.34814453 45.6418457 C-16.5302818 45.65393697 -19.71237526 45.65964035 -22.89453125 45.6640625 C-23.89040253 45.66922379 -24.8862738 45.67438507 -25.912323 45.67970276 C-27.29352829 45.67981606 -27.29352829 45.67981606 -28.70263672 45.67993164 C-29.51538055 45.68215225 -30.32812439 45.68437286 -31.16549683 45.68666077 C-33.15234375 45.56640625 -33.15234375 45.56640625 -35.15234375 44.56640625 C-35.15234375 43.90640625 -35.15234375 43.24640625 -35.15234375 42.56640625 C-34.49234375 42.56640625 -33.83234375 42.56640625 -33.15234375 42.56640625 C-33.48234375 41.57640625 -33.81234375 40.58640625 -34.15234375 39.56640625 C-34.27623315 36.67949504 -34.34217805 33.82834936 -34.33984375 30.94140625 C-34.34048828 30.13268066 -34.34113281 29.32395508 -34.34179688 28.49072266 C-34.29241902 22.91888023 -33.74248086 17.93311898 -32.15234375 12.56640625 C-31.49234375 12.56640625 -30.83234375 12.56640625 -30.15234375 12.56640625 C-29.94609375 11.98890625 -29.73984375 11.41140625 -29.52734375 10.81640625 C-23.85427635 1.53320505 -9.8168317 -0.05095662 0 0 Z M-20.15234375 20.56640625 C-20.78242068 24.55689346 -20.78256262 26.58326482 -18.58984375 30.00390625 C-15.21016571 32.17036653 -13.09250388 32.12928627 -9.15234375 31.56640625 C-6.24517302 29.34777596 -5.31252732 28.04695696 -4.15234375 24.56640625 C-5.99800963 19.20763249 -5.99800963 19.20763249 -10.15234375 15.56640625 C-15.14688999 14.64635826 -17.22580312 16.63648026 -20.15234375 20.56640625 Z " fill="#3E7AAA" transform="translate(83.15234375,-0.56640625)"/>
<path d="M0 0 C-2.37161557 2.5402865 -3.62564718 3.88301474 -7 4.9375 C-10.69213295 6.24513042 -12.01116325 7.65875427 -14 11 C-13.75243555 13.07361988 -13.75243555 13.07361988 -13 15 C-13.30271961 16.34061543 -13.63837971 17.67405895 -14 19 C-14.03786901 20.66623639 -14.04627845 22.33397597 -14 24 C-14.2475 23.4225 -14.495 22.845 -14.75 22.25 C-16.26466783 19.5235979 -17.46404752 17.85055992 -20 16 C-23.62649951 15.91083846 -23.62649951 15.91083846 -27 17 C-29.29633824 20.44450737 -29.54016485 22.93812283 -30 27 C-29.34 27.33 -28.68 27.66 -28 28 C-27.34 28.66 -26.68 29.32 -26 30 C-22.306493 30.20146402 -19.52059568 30.17353189 -16 29 C-14.79117904 26.99983534 -14.79117904 26.99983534 -14 25 C-13.67 25.99 -13.34 26.98 -13 28 C-13.66 28 -14.32 28 -15 28 C-14.67 28.99 -14.34 29.98 -14 31 C-22.261959 34.62870159 -22.261959 34.62870159 -27 33 C-27 32.34 -27 31.68 -27 31 C-28.3921875 31.5259375 -28.3921875 31.5259375 -29.8125 32.0625 C-33 33 -33 33 -36 32 C-37.64826111 34.96687001 -38.44271087 37.65626525 -39 41 C-38.34 41.33 -37.68 41.66 -37 42 C-39.3125 43.5625 -39.3125 43.5625 -42 45 C-42.99 44.67 -43.98 44.34 -45 44 C-45 43.34 -45 42.68 -45 42 C-44.34 42 -43.68 42 -43 42 C-43.495 40.515 -43.495 40.515 -44 39 C-44.1238894 36.11308879 -44.1898343 33.26194311 -44.1875 30.375 C-44.18814453 29.56627441 -44.18878906 28.75754883 -44.18945312 27.92431641 C-44.14007527 22.35247398 -43.59013711 17.36671273 -42 12 C-41.34 12 -40.68 12 -40 12 C-39.79375 11.4225 -39.5875 10.845 -39.375 10.25 C-37.47812529 7.14602321 -35.13824276 5.66519004 -32 4 C-31.30648437 3.62359375 -30.61296875 3.2471875 -29.8984375 2.859375 C-20.45607639 -1.39718144 -10.12286178 -0.36651498 0 0 Z " fill="#639AC4" transform="translate(93,0)"/>
<path d="M0 0 C0.97775391 -0.020625 1.95550781 -0.04125 2.96289062 -0.0625 C10.39584181 -0.10232827 16.30542919 0.61621318 22.1875 5.5625 C33.47292187 19.04230946 36.64492786 38.99261647 35.4375 56.25 C34.64374921 62.09266045 33.53001989 67.71976886 31.4375 73.25 C30.4475 73.25 29.4575 73.25 28.4375 73.25 C28.89044454 69.0980084 29.43196892 65.16230899 30.5 61.125 C32.68992503 51.64622003 31.94234115 40.81781721 30.4375 31.25 C30.1075 30.92 29.7775 30.59 29.4375 30.25 C29.36570036 28.73071962 29.35357993 27.20832518 29.375 25.6875 C29.38402344 24.86121094 29.39304687 24.03492187 29.40234375 23.18359375 C29.41394531 22.54550781 29.42554688 21.90742187 29.4375 21.25 C28.7775 21.25 28.1175 21.25 27.4375 21.25 C26.64326139 19.68880578 25.85222877 18.12598036 25.0625 16.5625 C24.62164062 15.69238281 24.18078125 14.82226562 23.7265625 13.92578125 C22.4375 11.25 22.4375 11.25 21.37890625 8.5 C20.62084594 6.17087358 20.62084594 6.17087358 18.75 4.9375 C12.76311857 3.15761633 7.00273764 4.63457235 1.0859375 6.0078125 C-2.01993952 6.29183075 -3.78868784 5.60185791 -6.5625 4.25 C-7.84676897 5.30950052 -7.84676897 5.30950052 -7.67602539 7.75024414 C-7.67078857 8.83426514 -7.66555176 9.91828613 -7.66015625 11.03515625 C-7.65693359 12.20498047 -7.65371094 13.37480469 -7.65039062 14.58007812 C-7.64201172 15.81177734 -7.63363281 17.04347656 -7.625 18.3125 C-7.62048828 19.54806641 -7.61597656 20.78363281 -7.61132812 22.05664062 C-7.59949608 25.12114117 -7.58301173 28.18554721 -7.5625 31.25 C-8.5525 31.25 -9.5425 31.25 -10.5625 31.25 C-10.43875 32.095625 -10.315 32.94125 -10.1875 33.8125 C-10.92345255 40.55873174 -16.41116418 44.34453123 -21.46899414 48.41845703 C-27.86767006 52.99521117 -33.04944902 53.35079336 -40.74609375 53.1796875 C-41.96402115 53.18582062 -43.18194855 53.19195374 -44.43678284 53.19827271 C-48.29227708 53.21111079 -52.14479159 53.17035255 -56 53.125 C-59.87948932 53.1115354 -63.75869369 53.10923004 -67.63819885 53.11599731 C-70.04329523 53.11677721 -72.44844301 53.10398884 -74.8533783 53.07614136 C-75.93873367 53.07018951 -77.02408905 53.06423767 -78.14233398 53.05810547 C-79.09510727 53.0472995 -80.04788055 53.03649353 -81.02952576 53.02536011 C-83.70334194 53.26249074 -85.23252792 53.98071156 -87.5625 55.25 C-90.359375 55.4453125 -90.359375 55.4453125 -93.3125 55.375 C-94.78976563 55.34792969 -94.78976563 55.34792969 -96.296875 55.3203125 C-97.04453125 55.29710937 -97.7921875 55.27390625 -98.5625 55.25 C-96.33730164 52.69102188 -94.87411568 51.8636054 -91.5625 51.25 C-89.78301815 51.15181885 -88.00040731 51.10462622 -86.21826172 51.09228516 C-85.1496994 51.08202301 -84.08113708 51.07176086 -82.98019409 51.06118774 C-81.25363083 51.05023575 -81.25363083 51.05023575 -79.4921875 51.0390625 C-77.04426427 51.01098348 -74.59634769 50.98231896 -72.1484375 50.953125 C-68.29752869 50.91195977 -64.44674281 50.87506344 -60.59570312 50.84863281 C-56.87343773 50.82088328 -53.15173373 50.7750008 -49.4296875 50.7265625 C-47.72134232 50.7216832 -47.72134232 50.7216832 -45.97848511 50.71670532 C-36.56920603 50.5733655 -27.88899336 49.26322688 -20.38671875 43.19140625 C-14.07488781 36.47410437 -11.39199714 28.60411499 -11.5 19.546875 C-11.51160156 17.95359375 -11.51160156 17.95359375 -11.5234375 16.328125 C-11.54277344 14.68070313 -11.54277344 14.68070313 -11.5625 13 C-11.58787801 10.80733956 -11.6089555 8.6146236 -11.625 6.421875 C-11.63660156 5.4534668 -11.64820313 4.48505859 -11.66015625 3.48730469 C-11.42311218 -1.94337506 -4.14883296 0.02128971 0 0 Z " fill="#F8EDA3" transform="translate(159.5625,48.75)"/>
<path d="M0 0 C1.32 0 2.64 0 4 0 C4.02917228 3.22914752 4.04685663 6.45826083 4.0625 9.6875 C4.07087891 10.59951172 4.07925781 11.51152344 4.08789062 12.45117188 C4.09272461 13.78051758 4.09272461 13.78051758 4.09765625 15.13671875 C4.10551147 16.35427856 4.10551147 16.35427856 4.11352539 17.59643555 C3.9929791 20.14864673 3.559949 22.51026137 3 25 C1.68 25.33 0.36 25.66 -1 26 C-0.938125 26.928125 -0.87625 27.85625 -0.8125 28.8125 C-1 32 -1 32 -2.265625 33.56640625 C-8.89462454 39.045782 -16.69055396 39.71880047 -25 40 C-24.67 39.01 -24.34 38.02 -24 37 C-23.34 37 -22.68 37 -22 37 C-22 36.34 -22 35.68 -22 35 C-22.66 35 -23.32 35 -24 35 C-23.9690625 33.824375 -23.9690625 33.824375 -23.9375 32.625 C-23.81315937 30.01885039 -23.81315937 30.01885039 -25 28 C-24.67 27.34 -24.34 26.68 -24 26 C-23.19175781 26.09539062 -22.38351563 26.19078125 -21.55078125 26.2890625 C-19.94783203 26.45535156 -19.94783203 26.45535156 -18.3125 26.625 C-17.25675781 26.74101562 -16.20101562 26.85703125 -15.11328125 26.9765625 C-11.86283654 27.0010326 -9.89769204 26.40852563 -7 25 C-6.972807 23.41676312 -6.95351694 21.83338938 -6.9375 20.25 C-6.92589844 19.36828125 -6.91429687 18.4865625 -6.90234375 17.578125 C-6.99173802 15.2181162 -7.33087179 13.25501476 -8 11 C-9.41433206 10.7763663 -10.83167618 10.57173524 -12.25 10.375 C-13.03890625 10.25898438 -13.8278125 10.14296875 -14.640625 10.0234375 C-17.35111684 9.99651208 -18.64981084 10.72779017 -21 12 C-21.99 12 -22.98 12 -24 12 C-24 15.96 -24 19.92 -24 24 C-24.66 24 -25.32 24 -26 24 C-26.05402274 21.89611431 -26.09280256 19.79183286 -26.125 17.6875 C-26.14820312 16.51574219 -26.17140625 15.34398437 -26.1953125 14.13671875 C-26 11 -26 11 -24 8 C-21.9765625 7.48828125 -21.9765625 7.48828125 -19.625 7.3125 C-18.85414062 7.24675781 -18.08328125 7.18101562 -17.2890625 7.11328125 C-15.19493105 7.00964676 -13.09669422 7 -11 7 C-11 7.66 -11 8.32 -11 9 C-7.37471432 9.20140476 -5.13498292 8.85776765 -2 7 C-2.185625 7.5775 -2.37125 8.155 -2.5625 8.75 C-3.04023546 11.20692525 -2.75729364 12.64397534 -2 15 C-1.01 15 -0.02 15 1 15 C1 14.34 1 13.68 1 13 C1.66 13 2.32 13 3 13 C3 11.68 3 10.36 3 9 C2.34 9 1.68 9 1 9 C1.33 6.36 1.66 3.72 2 1 C1.34 0.67 0.68 0.34 0 0 Z " fill="#F9D442" transform="translate(138,153)"/>
<path d="M0 0 C0.33 0.66 0.66 1.32 1 2 C2.65 2.33 4.3 2.66 6 3 C6 21.48 6 39.96 6 59 C5.34 58.01 4.68 57.02 4 56 C3.67 56.99 3.34 57.98 3 59 C2.34 59 1.68 59 1 59 C-0.31889127 55.0826582 -0.02908623 51.189044 0.12109375 47.12109375 C0.14470474 46.35378433 0.16831573 45.58647491 0.19264221 44.7959137 C0.26900273 42.34290788 0.35288972 39.89023391 0.4375 37.4375 C0.61704842 31.96864078 0.79016696 26.4996438 0.9430542 21.02996826 C0.99443317 19.19844272 1.04994413 17.36703422 1.10595703 15.53564453 C1.12384277 14.5661084 1.14172852 13.59657227 1.16015625 12.59765625 C1.17828369 11.78949463 1.19641113 10.98133301 1.21508789 10.14868164 C0.97108811 7.7111765 0.12316024 6.15355125 -1 4 C-0.625 1.75 -0.625 1.75 0 0 Z " fill="#2F638F" transform="translate(137,17)"/>
<path d="M0 0 C0.33 0.99 0.66 1.98 1 3 C-0.40445835 5.2636564 -2.1967913 7.0208685 -4 9 C-2.68 9 -1.36 9 0 9 C0.33 9 0.66 9 1 9 C0.67 11.97 0.34 14.94 0 18 C-0.66 18 -1.32 18 -2 18 C-2 18.66 -2 19.32 -2 20 C3.73848636 22.09944623 10.02478562 24.21936534 16 22 C17.36020151 20.03241727 17.36020151 20.03241727 18 18 C18.33 18.99 18.66 19.98 19 21 C18.34 21 17.68 21 17 21 C17.33 21.99 17.66 22.98 18 24 C9.738041 27.62870159 9.738041 27.62870159 5 26 C5 25.34 5 24.68 5 24 C3.6078125 24.5259375 3.6078125 24.5259375 2.1875 25.0625 C-1 26 -1 26 -4 25 C-5.64826111 27.96687001 -6.44271087 30.65626525 -7 34 C-6.34 34.33 -5.68 34.66 -5 35 C-7.3125 36.5625 -7.3125 36.5625 -10 38 C-10.99 37.67 -11.98 37.34 -13 37 C-13 36.34 -13 35.68 -13 35 C-12.01 35 -11.02 35 -10 35 C-10.05220703 33.20755859 -10.05220703 33.20755859 -10.10546875 31.37890625 C-10.43876317 15.11413849 -10.43876317 15.11413849 -7 8 C-6.525625 6.865625 -6.05125 5.73125 -5.5625 4.5625 C-3.91926649 1.86759704 -2.94221559 1.0145571 0 0 Z " fill="#4E89B8" transform="translate(61,7)"/>
<path d="M0 0 C0.66 0.33 1.32 0.66 2 1 C1.979375 1.928125 1.95875 2.85625 1.9375 3.8125 C1.84230396 7.02286011 1.84230396 7.02286011 3 10 C2.01 11.485 2.01 11.485 1 13 C0.67 12.67 0.34 12.34 0 12 C-0.165 13.258125 -0.33 14.51625 -0.5 15.8125 C-0.5928125 16.52019531 -0.685625 17.22789063 -0.78125 17.95703125 C-1.053233 20.15471706 -1.053233 20.15471706 -1 23 C1.475 23.99 1.475 23.99 4 25 C3.67 26.32 3.34 27.64 3 29 C1.68 29.33 0.36 29.66 -1 30 C-1 30.99 -1 31.98 -1 33 C0.485 32.505 0.485 32.505 2 32 C2.68707555 34.49064888 3 36.37886292 3 39 C3.20625 39.78375 3.4125 40.5675 3.625 41.375 C4 44 4 44 3 46.4375 C1.38715345 50.57041928 2.63928959 53.91786877 4 58 C2.5625 60.1875 2.5625 60.1875 1 62 C0.35035977 60.10546779 -0.29455115 58.20931351 -0.9375 56.3125 C-1.47697266 54.72888672 -1.47697266 54.72888672 -2.02734375 53.11328125 C-4.29643675 45.85036108 -4.25475346 38.72681273 -4.29516602 31.18286133 C-4.30662601 29.6983889 -4.32698209 28.21395571 -4.35668945 26.72973633 C-4.54978403 17.05882623 -3.85865579 9.06386144 0 0 Z " fill="#4582B2" transform="translate(4,68)"/>
<path d="M0 0 C0.66 0.33 1.32 0.66 2 1 C1.360625 1.825 0.72125 2.65 0.0625 3.5 C-1.73811789 6.13505058 -2.27421922 8.07749054 -2.5 11.25 C-2.665 12.4875 -2.83 13.725 -3 15 C-4.98 15.99 -4.98 15.99 -7 17 C-7.33 33.83 -7.66 50.66 -8 68 C-7.34 68 -6.68 68 -6 68 C-5.01 71.63 -4.02 75.26 -3 79 C-3.66 79 -4.32 79 -5 79 C-9.92303417 71.05962231 -10.16446031 64.22431361 -10.203125 55.01171875 C-10.20882507 53.9539473 -10.21452515 52.89617584 -10.22039795 51.80635071 C-10.22982178 49.57314038 -10.2363715 47.33991632 -10.24023438 45.10668945 C-10.24993703 41.70954886 -10.28098475 38.31301438 -10.3125 34.91601562 C-10.31903128 32.7395869 -10.32428126 30.56315388 -10.328125 28.38671875 C-10.3404718 27.38017746 -10.3528186 26.37363617 -10.36553955 25.33659363 C-10.33982612 17.10298915 -9.22337514 9.57142703 -3.3125 3.4375 C-2.68988281 2.77621094 -2.06726562 2.11492187 -1.42578125 1.43359375 C-0.95527344 0.96050781 -0.48476563 0.48742187 0 0 Z " fill="#F9EFB9" transform="translate(59,104)"/>
<path d="M0 0 C-1 3 -1 3 -3 4 C-4.7566923 4.09072287 -6.5168501 4.11754144 -8.27587891 4.11352539 C-9.92736435 4.11341209 -9.92736435 4.11341209 -11.61221313 4.11329651 C-12.80494843 4.10813522 -13.99768372 4.10297394 -15.2265625 4.09765625 C-16.44451508 4.0962413 -17.66246765 4.09482635 -18.91732788 4.09336853 C-22.8199099 4.08775639 -26.72243523 4.07520179 -30.625 4.0625 C-33.26562417 4.05748657 -35.90624924 4.05292339 -38.546875 4.04882812 C-45.03126945 4.03778301 -51.51563068 4.02103302 -58 4 C-58 3.67 -58 3.34 -58 3 C-47.605 2.505 -47.605 2.505 -37 2 C-37 1.34 -37 0.68 -37 0 C-36.505 0.144375 -36.01 0.28875 -35.5 0.4375 C-32.02247078 1.21994407 -28.54044877 1.58694764 -25 2 C-25 1.34 -25 0.68 -25 0 C-23.86820313 0.01160156 -22.73640625 0.02320312 -21.5703125 0.03515625 C-20.08854331 0.04453454 -18.60677235 0.0536347 -17.125 0.0625 C-16.37863281 0.07087891 -15.63226563 0.07925781 -14.86328125 0.08789062 C-9.42084437 0.11240611 -5.48054721 -0.91342453 0 0 Z " fill="#316590" transform="translate(129,90)"/>
<path d="M0 0 C0.33 0.66 0.66 1.32 1 2 C2.65 2.33 4.3 2.66 6 3 C5.67 11.91 5.34 20.82 5 30 C4.67 30 4.34 30 4 30 C3.67 38.25 3.34 46.5 3 55 C2.67 55 2.34 55 2 55 C1.855551 50.07451972 1.71322583 45.14898398 1.57275391 40.22338867 C1.52481585 38.55247394 1.4763267 36.88157492 1.42724609 35.21069336 C1.35624813 32.79024223 1.28717997 30.36974374 1.21875 27.94921875 C1.19578857 27.16537811 1.17282715 26.38153748 1.14916992 25.57394409 C1.00797939 20.4230111 1.00058326 15.29117923 1.17773438 10.13989258 C0.97400166 7.68698431 0.13117132 6.1607762 -1 4 C-0.625 1.75 -0.625 1.75 0 0 Z " fill="#336E9D" transform="translate(137,17)"/>
<path d="M0 0 C0.33 0 0.66 0 1 0 C1 8.91 1 17.82 1 27 C-8.87924014 28.97584803 -20.04510767 29.92746945 -28.9765625 24.5625 C-33.45270011 21.10602308 -36.89683532 17.66456473 -38 12 C-37.01 12 -36.02 12 -35 12 C-34.773125 12.928125 -34.54625 13.85625 -34.3125 14.8125 C-32.74799963 18.6120009 -31.72037133 19.39347602 -28 21 C-24.80604974 21.71401232 -24.80604974 21.71401232 -22 22 C-22 22.66 -22 23.32 -22 24 C-14.74 24.66 -7.48 25.32 0 26 C0 17.42 0 8.84 0 0 Z " fill="#85A4BB" transform="translate(44,118)"/>
<path d="M0 0 C0.66 0 1.32 0 2 0 C2 2.97 2 5.94 2 9 C2.66 9 3.32 9 4 9 C7 12.46153846 7 12.46153846 7 15 C6.195625 15.391875 5.39125 15.78375 4.5625 16.1875 C1.59877264 17.8525473 1.59877264 17.8525473 1.1875 21.6875 C1.125625 22.780625 1.06375 23.87375 1 25 C1.66 25.33 2.32 25.66 3 26 C0.6875 27.5625 0.6875 27.5625 -2 29 C-2.99 28.67 -3.98 28.34 -5 28 C-5 27.34 -5 26.68 -5 26 C-4.01 26 -3.02 26 -2 26 C-2.02320313 24.7934375 -2.04640625 23.586875 -2.0703125 22.34375 C-2.08908665 20.72917291 -2.10728507 19.11458906 -2.125 17.5 C-2.15013672 16.31277344 -2.15013672 16.31277344 -2.17578125 15.1015625 C-2.21989226 9.72001921 -1.50594058 5.17000073 0 0 Z " fill="#4486B8" transform="translate(53,16)"/>
<path d="M0 0 C0.66 0.33 1.32 0.66 2 1 C6.21558397 13.64675191 4.65198839 29.70545926 0 42 C-0.99 42 -1.98 42 -3 42 C-2.55295884 37.90212267 -2.03093163 34.01346551 -0.96875 30.03125 C0.39331403 24.02341982 0.21696497 18.06731898 0.125 11.9375 C0.11597656 10.78572266 0.10695312 9.63394531 0.09765625 8.44726562 C0.07428714 5.63128807 0.04152565 2.81575842 0 0 Z " fill="#F8E281" transform="translate(191,80)"/>
<path d="M0 0 C0.99 0.33 1.98 0.66 3 1 C2.34 2.32 1.68 3.64 1 5 C-9.89 5 -20.78 5 -32 5 C-32 4.34 -32 3.68 -32 3 C-32.99 2.67 -33.98 2.34 -35 2 C-33.46291382 1.96241577 -33.46291382 1.96241577 -31.89477539 1.92407227 C-28.10590324 1.83015516 -24.31722119 1.72989683 -20.52856445 1.62768555 C-18.88635697 1.58427703 -17.24410261 1.54260642 -15.60180664 1.50268555 C-13.24611255 1.4451256 -10.89065572 1.38139108 -8.53515625 1.31640625 C-7.79660904 1.29969376 -7.05806183 1.28298126 -6.2971344 1.26576233 C-2.85699373 1.46451987 -2.85699373 1.46451987 0 0 Z " fill="#3E81B4" transform="translate(85,49)"/>
<path d="M0 0 C0 0.66 0 1.32 0 2 C-1.32 2 -2.64 2 -4 2 C-4 2.66 -4 3.32 -4 4 C-5.0725 4.28875 -6.145 4.5775 -7.25 4.875 C-9.92008783 5.99384247 -10.85272269 6.74509696 -12.3203125 9.28515625 C-14.41243121 14.54644738 -16.03287038 19.65740754 -16.31640625 25.328125 C-16.35830078 26.12734375 -16.40019531 26.9265625 -16.44335938 27.75 C-16.48267578 28.575 -16.52199219 29.4 -16.5625 30.25 C-16.60568359 31.09046875 -16.64886719 31.9309375 -16.69335938 32.796875 C-16.79908543 34.86440671 -16.90001295 36.93218281 -17 39 C-19.58519592 35.12220612 -19.30087072 31.86888272 -19.25 27.375 C-19.24613281 26.56627441 -19.24226563 25.75754883 -19.23828125 24.92431641 C-19.15768754 19.36670848 -18.58556737 14.35128989 -17 9 C-16.34 9 -15.68 9 -15 9 C-14.79375 8.4225 -14.5875 7.845 -14.375 7.25 C-11.16743134 2.00125129 -5.91003654 0 0 0 Z " fill="#8AAFCA" transform="translate(68,3)"/>
<path d="M0 0 C0.87011719 0.00902344 1.74023438 0.01804688 2.63671875 0.02734375 C4.7579342 0.05065381 6.87900562 0.08651421 9 0.125 C9 0.455 9 0.785 9 1.125 C4.05 1.455 -0.9 1.785 -6 2.125 C-6 2.455 -6 2.785 -6 3.125 C-10.84241633 4.46083899 -14.93437617 5.37828119 -20 5.125 C-20.226875 5.681875 -20.45375 6.23875 -20.6875 6.8125 C-22.36430501 9.76687072 -24.57324352 11.75602343 -27 14.125 C-27.721875 15.053125 -28.44375 15.98125 -29.1875 16.9375 C-29.785625 17.659375 -30.38375 18.38125 -31 19.125 C-31.66 19.125 -32.32 19.125 -33 19.125 C-31.31966106 12.7091604 -27.75212835 7.57627701 -22 4.125 C-21.01 4.125 -20.02 4.125 -19 4.125 C-18.67 3.465 -18.34 2.805 -18 2.125 C-11.91263158 0.14660526 -6.36104174 -0.12702541 0 0 Z " fill="#AEC7DA" transform="translate(38,48.875)"/>
<path d="M0 0 C14.19 0 28.38 0 43 0 C39.88479851 2.07680099 38.99281284 2.27562654 35.421875 2.4140625 C34.06122925 2.47231201 34.06122925 2.47231201 32.6730957 2.53173828 C31.70847412 2.56251465 30.74385254 2.59329102 29.75 2.625 C28.76668701 2.66222168 27.78337402 2.69944336 26.77026367 2.73779297 C4.57110061 3.5237002 4.57110061 3.5237002 0 2 C0 1.34 0 0.68 0 0 Z " fill="#FBE47B" transform="translate(78,101)"/>
<path d="M0 0 C0 0.66 0 1.32 0 2 C-0.64257751 2.00808685 -1.28515503 2.01617371 -1.94720459 2.02450562 C-8.6306957 2.11051321 -15.31388892 2.2100154 -21.99707031 2.31738281 C-24.49181112 2.35568354 -26.98660736 2.39053446 -29.48144531 2.421875 C-33.06595685 2.46750124 -36.6500864 2.5255006 -40.234375 2.5859375 C-41.35116638 2.59748871 -42.46795776 2.60903992 -43.61859131 2.62094116 C-44.65936829 2.64081085 -45.70014526 2.66068054 -46.77246094 2.68115234 C-47.68735291 2.69447601 -48.60224487 2.70779968 -49.54486084 2.7215271 C-52.13895262 3.01576063 -53.72238857 3.7770974 -56 5 C-58.796875 5.1953125 -58.796875 5.1953125 -61.75 5.125 C-62.73484375 5.10695313 -63.7196875 5.08890625 -64.734375 5.0703125 C-65.85585937 5.03550781 -65.85585937 5.03550781 -67 5 C-64.7736254 2.43966921 -63.31207559 1.6167457 -60 1 C-58.19435606 0.88732045 -56.38533181 0.8241795 -54.57641602 0.79467773 C-53.49171524 0.77473251 -52.40701447 0.75478729 -51.28944397 0.73423767 C-50.12271652 0.71752518 -48.95598907 0.70081268 -47.75390625 0.68359375 C-45.94900978 0.6524221 -45.94900978 0.6524221 -44.10765076 0.62062073 C-40.25932527 0.55523947 -36.41093043 0.4963445 -32.5625 0.4375 C-29.97330033 0.39429543 -27.38410747 0.35068052 -24.79492188 0.30664062 C-20.04764393 0.22727735 -15.3003545 0.14921243 -10.55297852 0.07592773 C-9.12212669 0.0538047 -9.12212669 0.0538047 -7.66236877 0.03123474 C-5.10794824 0.00126644 -2.55456757 -0.00563075 0 0 Z " fill="#FEF1AE" transform="translate(128,99)"/>
<path d="M0 0 C0.66 0 1.32 0 2 0 C2 0.66 2 1.32 2 2 C2.66 2 3.32 2 4 2 C4 3.32 4 4.64 4 6 C6.31 6.33 8.62 6.66 11 7 C11 7.33 11 7.66 11 8 C9.88625 8.268125 8.7725 8.53625 7.625 8.8125 C3.78159049 9.65809019 3.78159049 9.65809019 2 13 C1.60612212 15.32387947 1.26513915 17.65793749 1 20 C1.66 20.33 2.32 20.66 3 21 C2.34 21.33 1.68 21.66 1 22 C-1.125 21.0625 -1.125 21.0625 -3 20 C-3 19.34 -3 18.68 -3 18 C-2.34 18 -1.68 18 -1 18 C-1 15.36 -1 12.72 -1 10 C-2.32 10.33 -3.64 10.66 -5 11 C-5.33 10.01 -5.66 9.02 -6 8 C-5.195625 7.236875 -4.39125 6.47375 -3.5625 5.6875 C-0.83200976 3.20569102 -0.83200976 3.20569102 0 0 Z " fill="#6398C1" transform="translate(62,7)"/>
<path d="M0 0 C5.3117664 0.41660913 8.25195824 1.15332556 12 5 C17.43185954 11.89364437 21.43713322 21.14400478 21 30 C20.01 29.67 19.02 29.34 18 29 C18 26.03 18 23.06 18 20 C17.34 20 16.68 20 16 20 C15.20576139 18.43880578 14.41472877 16.87598036 13.625 15.3125 C13.18414062 14.44238281 12.74328125 13.57226562 12.2890625 12.67578125 C11 10 11 10 10.125 7.3125 C8.68099113 4.34425954 7.41035822 3.85828103 4.375 2.6875 C3.55773437 2.36136719 2.74046875 2.03523438 1.8984375 1.69921875 C1.27195313 1.46847656 0.64546875 1.23773438 0 1 C0 0.67 0 0.34 0 0 Z " fill="#FAEEA5" transform="translate(171,50)"/>
<path d="M0 0 C2.04136395 -0.05451714 4.08315856 -0.09302485 6.125 -0.125 C7.83042969 -0.15980469 7.83042969 -0.15980469 9.5703125 -0.1953125 C13.05757767 0.00327891 15.7553862 0.7475199 19 2 C15.61981469 3.04005702 12.5219721 3.08004482 9 3 C11.97 3.495 11.97 3.495 15 4 C13.70525365 6.58949269 12.67336607 6.96035764 10 8 C7.25 8.125 7.25 8.125 5 8 C5.33 7.01 5.66 6.02 6 5 C5.34 4.67 4.68 4.34 4 4 C4 3.34 4 2.68 4 2 C2.68 1.34 1.36 0.68 0 0 Z " fill="#7CA9CB" transform="translate(107,0)"/>
<path d="M0 0 C1.2065625 0.0309375 1.2065625 0.0309375 2.4375 0.0625 C2.4375 1.0525 2.4375 2.0425 2.4375 3.0625 C3.4275 2.7325 4.4175 2.4025 5.4375 2.0625 C5.4375 2.7225 5.4375 3.3825 5.4375 4.0625 C6.0975 4.0625 6.7575 4.0625 7.4375 4.0625 C7.4375 4.7225 7.4375 5.3825 7.4375 6.0625 C6.16910474 6.56865298 4.89766898 7.06719099 3.625 7.5625 C2.56345703 7.98015625 2.56345703 7.98015625 1.48046875 8.40625 C-0.5625 9.0625 -0.5625 9.0625 -3.5625 9.0625 C-2.6875 4.3125 -2.6875 4.3125 -1.5625 2.0625 C-2.2225 1.7325 -2.8825 1.4025 -3.5625 1.0625 C-2.5625 0.0625 -2.5625 0.0625 0 0 Z " fill="#FAD338" transform="translate(123.5625,181.9375)"/>
<path d="M0 0 C0.66 0.33 1.32 0.66 2 1 C1.979375 1.928125 1.95875 2.85625 1.9375 3.8125 C1.84230396 7.02286011 1.84230396 7.02286011 3 10 C2.01 11.485 2.01 11.485 1 13 C0.67 12.67 0.34 12.34 0 12 C-0.33 14.64 -0.66 17.28 -1 20 C-1.99 20 -2.98 20 -4 20 C-4.5644718 12.66186666 -2.55327104 6.83911885 0 0 Z " fill="#84AECD" transform="translate(4,68)"/>
<path d="M0 0 C0.66 0 1.32 0 2 0 C1.67 8.58 1.34 17.16 1 26 C-1.03094922 22.95357617 -1.25035189 22.36443332 -1.23046875 18.9453125 C-1.22853516 18.16542969 -1.22660156 17.38554688 -1.22460938 16.58203125 C-1.21236328 15.77121094 -1.20011719 14.96039063 -1.1875 14.125 C-1.18685547 13.32191406 -1.18621094 12.51882812 -1.18554688 11.69140625 C-1.15573748 7.67045051 -0.99256835 3.92263011 0 0 Z " fill="#9AB6CD" transform="translate(50,16)"/>
<path d="M0 0 C2.05938216 1.57885966 2.84571211 2.69142423 4 5 C4.039992 6.99960012 4.04346799 9.00047242 4 11 C3.67 11 3.34 11 3 11 C2.7525 9.88625 2.505 8.7725 2.25 7.625 C1.35498229 4.06883633 1.35498229 4.06883633 -0.6875 2.5 C-4.05128713 1.77269467 -6.67454618 2.19942778 -10 3 C-11.9451 5.91765 -12.45276317 7.62537285 -13 11 C-13.33 11 -13.66 11 -14 11 C-14 8.03 -14 5.06 -14 2 C-8.85631528 -0.62432894 -5.80576938 -1.56309176 0 0 Z " fill="#FAEAA3" transform="translate(128,163)"/>
<path d="M0 0 C0.66 0.33 1.32 0.66 2 1 C1.360625 1.825 0.72125 2.65 0.0625 3.5 C-2.46413081 7.23191406 -2.69360228 10.55723303 -3 15 C-4.65 15.66 -6.3 16.32 -8 17 C-6.97351014 10.43046488 -5.25733092 4.35089455 0 0 Z " fill="#FAE87E" transform="translate(59,104)"/>
<path d="M0 0 C0.33 0 0.66 0 1 0 C1.33 4.29 1.66 8.58 2 13 C2.66 13 3.32 13 4 13 C5.32 15.97 6.64 18.94 8 22 C7.01 23.32 6.02 24.64 5 26 C4.35035977 24.10546779 3.70544885 22.20931351 3.0625 20.3125 C2.70285156 19.25675781 2.34320313 18.20101562 1.97265625 17.11328125 C0.5974747 12.71159572 -0.13131948 8.79840497 -0.0625 4.1875 C-0.05347656 3.39730469 -0.04445312 2.60710937 -0.03515625 1.79296875 C-0.02355469 1.20128906 -0.01195312 0.60960938 0 0 Z " fill="#99BBD3" transform="translate(0,104)"/>
<path d="M0 0 C1.101173 3.30351899 1.03109831 5.51387172 0.87890625 8.98046875 C0.83056641 10.14384766 0.78222656 11.30722656 0.73242188 12.50585938 C0.67634766 13.72080078 0.62027344 14.93574219 0.5625 16.1875 C0.51029297 17.41404297 0.45808594 18.64058594 0.40429688 19.90429688 C0.27451599 22.93645018 0.13954569 25.96828294 0 29 C-0.33 29 -0.66 29 -1 29 C-1.33 23.39 -1.66 17.78 -2 12 C-2.99 12.495 -2.99 12.495 -4 13 C-4.63019694 4.80743982 -4.63019694 4.80743982 -2 1.4375 C-1.34 0.963125 -0.68 0.48875 0 0 Z " fill="#336994" transform="translate(44,115)"/>
<path d="M0 0 C0.66 1.32 1.32 2.64 2 4 C2.66 3.67 3.32 3.34 4 3 C6.125 3.9375 6.125 3.9375 8 5 C7.67 6.32 7.34 7.64 7 9 C6.38125 9.04125 5.7625 9.0825 5.125 9.125 C4.42375 9.41375 3.7225 9.7025 3 10 C1.6954344 12.99615946 1.6954344 12.99615946 1 16 C0.67 16 0.34 16 0 16 C0 10.72 0 5.44 0 0 Z " fill="#4585B5" transform="translate(0,88)"/>
<path d="M0 0 C0.66 0 1.32 0 2 0 C2.14570522 4.20796686 2.23421087 8.41528166 2.3125 12.625 C2.3753418 14.40970703 2.3753418 14.40970703 2.43945312 16.23046875 C2.5775892 26.12101171 2.5775892 26.12101171 -0.45703125 29.8359375 C-3 32 -3 32 -4 32 C-4 30.35 -4 28.7 -4 27 C-2.68 26.67 -1.36 26.34 0 26 C0 17.42 0 8.84 0 0 Z " fill="#F1D25E" transform="translate(141,152)"/>
<path d="M0 0 C6.93 0 13.86 0 21 0 C17.9672457 2.0218362 16.14650686 2.57464252 12.625 3.25 C11.68914062 3.44078125 10.75328125 3.6315625 9.7890625 3.828125 C6.62858907 4.02288807 4.86669741 3.24125042 2 2 C1.01 2.495 1.01 2.495 0 3 C0 2.01 0 1.02 0 0 Z " fill="#FDE873" transform="translate(151,51)"/>
<path d="M0 0 C0 -0.66 0 -1.32 0 -2 C1.65 -2 3.3 -2 5 -2 C4.01 -1.67 3.02 -1.34 2 -1 C2 -0.34 2 0.32 2 1 C0.02090602 1.02686553 -1.95828971 1.04633375 -3.9375 1.0625 C-5.03964844 1.07410156 -6.14179687 1.08570313 -7.27734375 1.09765625 C-10 1 -10 1 -11 0 C-12.68183948 -0.23287008 -14.3712416 -0.41264166 -16.0625 -0.5625 C-17.44115234 -0.68818359 -17.44115234 -0.68818359 -18.84765625 -0.81640625 C-19.91306641 -0.90728516 -19.91306641 -0.90728516 -21 -1 C-21 -1.33 -21 -1.66 -21 -2 C-13.36237133 -3.97100095 -6.99148698 -3.57012101 0 0 Z " fill="#F7D247" transform="translate(102,195)"/>
<path d="M0 0 C0 0.99 0 1.98 0 3 C-0.7425 3.5775 -1.485 4.155 -2.25 4.75 C-5.65069447 7.53238639 -6.98744377 10.12396577 -9 14 C-9.99 14 -10.98 14 -12 14 C-10.67474436 8.93993301 -8.65609819 5.74112373 -5 2 C-2.1875 0.625 -2.1875 0.625 0 0 Z " fill="#80A7C6" transform="translate(17,54)"/>
<path d="M0 0 C0.66 0 1.32 0 2 0 C2 5.61 2 11.22 2 17 C1.01 16.67 0.02 16.34 -1 16 C-1.02712153 14.083412 -1.04645097 12.1667127 -1.0625 10.25 C-1.07410156 9.18265625 -1.08570313 8.1153125 -1.09765625 7.015625 C-1.01510087 4.46631499 -0.74617558 2.42066409 0 0 Z " fill="#488BC2" transform="translate(53,16)"/>
<path d="M0 0 C0.33 0.99 0.66 1.98 1 3 C1.66 3.33 2.32 3.66 3 4 C0.93491457 7.82040804 -0.37127803 9.27845852 -4 12 C-3.67 8.37 -3.34 4.74 -3 1 C-2.34 1.33 -1.68 1.66 -1 2 C-0.67 1.34 -0.34 0.68 0 0 Z " fill="#4789BE" transform="translate(6,78)"/>
<path d="M0 0 C2.14576637 -0.02685938 4.29162645 -0.04633088 6.4375 -0.0625 C7.63246094 -0.07410156 8.82742187 -0.08570313 10.05859375 -0.09765625 C13 0 13 0 14 1 C16.01594582 1.23427778 18.038474 1.41336124 20.0625 1.5625 C21.16722656 1.64628906 22.27195312 1.73007813 23.41015625 1.81640625 C24.26480469 1.87699219 25.11945313 1.93757812 26 2 C26 2.33 26 2.66 26 3 C17.10456358 3.19865739 8.67089803 3.33447255 0 1 C0 0.67 0 0.34 0 0 Z " fill="#FBEEB4" transform="translate(78,194)"/>
<path d="M0 0 C0.99 0.66 1.98 1.32 3 2 C-0.08297927 5.25914951 -2.9161331 8.06553673 -7 10 C-7.99 9.67 -8.98 9.34 -10 9 C-9.67 8.34 -9.34 7.68 -9 7 C-8.34 7 -7.68 7 -7 7 C-7 6.01 -7 5.02 -7 4 C-5.824375 3.8453125 -5.824375 3.8453125 -4.625 3.6875 C-1.66954819 3.22404978 -1.66954819 3.22404978 0 0 Z " fill="#5C87A5" transform="translate(136,84)"/>
<path d="M0 0 C-5.89738492 2.29342747 -10.66606918 3.34548714 -17 3 C-17 2.34 -17 1.68 -17 1 C-14.06130959 0.02043653 -11.57352919 -0.33582387 -8.5 -0.625 C-7.5409375 -0.72039062 -6.581875 -0.81578125 -5.59375 -0.9140625 C-3 -1 -3 -1 0 0 Z " fill="#F9E597" transform="translate(121,193)"/>
<path d="M0 0 C0.99 0.33 1.98 0.66 3 1 C1.7874262 4.72433382 0.49140021 8.37802806 -1 12 C-3.4368763 9.5631237 -3.84077523 8.42333251 -4 5 C-2.0625 2.1875 -2.0625 2.1875 0 0 Z " fill="#5C8BAE" transform="translate(47,105)"/>
<path d="M0 0 C0.99 0.33 1.98 0.66 3 1 C2.34 2.32 1.68 3.64 1 5 C-2.3 5 -5.6 5 -9 5 C-9 4.34 -9 3.68 -9 3 C-8.43410156 2.86722656 -7.86820312 2.73445313 -7.28515625 2.59765625 C-6.18494141 2.33275391 -6.18494141 2.33275391 -5.0625 2.0625 C-4.33160156 1.88847656 -3.60070312 1.71445312 -2.84765625 1.53515625 C-1.00030102 1.16112431 -1.00030102 1.16112431 0 0 Z " fill="#4D86B3" transform="translate(85,49)"/>
<path d="M0 0 C0 0.33 0 0.66 0 1 C-1.98 1 -3.96 1 -6 1 C-6.33 1.66 -6.66 2.32 -7 3 C-7.33 2.67 -7.66 2.34 -8 2 C-11.02019764 2.25335353 -11.02019764 2.25335353 -14 3 C-14.33 3.66 -14.66 4.32 -15 5 C-16.65 5 -18.3 5 -20 5 C-20.33 4.34 -20.66 3.68 -21 3 C-13.82140651 0.95938459 -7.47394574 -0.37369729 0 0 Z " fill="#498CC0" transform="translate(41,51)"/>
<path d="M0 0 C0 1.65 0 3.3 0 5 C-0.99 5 -1.98 5 -3 5 C-2.9175 5.928125 -2.835 6.85625 -2.75 7.8125 C-2.8325 8.864375 -2.915 9.91625 -3 11 C-5.015625 12.69921875 -5.015625 12.69921875 -7 14 C-6.57533503 12.22604492 -6.1347591 10.45589369 -5.6875 8.6875 C-5.44386719 7.70136719 -5.20023438 6.71523437 -4.94921875 5.69921875 C-4.14153183 3.40246295 -2.93877725 0 0 0 Z " fill="#F8E675" transform="translate(152,75)"/>
<path d="M0 0 C0.33 0.99 0.66 1.98 1 3 C-0.8125 5.6875 -0.8125 5.6875 -3 8 C-3.66 8 -4.32 8 -5 8 C-5.33 7.01 -5.66 6.02 -6 5 C-4.21653709 1.96811304 -3.40424844 1.13474948 0 0 Z " fill="#488DC3" transform="translate(61,7)"/>
<path d="M0 0 C0.99 0 1.98 0 3 0 C3.2475 0.94875 3.495 1.8975 3.75 2.875 C5.17423987 6.43559968 5.71715887 6.51742659 9 8 C9.75 10.125 9.75 10.125 10 12 C5.78247239 10.43795274 3.62600654 7.54865748 1 4 C0.1875 1.625 0.1875 1.625 0 0 Z " fill="#93B5CA" transform="translate(6,130)"/>
<path d="M0 0 C1.08667969 0.02707031 2.17335938 0.05414063 3.29296875 0.08203125 C4.54013672 0.13423828 4.54013672 0.13423828 5.8125 0.1875 C2.53948081 3.15659598 0.43184238 3.53104794 -3.9375 3.375 C-4.92234375 3.34792969 -5.9071875 3.32085937 -6.921875 3.29296875 C-7.66953125 3.25816406 -8.4171875 3.22335938 -9.1875 3.1875 C-6.54246503 -0.34849411 -4.24021315 -0.13678107 0 0 Z " fill="#FBEB94" transform="translate(70.1875,100.8125)"/>
<path d="M0 0 C0.99 0.33 1.98 0.66 3 1 C3 1.66 3 2.32 3 3 C3.66 3.33 4.32 3.66 5 4 C2.6875 5.5625 2.6875 5.5625 0 7 C-0.99 6.67 -1.98 6.34 -3 6 C-3 5.34 -3 4.68 -3 4 C-2.01 4 -1.02 4 0 4 C0 2.68 0 1.36 0 0 Z " fill="#6599BA" transform="translate(51,38)"/>
<path d="M0 0 C-3.26672777 3.87167736 -3.26672777 3.87167736 -6.5 4.4375 C-9.39843626 3.93027366 -10.82182537 2.93615523 -13 1 C-8.59085217 -0.10228696 -4.51617599 -0.07654536 0 0 Z " fill="#538AB7" transform="translate(93,0)"/>
<path d="M0 0 C0.66 0 1.32 0 2 0 C2.33 0.99 2.66 1.98 3 3 C3.99 3.33 4.98 3.66 6 4 C5.67 4.99 5.34 5.98 5 7 C2.03 6.505 2.03 6.505 -1 6 C-1.042721 4.33388095 -1.04063832 2.66617115 -1 1 C-0.67 0.67 -0.34 0.34 0 0 Z " fill="#39739F" transform="translate(65,88)"/>
<path d="M0 0 C1.33332095 2.6666419 0.67102033 4.16680303 0 7 C-1.98 7 -3.96 7 -6 7 C-2.25 1.125 -2.25 1.125 0 0 Z " fill="#4B8DC1" transform="translate(15,58)"/>
<path d="M0 0 C2.57112831 1.76765071 3.07659703 3.45089059 4 6.375 C-0.455 5.385 -0.455 5.385 -5 4.375 C-4.67 3.055 -4.34 1.735 -4 0.375 C-2 -0.625 -2 -0.625 0 0 Z " fill="#4980AD" transform="translate(73,9.625)"/>
<path d="M0 0 C0.66 0 1.32 0 2 0 C2 0.66 2 1.32 2 2 C2.66 2.33 3.32 2.66 4 3 C1.03 5.475 1.03 5.475 -2 8 C-3.32 7.34 -4.64 6.68 -6 6 C-4.68 6 -3.36 6 -2 6 C-2 4.68 -2 3.36 -2 2 C-1.34 1.34 -0.68 0.68 0 0 Z " fill="#6A97B6" transform="translate(56,96)"/>
<path d="M0 0 C0.66 0.99 1.32 1.98 2 3 C1.34 3 0.68 3 0 3 C0.33 3.99 0.66 4.98 1 6 C-1.52475462 7.26237731 -3.31200466 7.09856404 -6.125 7.0625 C-7.03507812 7.05347656 -7.94515625 7.04445313 -8.8828125 7.03515625 C-9.58148438 7.02355469 -10.28015625 7.01195312 -11 7 C-11 6.67 -11 6.34 -11 6 C-9.906875 5.855625 -8.81375 5.71125 -7.6875 5.5625 C-4.06877013 5.11711896 -4.06877013 5.11711896 -1 4 C-0.26676204 1.98491642 -0.26676204 1.98491642 0 0 Z " fill="#ACC7DB" transform="translate(78,25)"/>
<path d="M0 0 C0.33 0 0.66 0 1 0 C1.144375 0.763125 1.28875 1.52625 1.4375 2.3125 C1.9632594 5.08172908 1.9632594 5.08172908 3 8 C2.54451823 10.73812607 1.74685247 13.3201176 1 16 C0.67 16 0.34 16 0 16 C0 10.72 0 5.44 0 0 Z " fill="#5B96C8" transform="translate(0,88)"/>
<path d="M0 0 C0.99 0 1.98 0 3 0 C2.01 3.3 1.02 6.6 0 10 C-2 6 -2 6 -2 2 C-1.34 2 -0.68 2 0 2 C0 1.34 0 0.68 0 0 Z " fill="#71A1C3" transform="translate(53,10)"/>
<path d="M0 0 C3.73487777 0.4979837 5.81237635 0.87491756 9 3 C8.67 3.99 8.34 4.98 8 6 C4.5625 4.6875 4.5625 4.6875 1 3 C0.67 2.01 0.34 1.02 0 0 Z " fill="#F8E77E" transform="translate(172,52)"/>
<path d="M0 0 C0.66 0 1.32 0 2 0 C2.99 3.63 3.98 7.26 5 11 C4.34 11 3.68 11 3 11 C0.15549386 7.28026121 -0.3227506 4.62609198 0 0 Z " fill="#FAE693" transform="translate(51,172)"/>
<path d="M0 0 C1.61949011 2.57213134 2.04408751 3.67669159 1.625 6.75 C1.41875 7.4925 1.2125 8.235 1 9 C0.34 9 -0.32 9 -1 9 C-2.0326802 6.21176345 -2.04509293 5.1322726 -1.0625 2.25 C-0.711875 1.5075 -0.36125 0.765 0 0 Z " fill="#45759D" transform="translate(141,72)"/>
<path d="M0 0 C0.33 0.99 0.66 1.98 1 3 C-1.375 6.1875 -1.375 6.1875 -4 9 C-4.33 9 -4.66 9 -5 9 C-5 7.35 -5 5.7 -5 4 C-4.360625 3.71125 -3.72125 3.4225 -3.0625 3.125 C-0.84793921 2.17176549 -0.84793921 2.17176549 0 0 Z " fill="#F8E288" transform="translate(142,175)"/>
<path d="M0 0 C0.95465783 2.16967689 1.14401212 3.56328793 0.3984375 5.82421875 C-0.35870385 7.5684743 -1.17609198 9.28627131 -2 11 C-2.99 11 -3.98 11 -5 11 C-3.55049545 7.2089881 -1.84827434 3.6125362 0 0 Z " fill="#FBF1AC" transform="translate(147,79)"/>
<path d="M0 0 C2.475 0.495 2.475 0.495 5 1 C4.67 2.32 4.34 3.64 4 5 C2.68 5.33 1.36 5.66 0 6 C0 4.02 0 2.04 0 0 Z " fill="#3C729B" transform="translate(97,43)"/>
<path d="M0 0 C0.33 0 0.66 0 1 0 C1 2.31 1 4.62 1 7 C1.66 7.33 2.32 7.66 3 8 C2.01 8.495 2.01 8.495 1 9 C-1.125 8.0625 -1.125 8.0625 -3 7 C-3 6.34 -3 5.68 -3 5 C-2.34 5 -1.68 5 -1 5 C-0.67 3.35 -0.34 1.7 0 0 Z " fill="#9DBDD5" transform="translate(62,20)"/>
<path d="M0 0 C2.64 0 5.28 0 8 0 C7.67 1.32 7.34 2.64 7 4 C5.02 4 3.04 4 1 4 C1.99 3.34 2.98 2.68 4 2 C2.68 1.34 1.36 0.68 0 0 Z " fill="#538BB9" transform="translate(99,0)"/>
<path d="M0 0 C0.556875 0.226875 1.11375 0.45375 1.6875 0.6875 C-1.125 2.25 -1.125 2.25 -4.3125 3.6875 C-5.3025 3.3575 -6.2925 3.0275 -7.3125 2.6875 C-2.88173077 -0.38942308 -2.88173077 -0.38942308 0 0 Z " fill="#FAE387" transform="translate(129.3125,188.3125)"/>
<path d="M0 0 C3.37462715 0.54723683 5.08235 1.0549 8 3 C8 3.66 8 4.32 8 5 C4.62496331 3.8141763 2.35277269 2.72426311 0 0 Z " fill="#FBE99E" transform="translate(56,184)"/>
<path d="M0 0 C0.66 0.33 1.32 0.66 2 1 C2 1.99 2 2.98 2 4 C1.01 4 0.02 4 -1 4 C-1.33 4.66 -1.66 5.32 -2 6 C-2.66 5.34 -3.32 4.68 -4 4 C-3.67 3.01 -3.34 2.02 -3 1 C-2.01 0.67 -1.02 0.34 0 0 Z " fill="#386F9F" transform="translate(100,49)"/>
<path d="M0 0 C0.66 0.33 1.32 0.66 2 1 C0.9024777 3.99324263 0.32317108 4.84610901 -2.625 6.25 C-3.40875 6.4975 -4.1925 6.745 -5 7 C-3.70700306 4.11562221 -2.34058637 2.12780579 0 0 Z " fill="#FAF1A7" transform="translate(59,104)"/>
</svg>
