<?xml version="1.0" encoding="UTF-8"?>
<svg version="1.1" xmlns="http://www.w3.org/2000/svg" width="259" height="194">
<path d="M0 0 C4.81925352 2.43016335 9.09032326 5.3744143 13.1875 8.875 C13.86167969 9.44089844 14.53585938 10.00679687 15.23046875 10.58984375 C16.89605453 12.00276582 18.54375728 13.43672512 20.1875 14.875 C20.79335937 14.21113281 21.39921875 13.54726562 22.0234375 12.86328125 C27.57950185 7.0080442 32.63664335 2.79791225 40.1875 -0.125 C41.06664062 -0.48722656 41.94578125 -0.84945312 42.8515625 -1.22265625 C53.42571304 -4.0828773 66.89299889 -3.62489016 76.6796875 1.32421875 C89.43173124 9.20982835 97.63249368 19.10442066 101.1875 33.875 C102.38488629 47.28294185 100.44116858 58.60515281 92.16015625 69.55859375 C85.40471826 77.49121697 75.9329857 85.13567198 65.09375 86.05200195 C49.29300838 86.45439503 38.47846239 85.59788464 26.1875 74.875 C25.49011719 74.28589844 24.79273438 73.69679688 24.07421875 73.08984375 C22.43334948 71.69888643 20.80849942 70.28906333 19.1875 68.875 C18.64222656 69.46667969 18.09695312 70.05835937 17.53515625 70.66796875 C12.53919755 75.90305026 7.83252528 79.95246882 1.1875 82.875 C-0.61267578 83.66777344 -0.61267578 83.66777344 -2.44921875 84.4765625 C-7.30056164 86.25597121 -11.93399346 86.41179186 -17.0625 86.375 C-17.98836914 86.36927979 -18.91423828 86.36355957 -19.86816406 86.35766602 C-31.42704042 86.05705426 -40.47096335 81.8796669 -48.8125 73.875 C-58.45664733 63.25495681 -62.50003639 52.34340111 -62.1171875 37.9453125 C-61.43522542 25.86725678 -55.26044281 15.75005008 -46.5625 7.5625 C-33.86266859 -2.55032871 -15.30950484 -6.13954436 0 0 Z M-7.8125 17.875 C-8.19468767 19.53114657 -8.52645102 21.19957024 -8.8125 22.875 C-7.74604885 24.17133621 -7.74604885 24.17133621 -5.25 23.9375 C-4.445625 23.916875 -3.64125 23.89625 -2.8125 23.875 C-2.43031233 22.21885343 -2.09854898 20.55042976 -1.8125 18.875 C-2.87895115 17.57866379 -2.87895115 17.57866379 -5.375 17.8125 C-6.179375 17.833125 -6.98375 17.85375 -7.8125 17.875 Z M-38.8125 29.875 C-38.87084353 33.10409006 -38.90621115 36.33304338 -38.9375 39.5625 C-38.95425781 40.47451172 -38.97101563 41.38652344 -38.98828125 42.32617188 C-39.07375274 48.84021404 -39.07375274 48.84021404 -36.8125 54.875 C-33.89517374 57.79232626 -30.84260033 57.28139743 -26.9375 57.3125 C-25.85662109 57.36180664 -25.85662109 57.36180664 -24.75390625 57.41210938 C-21.18011638 57.44830798 -19.17807402 57.15577002 -16.3203125 54.9609375 C-14.18841463 50.59772683 -14.37702431 46.84563259 -14.5625 42.0625 C-14.58957031 40.73702148 -14.58957031 40.73702148 -14.6171875 39.38476562 C-14.66411487 37.21437457 -14.73585269 35.04454481 -14.8125 32.875 C-12.8325 32.875 -10.8525 32.875 -8.8125 32.875 C-8.81773682 33.56650146 -8.82297363 34.25800293 -8.82836914 34.97045898 C-8.849075 38.08446352 -8.86213963 41.19845361 -8.875 44.3125 C-8.88337891 45.40111328 -8.89175781 46.48972656 -8.90039062 47.61132812 C-8.90361328 48.64580078 -8.90683594 49.68027344 -8.91015625 50.74609375 C-8.91539307 51.70443115 -8.92062988 52.66276855 -8.92602539 53.65014648 C-9.0630313 55.84785339 -9.0630313 55.84785339 -7.8125 56.875 C-5.8325 56.875 -3.8525 56.875 -1.8125 56.875 C-1.8125 47.965 -1.8125 39.055 -1.8125 29.875 C-8.0825 29.875 -14.3525 29.875 -20.8125 29.875 C-21.06148988 35.61825083 -21.06148988 35.61825083 -21.29052734 41.36230469 C-21.34394287 42.44366699 -21.34394287 42.44366699 -21.3984375 43.546875 C-21.4298584 44.2800293 -21.4612793 45.01318359 -21.49365234 45.76855469 C-21.85022523 48.12422918 -22.64912883 49.80950591 -23.8125 51.875 C-26.1225 51.545 -28.4325 51.215 -30.8125 50.875 C-31.1425 43.945 -31.4725 37.015 -31.8125 29.875 C-34.1225 29.875 -36.4325 29.875 -38.8125 29.875 Z M33.1875 29.875 C33.07095564 33.4372231 33.0001361 36.99895342 32.9375 40.5625 C32.90398437 41.56990234 32.87046875 42.57730469 32.8359375 43.61523438 C32.77838807 47.97460388 32.8069058 51.07545716 34.69921875 55.05078125 C38.13509584 57.56970527 41.15611038 57.53713424 45.25 57.375 C45.96994141 57.37757812 46.68988281 57.38015625 47.43164062 57.3828125 C50.42031358 57.32731254 52.62521383 57.26576049 55.12109375 55.53125 C57.01706151 52.58659677 57.30928055 50.04605732 57.28515625 46.64453125 C57.28032227 45.44086914 57.28032227 45.44086914 57.27539062 44.21289062 C57.26701172 43.37951172 57.25863281 42.54613281 57.25 41.6875 C57.24548828 40.84251953 57.24097656 39.99753906 57.23632812 39.12695312 C57.22455403 37.04293845 57.2066189 34.95896023 57.1875 32.875 C61.72317478 33.44768621 61.72317478 33.44768621 63.8046875 35.36328125 C64.42730469 36.26626953 64.42730469 36.26626953 65.0625 37.1875 C65.49304688 37.78175781 65.92359375 38.37601563 66.3671875 38.98828125 C67.1875 40.875 67.1875 40.875 67.04296875 42.78515625 C65.92890525 45.5067269 64.37106655 47.6366372 62.625 50 C60.02448847 53.12989429 60.02448847 53.12989429 59.1875 56.875 C61.9287565 57.6305432 61.9287565 57.6305432 65.1875 56.875 C67.03873946 54.68480121 68.44876413 52.41815113 69.890625 49.94140625 C71.1875 47.875 71.1875 47.875 73.1875 46.875 C73.435 47.41125 73.6825 47.9475 73.9375 48.5 C74.55625 49.675625 74.55625 49.675625 75.1875 50.875 C75.744375 51.9475 76.30125 53.02 76.875 54.125 C78.99588306 57.2961498 78.99588306 57.2961498 82.9375 57.25 C84.01 57.12625 85.0825 57.0025 86.1875 56.875 C84.83820536 53.03836928 83.10998975 50.22327431 80.5625 47.0625 C79.93085938 46.27230469 79.29921875 45.48210937 78.6484375 44.66796875 C78.16632813 44.07628906 77.68421875 43.48460937 77.1875 42.875 C79.7860357 38.49851881 82.48145884 34.18541339 85.1875 29.875 C81.85607722 29.37374717 81.85607722 29.37374717 78.1875 29.875 C75.07998365 33.41713848 75.07998365 33.41713848 74.1875 37.875 C71.53997996 35.29715154 69.24317935 32.95851902 67.1875 29.875 C64.23685852 29.6541436 61.50381769 29.59439011 58.5625 29.6875 C57.35980469 29.70780273 57.35980469 29.70780273 56.1328125 29.72851562 C54.15075622 29.76390949 52.16904449 29.81771766 50.1875 29.875 C50.16244385 30.50591553 50.1373877 31.13683105 50.11157227 31.78686523 C49.99595863 34.62896825 49.87307684 37.47071083 49.75 40.3125 C49.71068359 41.30572266 49.67136719 42.29894531 49.63085938 43.32226562 C49.58896484 44.26650391 49.54707031 45.21074219 49.50390625 46.18359375 C49.46724854 47.05814209 49.43059082 47.93269043 49.39282227 48.83374023 C49.1875 50.875 49.1875 50.875 48.1875 51.875 C45.25 52.125 45.25 52.125 42.1875 51.875 C40.13622156 48.79808234 39.91489128 47.93855001 39.7734375 44.42578125 C39.73476562 43.57822266 39.69609375 42.73066406 39.65625 41.85742188 C39.6253125 40.97634766 39.594375 40.09527344 39.5625 39.1875 C39.52382812 38.29482422 39.48515625 37.40214844 39.4453125 36.48242188 C39.35109782 34.2801538 39.26548412 32.07789278 39.1875 29.875 C37.2075 29.875 35.2275 29.875 33.1875 29.875 Z " fill="#B24444" transform="translate(109.8125,55.125)"/>
<path d="M0 0 C8.33599787 4.22720347 14.32185517 9.6529248 20.1875 16.875 C19.1975 19.515 18.2075 22.155 17.1875 24.875 C16.5275 24.875 15.8675 24.875 15.1875 24.875 C13.55906657 30.60371203 12.8339795 35.74080957 12.875 41.6875 C12.87628906 42.46851074 12.87757812 43.24952148 12.87890625 44.05419922 C12.98239226 50.31639612 14.0059571 55.97964002 16.1875 61.875 C16.8475 61.875 17.5075 61.875 18.1875 61.875 C18.8475 63.855 19.5075 65.835 20.1875 67.875 C14.41749668 74.07865701 9.03663981 79.48734194 1.1875 82.875 C-0.01132813 83.40222656 -1.21015625 83.92945313 -2.4453125 84.47265625 C-7.29864557 86.25529462 -11.9310697 86.41181284 -17.0625 86.375 C-17.98836914 86.36927979 -18.91423828 86.36355957 -19.86816406 86.35766602 C-31.42704042 86.05705426 -40.47096335 81.8796669 -48.8125 73.875 C-58.45664733 63.25495681 -62.50003639 52.34340111 -62.1171875 37.9453125 C-61.43522542 25.86725678 -55.26044281 15.75005008 -46.5625 7.5625 C-33.86266859 -2.55032871 -15.30950484 -6.13954436 0 0 Z M-7.8125 17.875 C-8.19468767 19.53114657 -8.52645102 21.19957024 -8.8125 22.875 C-7.74604885 24.17133621 -7.74604885 24.17133621 -5.25 23.9375 C-4.445625 23.916875 -3.64125 23.89625 -2.8125 23.875 C-2.43031233 22.21885343 -2.09854898 20.55042976 -1.8125 18.875 C-2.87895115 17.57866379 -2.87895115 17.57866379 -5.375 17.8125 C-6.179375 17.833125 -6.98375 17.85375 -7.8125 17.875 Z M-38.8125 29.875 C-38.87084353 33.10409006 -38.90621115 36.33304338 -38.9375 39.5625 C-38.95425781 40.47451172 -38.97101563 41.38652344 -38.98828125 42.32617188 C-39.07375274 48.84021404 -39.07375274 48.84021404 -36.8125 54.875 C-33.89517374 57.79232626 -30.84260033 57.28139743 -26.9375 57.3125 C-25.85662109 57.36180664 -25.85662109 57.36180664 -24.75390625 57.41210938 C-21.18011638 57.44830798 -19.17807402 57.15577002 -16.3203125 54.9609375 C-14.18841463 50.59772683 -14.37702431 46.84563259 -14.5625 42.0625 C-14.58957031 40.73702148 -14.58957031 40.73702148 -14.6171875 39.38476562 C-14.66411487 37.21437457 -14.73585269 35.04454481 -14.8125 32.875 C-12.8325 32.875 -10.8525 32.875 -8.8125 32.875 C-8.81773682 33.56650146 -8.82297363 34.25800293 -8.82836914 34.97045898 C-8.849075 38.08446352 -8.86213963 41.19845361 -8.875 44.3125 C-8.88337891 45.40111328 -8.89175781 46.48972656 -8.90039062 47.61132812 C-8.90361328 48.64580078 -8.90683594 49.68027344 -8.91015625 50.74609375 C-8.91539307 51.70443115 -8.92062988 52.66276855 -8.92602539 53.65014648 C-9.0630313 55.84785339 -9.0630313 55.84785339 -7.8125 56.875 C-5.8325 56.875 -3.8525 56.875 -1.8125 56.875 C-1.8125 47.965 -1.8125 39.055 -1.8125 29.875 C-8.0825 29.875 -14.3525 29.875 -20.8125 29.875 C-21.06148988 35.61825083 -21.06148988 35.61825083 -21.29052734 41.36230469 C-21.34394287 42.44366699 -21.34394287 42.44366699 -21.3984375 43.546875 C-21.4298584 44.2800293 -21.4612793 45.01318359 -21.49365234 45.76855469 C-21.85022523 48.12422918 -22.64912883 49.80950591 -23.8125 51.875 C-26.1225 51.545 -28.4325 51.215 -30.8125 50.875 C-31.1425 43.945 -31.4725 37.015 -31.8125 29.875 C-34.1225 29.875 -36.4325 29.875 -38.8125 29.875 Z " fill="#84635D" transform="translate(109.8125,55.125)"/>
<path d="M0 0 C0.33 0 0.66 0 1 0 C1.19335938 0.72445312 1.38671875 1.44890625 1.5859375 2.1953125 C2.92860286 7.18045615 4.28749486 12.12594691 6 17 C6.66 17 7.32 17 8 17 C8 16.34 8 15.68 8 15 C9.32 15 10.64 15 12 15 C13.16540224 17.33080447 13.16860169 18.83252953 13.24609375 21.4296875 C13.27896484 22.30753906 13.31183594 23.18539062 13.34570312 24.08984375 C13.40663971 25.93868555 13.46396298 27.78765015 13.51757812 29.63671875 C13.56881836 30.95736328 13.56881836 30.95736328 13.62109375 32.3046875 C13.6461499 33.10890137 13.67120605 33.91311523 13.69702148 34.74169922 C14.02561791 37.19094739 14.77971891 38.86702555 16 41 C15.113125 40.690625 14.22625 40.38125 13.3125 40.0625 C10.53290845 39.1709329 7.86863625 38.50622993 5 38 C4.87625 39.093125 4.7525 40.18625 4.625 41.3125 C4 45 4 45 2 48 C1.41597867 50.41417872 1.41597867 50.41417872 2 53 C4.39583651 55.81331378 4.39583651 55.81331378 7 58 C6.67 58.66 6.34 59.32 6 60 C-0.79194631 53.5033557 -0.79194631 53.5033557 -2 50 C-2 49.01 -2 48.02 -2 47 C-2.66 47 -3.32 47 -4 47 C-7.29304807 40.32569721 -8.40714895 34.16807749 -8.4375 26.8125 C-8.44716797 26.06500488 -8.45683594 25.31750977 -8.46679688 24.54736328 C-8.38545854 19.12042142 -7.12942284 14.98748108 -5 10 C-4.34 10 -3.68 10 -3 10 C-2.814375 8.9171875 -2.814375 8.9171875 -2.625 7.8125 C-2.0095069 5.04278106 -1.11555626 2.6029646 0 0 Z " fill="#A34140" transform="translate(130,70)"/>
<path d="M0 0 C2.2890625 -0.234375 2.2890625 -0.234375 5 0 C6.8359375 1.609375 6.8359375 1.609375 8.375 3.75 C8.89835937 4.44609375 9.42171875 5.1421875 9.9609375 5.859375 C11 8 11 8 10.8984375 9.87890625 C9.63456924 12.86273436 8.01193603 15.46842203 6.25 18.1875 C5.23679688 19.78658203 5.23679688 19.78658203 4.203125 21.41796875 C2 24 2 24 -0.18359375 24.859375 C-4.23130843 25.06148003 -8.26032849 25.10407713 -12.3125 25.0625 C-13.14845703 25.05798828 -13.98441406 25.05347656 -14.84570312 25.04882812 C-16.89716649 25.03710548 -18.94859273 25.01917203 -21 25 C-20.67 24.34 -20.34 23.68 -20 23 C-18.87980469 23.05800781 -17.75960937 23.11601563 -16.60546875 23.17578125 C-15.13285412 23.22267981 -13.66019449 23.26817987 -12.1875 23.3125 C-11.44951172 23.35439453 -10.71152344 23.39628906 -9.95117188 23.43945312 C-7.51260154 23.54863607 -7.51260154 23.54863607 -4 23 C-0.08500164 19.14714447 -0.45586228 13.87721469 -0.3125 8.6875 C-0.27833984 7.85154297 -0.24417969 7.01558594 -0.20898438 6.15429688 C-0.12694539 4.10332228 -0.0617849 2.05168462 0 0 Z " fill="#9C4342" transform="translate(167,88)"/>
<path d="M0 0 C0.33 0 0.66 0 1 0 C1.70778794 14.39168803 -0.33448747 25.69819992 -10 37 C-15.05957635 42.25977541 -20.17495273 46.33938835 -27 49 C-29.23046875 48.58984375 -29.23046875 48.58984375 -31 48 C-28.69 47.34 -26.38 46.68 -24 46 C-24.495 44.515 -24.495 44.515 -25 43 C-21.86501708 41.14223235 -19.62528568 40.79859524 -16 41 C-15.67 39.68 -15.34 38.36 -15 37 C-14.01 37 -13.02 37 -12 37 C-12 36.01 -12 35.02 -12 34 C-11.01 34 -10.02 34 -9 34 C-7.57499941 30.00999834 -6.59924224 26.19469571 -6 22 C-5.01 22 -4.02 22 -3 22 C-2.070909 16.77386314 -1.97255316 11.85619654 -2.16015625 6.55078125 C-1.99101922 3.85696461 -1.37165085 2.29684279 0 0 Z " fill="#9A4B47" transform="translate(210,90)"/>
<path d="M0 0 C1.36511719 0.43119141 1.36511719 0.43119141 2.7578125 0.87109375 C3.45648438 1.09925781 4.15515625 1.32742187 4.875 1.5625 C4.875 2.5525 4.875 3.5425 4.875 4.5625 C4.215 4.2325 3.555 3.9025 2.875 3.5625 C0.87539988 3.522508 -1.12547242 3.51903201 -3.125 3.5625 C-4.445 5.8725 -5.765 8.1825 -7.125 10.5625 C-10.125 9.5625 -10.125 9.5625 -11.765625 6.5546875 C-13.7240514 3.48659179 -13.7240514 3.48659179 -16.03710938 2.97753906 C-18.33207219 2.74804278 -20.5687628 2.67985079 -22.875 2.6875 C-24.06416016 2.6565625 -24.06416016 2.6565625 -25.27734375 2.625 C-27.22610815 2.57804182 -29.17567457 2.56675617 -31.125 2.5625 C-31.125 1.9025 -31.125 1.2425 -31.125 0.5625 C-28.37335568 0.42732097 -25.62835479 0.32834749 -22.875 0.25 C-22.09769531 0.20810547 -21.32039062 0.16621094 -20.51953125 0.12304688 C-18.28148863 0.07522545 -16.31540326 0.09273077 -14.125 0.5625 C-11.578125 3.08203125 -11.578125 3.08203125 -10.125 5.5625 C-8.805 5.2325 -7.485 4.9025 -6.125 4.5625 C-6.455 2.9125 -6.785 1.2625 -7.125 -0.4375 C-4.30685434 -1.84657283 -2.95222796 -0.94622691 0 0 Z " fill="#904542" transform="translate(191.125,82.4375)"/>
<path d="M0 0 C0.79075928 0.00523682 1.58151855 0.01047363 2.39624023 0.01586914 C3.67724609 0.02070312 3.67724609 0.02070312 4.98413086 0.02563477 C5.88196289 0.03401367 6.77979492 0.04239258 7.70483398 0.05102539 C8.6065332 0.05553711 9.50823242 0.06004883 10.43725586 0.06469727 C12.67234712 0.07652315 14.90730835 0.09300319 17.14233398 0.11352539 C17.47233398 0.77352539 17.80233398 1.43352539 18.14233398 2.11352539 C11.87233398 2.11352539 5.60233398 2.11352539 -0.85766602 2.11352539 C-0.73954237 7.81257706 -0.73954237 7.81257706 -0.58740234 13.51074219 C-0.53895288 18.15616025 -0.69661587 21.41569314 -3.85766602 25.11352539 C-6.54516602 25.42602539 -6.54516602 25.42602539 -8.85766602 25.11352539 C-7.54516602 23.61352539 -7.54516602 23.61352539 -5.85766602 22.11352539 C-4.86766602 22.11352539 -3.87766602 22.11352539 -2.85766602 22.11352539 C-2.86290283 21.48260986 -2.86813965 20.85169434 -2.87353516 20.20166016 C-2.89424428 17.35979192 -2.90730668 14.51793951 -2.92016602 11.67602539 C-2.92854492 10.68280273 -2.93692383 9.68958008 -2.94555664 8.66625977 C-2.9487793 7.72202148 -2.95200195 6.7777832 -2.95532227 5.80493164 C-2.96055908 4.9303833 -2.9657959 4.05583496 -2.97119141 3.15478516 C-2.82416022 0.51106965 -2.64808702 0.16182947 0 0 Z " fill="#6A5250" transform="translate(89.857666015625,82.886474609375)"/>
<path d="M0 0 C4.79898852 2.40293686 9.11323198 5.3879059 13.1875 8.875 C12.1975 9.205 11.2075 9.535 10.1875 9.875 C9.506875 9.318125 8.82625 8.76125 8.125 8.1875 C2.21609355 3.53580769 -5.63717037 0.73590978 -13.13671875 0.77734375 C-14.16474609 0.78056641 -15.19277344 0.78378906 -16.25195312 0.78710938 C-17.85973633 0.79967773 -17.85973633 0.79967773 -19.5 0.8125 C-21.12518555 0.81926758 -21.12518555 0.81926758 -22.78320312 0.82617188 C-25.45969085 0.83796257 -28.13606777 0.85441937 -30.8125 0.875 C-30.8125 0.215 -30.8125 -0.445 -30.8125 -1.125 C-21.81716941 -4.12344353 -8.71142496 -3.49352775 0 0 Z " fill="#974846" transform="translate(183.8125,55.125)"/>
<path d="M0 0 C5 0 5 0 6.8359375 1.609375 C7.34382812 2.31578125 7.85171875 3.0221875 8.375 3.75 C9.16003906 4.79414062 9.16003906 4.79414062 9.9609375 5.859375 C11 8 11 8 10.85546875 9.96875 C9.8081741 12.45547703 8.47139405 14.53074903 6.9375 16.75 C6.38964844 17.54921875 5.84179688 18.3484375 5.27734375 19.171875 C4.85582031 19.77515625 4.43429688 20.3784375 4 21 C3 18 3 18 3.8125 15.375 C5 13 5 13 7 12 C7.2502157 9.08365871 7.2502157 9.08365871 7 6 C6.01 5.34 5.02 4.68 4 4 C4 3.01 4 2.02 4 1 C3.01 1 2.02 1 1 1 C1 6.61 1 12.22 1 18 C0.67 18 0.34 18 0 18 C0 12.06 0 6.12 0 0 Z " fill="#8A4241" transform="translate(167,88)"/>
<path d="M0 0 C0.33 0.66 0.66 1.32 1 2 C3.01669827 3.13350534 3.01669827 3.13350534 5 4 C4.44894091 7.9492568 3.61064629 11.34920174 2 15 C1.34 15 0.68 15 0 15 C-1.15774649 10.36901402 -2.19218189 4.38436379 0 0 Z " fill="#B34546" transform="translate(170,90)"/>
<path d="M0 0 C0.33 0.66 0.66 1.32 1 2 C0.67 2.99 0.34 3.98 0 5 C-0.66 5 -1.32 5 -2 5 C-4.45725425 12.86321361 -4.6230776 20.82673527 -5 29 C-5.33 29 -5.66 29 -6 29 C-6.08166849 25.99943916 -6.14081551 23.0011461 -6.1875 20 C-6.21263672 19.16082031 -6.23777344 18.32164063 -6.26367188 17.45703125 C-6.33176183 11.60129502 -5.54094667 7.30696555 -3 2 C-2.01 1.34 -1.02 0.68 0 0 Z " fill="#915E58" transform="translate(127,75)"/>
<path d="M0 0 C3.97638733 2.8718353 6.51530859 5.76682204 9 10 C9 10.66 9 11.32 9 12 C6 14 6 14 3 14 C4 12 5 10 6 8 C5.34 8 4.68 8 4 8 C4 7.01 4 6.02 4 5 C2.35 4.67 0.7 4.34 -1 4 C-0.67 2.68 -0.34 1.36 0 0 Z " fill="#9B4A45" transform="translate(197,65)"/>
<path d="M0 0 C0.66 0 1.32 0 2 0 C5 3.46153846 5 3.46153846 5 6 C2.525 5.01 2.525 5.01 0 4 C-0.639375 4.969375 -1.27875 5.93875 -1.9375 6.9375 C-4 10 -4 10 -5 11 C-6.99958364 11.04080783 -9.00045254 11.04254356 -11 11 C-11 10.67 -11 10.34 -11 10 C-10.24074219 9.92910156 -9.48148438 9.85820313 -8.69921875 9.78515625 C-5.22354858 8.77414365 -4.60832144 7.51398768 -2.8125 4.4375 C-1.92119694 2.93004548 -0.99348742 1.44215915 0 0 Z " fill="#8E4340" transform="translate(181,102)"/>
<path d="M0 0 C1.36511719 0.43119141 1.36511719 0.43119141 2.7578125 0.87109375 C3.45648438 1.09925781 4.15515625 1.32742187 4.875 1.5625 C4.875 2.5525 4.875 3.5425 4.875 4.5625 C4.215 4.2325 3.555 3.9025 2.875 3.5625 C0.87545254 3.51995644 -1.12541636 3.52169217 -3.125 3.5625 C-4.115 3.5625 -5.105 3.5625 -6.125 3.5625 C-6.455 2.2425 -6.785 0.9225 -7.125 -0.4375 C-4.30685434 -1.84657283 -2.95222796 -0.94622691 0 0 Z " fill="#9E4140" transform="translate(191.125,82.4375)"/>
<path d="M0 0 C0.99 0.33 1.98 0.66 3 1 C2.625 3.9375 2.625 3.9375 2 7 C-1.20062687 8.60031344 -3.72271806 7.03173691 -7 6 C-6.67 5.34 -6.34 4.68 -6 4 C-5.67 4.33 -5.34 4.66 -5 5 C-3.33382885 5.04063832 -1.66611905 5.042721 0 5 C0 3.35 0 1.7 0 0 Z " fill="#715753" transform="translate(107,73)"/>
<path d="M0 0 C2.31 0.33 4.62 0.66 7 1 C7 2.32 7 3.64 7 5 C3.34683329 3.75023244 2.21934164 3.32901247 0 0 Z " fill="#755E57" transform="translate(62,129)"/>
<path d="M0 0 C0.99 0.33 1.98 0.66 3 1 C3 1.66 3 2.32 3 3 C0 5 0 5 -3 5 C-1.125 1.125 -1.125 1.125 0 0 Z " fill="#9C403E" transform="translate(203,74)"/>
</svg>
